<svg xmlns="http://www.w3.org/2000/svg" xmlns:xlink="http://www.w3.org/1999/xlink" width="500" zoomAndPan="magnify" viewBox="0 0 375 374.999991" height="500" preserveAspectRatio="xMidYMid meet" version="1.0"><defs><g/><clipPath id="30ca49b797"><path d="M 6 0 L 107 0 L 107 107 L 6 107 Z M 6 0 " clip-rule="nonzero"/></clipPath><clipPath id="c5acc399d3"><path d="M 0 6.40625 L 106.546875 0.0195312 L 112.667969 102.171875 L 6.121094 108.558594 Z M 0 6.40625 " clip-rule="nonzero"/></clipPath><clipPath id="e3b4f5fd13"><path d="M 0 6.40625 L 106.546875 0.0195312 L 112.667969 102.171875 L 6.121094 108.558594 Z M 0 6.40625 " clip-rule="nonzero"/></clipPath></defs><g clip-path="url(#30ca49b797)"><g clip-path="url(#c5acc399d3)"><g clip-path="url(#e3b4f5fd13)"><path fill="#ff3131" d="M 81.917969 81.316406 L 76.410156 76.433594 C 75.359375 75.503906 75.265625 73.902344 76.195312 72.851562 L 82.503906 65.738281 C 83.433594 64.6875 83.339844 63.085938 82.289062 62.15625 C 81.242188 61.226562 79.640625 61.320312 78.707031 62.371094 L 67.429688 75.085938 C 66.269531 76.398438 64.265625 76.515625 62.957031 75.355469 C 61.648438 74.195312 61.527344 72.191406 62.6875 70.882812 L 81.539062 49.628906 C 82.46875 48.578125 82.375 46.976562 81.324219 46.046875 C 80.273438 45.117188 78.671875 45.210938 77.742188 46.261719 L 37.367188 91.785156 C 36.207031 93.09375 34.203125 93.214844 32.894531 92.054688 C 31.585938 90.890625 31.464844 88.890625 32.625 87.582031 L 65.429688 50.59375 C 66.359375 49.542969 66.265625 47.941406 65.214844 47.011719 C 64.164062 46.082031 62.5625 46.175781 61.632812 47.226562 L 48.839844 61.648438 C 47.910156 62.699219 46.308594 62.796875 45.261719 61.863281 L 44.308594 61.023438 C 43.261719 60.089844 43.164062 58.488281 44.09375 57.441406 L 64.460938 34.480469 C 65.390625 33.429688 65.292969 31.828125 64.246094 30.898438 C 63.195312 29.96875 61.59375 30.0625 60.664062 31.113281 L 12.6875 85.222656 C 11.527344 86.53125 9.523438 86.652344 8.214844 85.488281 C 6.902344 84.328125 6.785156 82.324219 7.945312 81.015625 L 48.355469 35.453125 C 49.285156 34.40625 49.1875 32.804688 48.140625 31.871094 C 47.089844 30.941406 45.488281 31.039062 44.558594 32.085938 L 38.253906 39.203125 C 37.320312 40.25 35.722656 40.347656 34.671875 39.417969 L 29.164062 34.53125 C 27.753906 33.28125 28.15625 30.984375 29.902344 30.28125 L 103.066406 0.917969 C 105.007812 0.140625 107.003906 1.910156 106.460938 3.929688 L 86.050781 80.078125 C 85.558594 81.894531 83.324219 82.566406 81.917969 81.316406 Z M 40.105469 66.730469 C 38.796875 65.570312 36.792969 65.6875 35.632812 67 L 6.820312 99.484375 C 5.65625 100.792969 5.777344 102.796875 7.085938 103.957031 C 8.398438 105.121094 10.398438 105 11.558594 103.691406 L 40.371094 71.203125 C 41.535156 69.894531 41.414062 67.890625 40.105469 66.730469 Z M 58.859375 79.972656 C 57.550781 78.8125 55.546875 78.933594 54.386719 80.242188 L 35.660156 101.359375 C 34.496094 102.667969 34.617188 104.671875 35.925781 105.832031 C 37.234375 106.992188 39.238281 106.875 40.398438 105.5625 L 59.128906 84.449219 C 60.289062 83.136719 60.171875 81.136719 58.859375 79.972656 Z M 31.0625 94 C 29.789062 92.867188 27.832031 92.984375 26.703125 94.261719 C 25.570312 95.535156 25.6875 97.488281 26.964844 98.621094 C 28.238281 99.753906 30.191406 99.636719 31.324219 98.359375 C 32.457031 97.082031 32.339844 95.128906 31.0625 94 Z M 31.0625 94 " fill-opacity="1" fill-rule="nonzero"/></g></g></g><g fill="#000000" fill-opacity="1"><g transform="translate(104.696628, 65.999157)"><g><path d="M 15.046875 0 C 14.972656 -0.257812 14.898438 -0.5 14.828125 -0.71875 C 14.753906 -0.945312 14.6875 -1.226562 14.625 -1.5625 C 14.570312 -1.894531 14.535156 -2.320312 14.515625 -2.84375 C 14.503906 -3.363281 14.5 -4.015625 14.5 -4.796875 L 14.5 -10.921875 C 14.5 -12.742188 14.179688 -14.023438 13.546875 -14.765625 C 12.910156 -15.515625 11.890625 -15.890625 10.484375 -15.890625 L 8.359375 -15.890625 L 8.359375 0 L 2.234375 0 L 2.234375 -39.03125 L 11.484375 -39.03125 C 14.679688 -39.03125 16.992188 -38.285156 18.421875 -36.796875 C 19.859375 -35.304688 20.578125 -33.054688 20.578125 -30.046875 L 20.578125 -26.984375 C 20.578125 -22.972656 19.238281 -20.332031 16.5625 -19.0625 C 18.125 -18.4375 19.191406 -17.40625 19.765625 -15.96875 C 20.335938 -14.539062 20.625 -12.804688 20.625 -10.765625 L 20.625 -4.734375 C 20.625 -3.773438 20.660156 -2.929688 20.734375 -2.203125 C 20.804688 -1.472656 20.992188 -0.738281 21.296875 0 Z M 8.359375 -33.453125 L 8.359375 -21.46875 L 10.765625 -21.46875 C 11.910156 -21.46875 12.804688 -21.765625 13.453125 -22.359375 C 14.109375 -22.953125 14.4375 -24.03125 14.4375 -25.59375 L 14.4375 -29.4375 C 14.4375 -30.84375 14.1875 -31.863281 13.6875 -32.5 C 13.1875 -33.132812 12.394531 -33.453125 11.3125 -33.453125 Z M 8.359375 -33.453125 "/></g></g></g><g fill="#000000" fill-opacity="1"><g transform="translate(127.104504, 65.999157)"><g><path d="M 22.078125 0 L 15.890625 0 L 14.828125 -7.078125 L 7.296875 -7.078125 L 6.25 0 L 0.609375 0 L 6.859375 -39.03125 L 15.828125 -39.03125 Z M 8.078125 -12.375 L 14 -12.375 L 11.03125 -32.109375 Z M 8.078125 -12.375 "/></g></g></g><g fill="#000000" fill-opacity="1"><g transform="translate(149.791083, 65.999157)"><g><path d="M 0.5625 -39.03125 L 19.515625 -39.03125 L 19.515625 -33.453125 L 13.09375 -33.453125 L 13.09375 0 L 6.96875 0 L 6.96875 -33.453125 L 0.5625 -33.453125 Z M 0.5625 -39.03125 "/></g></g></g><g fill="#000000" fill-opacity="1"><g transform="translate(169.85784, 65.999157)"><g><path d="M 8.359375 -22.578125 L 16.78125 -22.578125 L 16.78125 -17 L 8.359375 -17 L 8.359375 -5.578125 L 18.953125 -5.578125 L 18.953125 0 L 2.234375 0 L 2.234375 -39.03125 L 18.953125 -39.03125 L 18.953125 -33.453125 L 8.359375 -33.453125 Z M 8.359375 -22.578125 "/></g></g></g><g fill="#ff3131" fill-opacity="1"><g transform="translate(199.928252, 65.999157)"><g><path d="M 20.015625 -14.546875 L 20.015625 -9.359375 C 20.015625 -6.203125 19.242188 -3.773438 17.703125 -2.078125 C 16.160156 -0.390625 13.882812 0.453125 10.875 0.453125 C 7.863281 0.453125 5.585938 -0.390625 4.046875 -2.078125 C 2.503906 -3.773438 1.734375 -6.203125 1.734375 -9.359375 L 1.734375 -29.65625 C 1.734375 -32.8125 2.503906 -35.234375 4.046875 -36.921875 C 5.585938 -38.617188 7.863281 -39.46875 10.875 -39.46875 C 13.882812 -39.46875 16.160156 -38.617188 17.703125 -36.921875 C 19.242188 -35.234375 20.015625 -32.8125 20.015625 -29.65625 L 20.015625 -25.875 L 14.21875 -25.875 L 14.21875 -30.046875 C 14.21875 -31.460938 13.925781 -32.457031 13.34375 -33.03125 C 12.769531 -33.601562 12 -33.890625 11.03125 -33.890625 C 10.070312 -33.890625 9.300781 -33.601562 8.71875 -33.03125 C 8.144531 -32.457031 7.859375 -31.460938 7.859375 -30.046875 L 7.859375 -8.96875 C 7.859375 -7.5625 8.144531 -6.578125 8.71875 -6.015625 C 9.300781 -5.460938 10.070312 -5.1875 11.03125 -5.1875 C 12 -5.1875 12.769531 -5.460938 13.34375 -6.015625 C 13.925781 -6.578125 14.21875 -7.5625 14.21875 -8.96875 L 14.21875 -14.546875 Z M 20.015625 -14.546875 "/></g></g></g><g fill="#ff3131" fill-opacity="1"><g transform="translate(221.444273, 65.999157)"><g><path d="M 15.046875 0 C 14.972656 -0.257812 14.898438 -0.5 14.828125 -0.71875 C 14.753906 -0.945312 14.6875 -1.226562 14.625 -1.5625 C 14.570312 -1.894531 14.535156 -2.320312 14.515625 -2.84375 C 14.503906 -3.363281 14.5 -4.015625 14.5 -4.796875 L 14.5 -10.921875 C 14.5 -12.742188 14.179688 -14.023438 13.546875 -14.765625 C 12.910156 -15.515625 11.890625 -15.890625 10.484375 -15.890625 L 8.359375 -15.890625 L 8.359375 0 L 2.234375 0 L 2.234375 -39.03125 L 11.484375 -39.03125 C 14.679688 -39.03125 16.992188 -38.285156 18.421875 -36.796875 C 19.859375 -35.304688 20.578125 -33.054688 20.578125 -30.046875 L 20.578125 -26.984375 C 20.578125 -22.972656 19.238281 -20.332031 16.5625 -19.0625 C 18.125 -18.4375 19.191406 -17.40625 19.765625 -15.96875 C 20.335938 -14.539062 20.625 -12.804688 20.625 -10.765625 L 20.625 -4.734375 C 20.625 -3.773438 20.660156 -2.929688 20.734375 -2.203125 C 20.804688 -1.472656 20.992188 -0.738281 21.296875 0 Z M 8.359375 -33.453125 L 8.359375 -21.46875 L 10.765625 -21.46875 C 11.910156 -21.46875 12.804688 -21.765625 13.453125 -22.359375 C 14.109375 -22.953125 14.4375 -24.03125 14.4375 -25.59375 L 14.4375 -29.4375 C 14.4375 -30.84375 14.1875 -31.863281 13.6875 -32.5 C 13.1875 -33.132812 12.394531 -33.453125 11.3125 -33.453125 Z M 8.359375 -33.453125 "/></g></g></g><g fill="#ff3131" fill-opacity="1"><g transform="translate(243.852149, 65.999157)"><g><path d="M 8.359375 -22.578125 L 16.78125 -22.578125 L 16.78125 -17 L 8.359375 -17 L 8.359375 -5.578125 L 18.953125 -5.578125 L 18.953125 0 L 2.234375 0 L 2.234375 -39.03125 L 18.953125 -39.03125 L 18.953125 -33.453125 L 8.359375 -33.453125 Z M 8.359375 -22.578125 "/></g></g></g><g fill="#ff3131" fill-opacity="1"><g transform="translate(264.364826, 65.999157)"><g><path d="M 22.078125 0 L 15.890625 0 L 14.828125 -7.078125 L 7.296875 -7.078125 L 6.25 0 L 0.609375 0 L 6.859375 -39.03125 L 15.828125 -39.03125 Z M 8.078125 -12.375 L 14 -12.375 L 11.03125 -32.109375 Z M 8.078125 -12.375 "/></g></g></g><g fill="#ff3131" fill-opacity="1"><g transform="translate(287.051405, 65.999157)"><g><path d="M 0.5625 -39.03125 L 19.515625 -39.03125 L 19.515625 -33.453125 L 13.09375 -33.453125 L 13.09375 0 L 6.96875 0 L 6.96875 -33.453125 L 0.5625 -33.453125 Z M 0.5625 -39.03125 "/></g></g></g><g fill="#ff3131" fill-opacity="1"><g transform="translate(307.118162, 65.999157)"><g><path d="M 7.859375 -8.96875 C 7.859375 -7.5625 8.144531 -6.566406 8.71875 -5.984375 C 9.300781 -5.410156 10.070312 -5.125 11.03125 -5.125 C 12 -5.125 12.769531 -5.410156 13.34375 -5.984375 C 13.925781 -6.566406 14.21875 -7.5625 14.21875 -8.96875 L 14.21875 -30.046875 C 14.21875 -31.460938 13.925781 -32.457031 13.34375 -33.03125 C 12.769531 -33.601562 12 -33.890625 11.03125 -33.890625 C 10.070312 -33.890625 9.300781 -33.601562 8.71875 -33.03125 C 8.144531 -32.457031 7.859375 -31.460938 7.859375 -30.046875 Z M 1.734375 -29.65625 C 1.734375 -32.8125 2.53125 -35.234375 4.125 -36.921875 C 5.71875 -38.617188 8.019531 -39.46875 11.03125 -39.46875 C 14.039062 -39.46875 16.34375 -38.617188 17.9375 -36.921875 C 19.539062 -35.234375 20.34375 -32.8125 20.34375 -29.65625 L 20.34375 -9.359375 C 20.34375 -6.203125 19.539062 -3.773438 17.9375 -2.078125 C 16.34375 -0.390625 14.039062 0.453125 11.03125 0.453125 C 8.019531 0.453125 5.71875 -0.390625 4.125 -2.078125 C 2.53125 -3.773438 1.734375 -6.203125 1.734375 -9.359375 Z M 1.734375 -29.65625 "/></g></g></g><g fill="#ff3131" fill-opacity="1"><g transform="translate(329.19159, 65.999157)"><g><path d="M 15.046875 0 C 14.972656 -0.257812 14.898438 -0.5 14.828125 -0.71875 C 14.753906 -0.945312 14.6875 -1.226562 14.625 -1.5625 C 14.570312 -1.894531 14.535156 -2.320312 14.515625 -2.84375 C 14.503906 -3.363281 14.5 -4.015625 14.5 -4.796875 L 14.5 -10.921875 C 14.5 -12.742188 14.179688 -14.023438 13.546875 -14.765625 C 12.910156 -15.515625 11.890625 -15.890625 10.484375 -15.890625 L 8.359375 -15.890625 L 8.359375 0 L 2.234375 0 L 2.234375 -39.03125 L 11.484375 -39.03125 C 14.679688 -39.03125 16.992188 -38.285156 18.421875 -36.796875 C 19.859375 -35.304688 20.578125 -33.054688 20.578125 -30.046875 L 20.578125 -26.984375 C 20.578125 -22.972656 19.238281 -20.332031 16.5625 -19.0625 C 18.125 -18.4375 19.191406 -17.40625 19.765625 -15.96875 C 20.335938 -14.539062 20.625 -12.804688 20.625 -10.765625 L 20.625 -4.734375 C 20.625 -3.773438 20.660156 -2.929688 20.734375 -2.203125 C 20.804688 -1.472656 20.992188 -0.738281 21.296875 0 Z M 8.359375 -33.453125 L 8.359375 -21.46875 L 10.765625 -21.46875 C 11.910156 -21.46875 12.804688 -21.765625 13.453125 -22.359375 C 14.109375 -22.953125 14.4375 -24.03125 14.4375 -25.59375 L 14.4375 -29.4375 C 14.4375 -30.84375 14.1875 -31.863281 13.6875 -32.5 C 13.1875 -33.132812 12.394531 -33.453125 11.3125 -33.453125 Z M 8.359375 -33.453125 "/></g></g></g><g fill="#000000" fill-opacity="1"><g transform="translate(107.997756, 84.338775)"><g><path d="M 6.703125 0 C 6.585938 0 6.515625 -0.0507812 6.484375 -0.15625 L 4.53125 -6.046875 C 4.519531 -6.078125 4.492188 -6.09375 4.453125 -6.09375 L 2.796875 -6.09375 C 2.742188 -6.09375 2.71875 -6.070312 2.71875 -6.03125 L 2.71875 -0.1875 C 2.71875 -0.0625 2.65625 0 2.53125 0 L 1.5625 0 C 1.4375 0 1.375 -0.0625 1.375 -0.1875 L 1.375 -13.15625 C 1.375 -13.28125 1.4375 -13.34375 1.5625 -13.34375 L 4.703125 -13.34375 C 5.628906 -13.34375 6.378906 -13 6.953125 -12.3125 C 7.523438 -11.632812 7.8125 -10.753906 7.8125 -9.671875 C 7.8125 -8.835938 7.632812 -8.125 7.28125 -7.53125 C 6.925781 -6.9375 6.441406 -6.515625 5.828125 -6.265625 C 5.773438 -6.253906 5.757812 -6.222656 5.78125 -6.171875 L 7.859375 -0.203125 L 7.875 -0.140625 C 7.875 -0.046875 7.816406 0 7.703125 0 Z M 2.796875 -12.15625 C 2.742188 -12.15625 2.71875 -12.128906 2.71875 -12.078125 L 2.71875 -7.265625 C 2.71875 -7.210938 2.742188 -7.1875 2.796875 -7.1875 L 4.515625 -7.1875 C 5.097656 -7.1875 5.566406 -7.410156 5.921875 -7.859375 C 6.285156 -8.316406 6.46875 -8.921875 6.46875 -9.671875 C 6.46875 -10.421875 6.285156 -11.019531 5.921875 -11.46875 C 5.566406 -11.925781 5.097656 -12.15625 4.515625 -12.15625 Z M 2.796875 -12.15625 "/></g></g></g><g fill="#000000" fill-opacity="1"><g transform="translate(116.444585, 84.338775)"><g><path d="M 6.921875 -4.5 C 6.921875 -4.375 6.859375 -4.3125 6.734375 -4.3125 L 2.390625 -4.3125 C 2.335938 -4.3125 2.3125 -4.285156 2.3125 -4.234375 L 2.3125 -2.84375 C 2.3125 -2.3125 2.457031 -1.875 2.75 -1.53125 C 3.050781 -1.195312 3.441406 -1.03125 3.921875 -1.03125 C 4.328125 -1.03125 4.671875 -1.148438 4.953125 -1.390625 C 5.242188 -1.640625 5.4375 -1.960938 5.53125 -2.359375 C 5.5625 -2.472656 5.628906 -2.53125 5.734375 -2.53125 L 6.6875 -2.5 C 6.738281 -2.5 6.78125 -2.476562 6.8125 -2.4375 C 6.851562 -2.40625 6.867188 -2.351562 6.859375 -2.28125 C 6.753906 -1.53125 6.445312 -0.9375 5.9375 -0.5 C 5.425781 -0.0625 4.753906 0.15625 3.921875 0.15625 C 3.023438 0.15625 2.304688 -0.109375 1.765625 -0.640625 C 1.222656 -1.179688 0.953125 -1.890625 0.953125 -2.765625 L 0.953125 -6.875 C 0.953125 -7.738281 1.222656 -8.441406 1.765625 -8.984375 C 2.304688 -9.523438 3.023438 -9.796875 3.921875 -9.796875 C 4.835938 -9.796875 5.566406 -9.523438 6.109375 -8.984375 C 6.648438 -8.441406 6.921875 -7.738281 6.921875 -6.875 Z M 3.921875 -8.609375 C 3.441406 -8.609375 3.050781 -8.441406 2.75 -8.109375 C 2.457031 -7.773438 2.3125 -7.332031 2.3125 -6.78125 L 2.3125 -5.515625 C 2.3125 -5.460938 2.335938 -5.4375 2.390625 -5.4375 L 5.515625 -5.4375 C 5.554688 -5.4375 5.578125 -5.460938 5.578125 -5.515625 L 5.578125 -6.78125 C 5.578125 -7.332031 5.425781 -7.773438 5.125 -8.109375 C 4.820312 -8.441406 4.421875 -8.609375 3.921875 -8.609375 Z M 3.921875 -8.609375 "/></g></g></g><g fill="#000000" fill-opacity="1"><g transform="translate(124.204989, 84.338775)"><g><path d="M 3.046875 0 C 2.929688 0 2.863281 -0.0546875 2.84375 -0.171875 L 0.484375 -9.4375 L 0.453125 -9.515625 C 0.453125 -9.597656 0.507812 -9.640625 0.625 -9.640625 L 1.734375 -9.640625 C 1.847656 -9.640625 1.914062 -9.582031 1.9375 -9.46875 L 3.578125 -2.25 C 3.597656 -2.207031 3.613281 -2.1875 3.625 -2.1875 C 3.632812 -2.1875 3.644531 -2.207031 3.65625 -2.25 L 5.28125 -9.46875 C 5.300781 -9.582031 5.367188 -9.640625 5.484375 -9.640625 L 6.59375 -9.625 C 6.65625 -9.625 6.703125 -9.601562 6.734375 -9.5625 C 6.765625 -9.53125 6.769531 -9.484375 6.75 -9.421875 L 4.40625 -0.171875 C 4.394531 -0.0546875 4.320312 0 4.1875 0 Z M 3.046875 0 "/></g></g></g><g fill="#000000" fill-opacity="1"><g transform="translate(131.431508, 84.338775)"><g><path d="M 1.984375 -11.40625 C 1.660156 -11.40625 1.398438 -11.503906 1.203125 -11.703125 C 1.015625 -11.910156 0.921875 -12.164062 0.921875 -12.46875 C 0.921875 -12.78125 1.015625 -13.035156 1.203125 -13.234375 C 1.398438 -13.429688 1.660156 -13.53125 1.984375 -13.53125 C 2.285156 -13.53125 2.535156 -13.429688 2.734375 -13.234375 C 2.929688 -13.035156 3.03125 -12.78125 3.03125 -12.46875 C 3.03125 -12.164062 2.929688 -11.910156 2.734375 -11.703125 C 2.535156 -11.503906 2.285156 -11.40625 1.984375 -11.40625 Z M 1.5 0 C 1.375 0 1.3125 -0.0625 1.3125 -0.1875 L 1.3125 -9.453125 C 1.3125 -9.578125 1.375 -9.640625 1.5 -9.640625 L 2.484375 -9.640625 C 2.609375 -9.640625 2.671875 -9.578125 2.671875 -9.453125 L 2.671875 -0.1875 C 2.671875 -0.0625 2.609375 0 2.484375 0 Z M 1.5 0 "/></g></g></g><g fill="#000000" fill-opacity="1"><g transform="translate(135.397518, 84.338775)"><g><path d="M 6.921875 -4.5 C 6.921875 -4.375 6.859375 -4.3125 6.734375 -4.3125 L 2.390625 -4.3125 C 2.335938 -4.3125 2.3125 -4.285156 2.3125 -4.234375 L 2.3125 -2.84375 C 2.3125 -2.3125 2.457031 -1.875 2.75 -1.53125 C 3.050781 -1.195312 3.441406 -1.03125 3.921875 -1.03125 C 4.328125 -1.03125 4.671875 -1.148438 4.953125 -1.390625 C 5.242188 -1.640625 5.4375 -1.960938 5.53125 -2.359375 C 5.5625 -2.472656 5.628906 -2.53125 5.734375 -2.53125 L 6.6875 -2.5 C 6.738281 -2.5 6.78125 -2.476562 6.8125 -2.4375 C 6.851562 -2.40625 6.867188 -2.351562 6.859375 -2.28125 C 6.753906 -1.53125 6.445312 -0.9375 5.9375 -0.5 C 5.425781 -0.0625 4.753906 0.15625 3.921875 0.15625 C 3.023438 0.15625 2.304688 -0.109375 1.765625 -0.640625 C 1.222656 -1.179688 0.953125 -1.890625 0.953125 -2.765625 L 0.953125 -6.875 C 0.953125 -7.738281 1.222656 -8.441406 1.765625 -8.984375 C 2.304688 -9.523438 3.023438 -9.796875 3.921875 -9.796875 C 4.835938 -9.796875 5.566406 -9.523438 6.109375 -8.984375 C 6.648438 -8.441406 6.921875 -7.738281 6.921875 -6.875 Z M 3.921875 -8.609375 C 3.441406 -8.609375 3.050781 -8.441406 2.75 -8.109375 C 2.457031 -7.773438 2.3125 -7.332031 2.3125 -6.78125 L 2.3125 -5.515625 C 2.3125 -5.460938 2.335938 -5.4375 2.390625 -5.4375 L 5.515625 -5.4375 C 5.554688 -5.4375 5.578125 -5.460938 5.578125 -5.515625 L 5.578125 -6.78125 C 5.578125 -7.332031 5.425781 -7.773438 5.125 -8.109375 C 4.820312 -8.441406 4.421875 -8.609375 3.921875 -8.609375 Z M 3.921875 -8.609375 "/></g></g></g><g fill="#000000" fill-opacity="1"><g transform="translate(143.157921, 84.338775)"><g><path d="M 2.6875 0 C 2.570312 0 2.503906 -0.0546875 2.484375 -0.171875 L 0.453125 -9.4375 L 0.453125 -9.46875 C 0.453125 -9.582031 0.507812 -9.640625 0.625 -9.640625 L 1.5625 -9.640625 C 1.6875 -9.640625 1.753906 -9.582031 1.765625 -9.46875 L 3.140625 -2.1875 C 3.160156 -2.164062 3.175781 -2.15625 3.1875 -2.15625 C 3.195312 -2.15625 3.207031 -2.164062 3.21875 -2.1875 L 4.625 -9.46875 C 4.65625 -9.582031 4.726562 -9.640625 4.84375 -9.640625 L 5.703125 -9.640625 C 5.828125 -9.640625 5.894531 -9.582031 5.90625 -9.46875 L 7.3125 -2.1875 C 7.332031 -2.164062 7.347656 -2.15625 7.359375 -2.15625 C 7.367188 -2.15625 7.378906 -2.164062 7.390625 -2.1875 L 8.8125 -9.46875 C 8.832031 -9.582031 8.898438 -9.640625 9.015625 -9.640625 L 9.9375 -9.625 C 10.070312 -9.625 10.128906 -9.554688 10.109375 -9.421875 L 8.078125 -0.171875 C 8.066406 -0.0546875 8 0 7.875 0 L 6.90625 0 C 6.789062 0 6.71875 -0.0546875 6.6875 -0.171875 L 5.28125 -7.15625 C 5.269531 -7.1875 5.253906 -7.203125 5.234375 -7.203125 C 5.222656 -7.203125 5.210938 -7.1875 5.203125 -7.15625 L 3.84375 -0.171875 C 3.832031 -0.0546875 3.765625 0 3.640625 0 Z M 2.6875 0 "/></g></g></g><g fill="#000000" fill-opacity="1"><g transform="translate(153.72123, 84.338775)"><g><path d="M 1.984375 -11.40625 C 1.660156 -11.40625 1.398438 -11.503906 1.203125 -11.703125 C 1.015625 -11.910156 0.921875 -12.164062 0.921875 -12.46875 C 0.921875 -12.78125 1.015625 -13.035156 1.203125 -13.234375 C 1.398438 -13.429688 1.660156 -13.53125 1.984375 -13.53125 C 2.285156 -13.53125 2.535156 -13.429688 2.734375 -13.234375 C 2.929688 -13.035156 3.03125 -12.78125 3.03125 -12.46875 C 3.03125 -12.164062 2.929688 -11.910156 2.734375 -11.703125 C 2.535156 -11.503906 2.285156 -11.40625 1.984375 -11.40625 Z M 1.5 0 C 1.375 0 1.3125 -0.0625 1.3125 -0.1875 L 1.3125 -9.453125 C 1.3125 -9.578125 1.375 -9.640625 1.5 -9.640625 L 2.484375 -9.640625 C 2.609375 -9.640625 2.671875 -9.578125 2.671875 -9.453125 L 2.671875 -0.1875 C 2.671875 -0.0625 2.609375 0 2.484375 0 Z M 1.5 0 "/></g></g></g><g fill="#000000" fill-opacity="1"><g transform="translate(157.687239, 84.338775)"><g><path d="M 4.59375 -9.78125 C 5.363281 -9.78125 5.960938 -9.507812 6.390625 -8.96875 C 6.816406 -8.4375 7.03125 -7.695312 7.03125 -6.75 L 7.03125 -0.1875 C 7.03125 -0.0625 6.96875 0 6.84375 0 L 5.875 0 C 5.75 0 5.6875 -0.0625 5.6875 -0.1875 L 5.6875 -6.640625 C 5.6875 -7.253906 5.546875 -7.734375 5.265625 -8.078125 C 4.992188 -8.421875 4.617188 -8.59375 4.140625 -8.59375 C 3.628906 -8.59375 3.226562 -8.40625 2.9375 -8.03125 C 2.65625 -7.664062 2.515625 -7.164062 2.515625 -6.53125 L 2.515625 -0.1875 C 2.515625 -0.0625 2.453125 0 2.328125 0 L 1.359375 0 C 1.222656 0 1.15625 -0.0625 1.15625 -0.1875 L 1.15625 -9.453125 C 1.15625 -9.578125 1.222656 -9.640625 1.359375 -9.640625 L 2.328125 -9.640625 C 2.453125 -9.640625 2.515625 -9.578125 2.515625 -9.453125 L 2.515625 -8.84375 C 2.515625 -8.820312 2.523438 -8.800781 2.546875 -8.78125 C 2.578125 -8.769531 2.597656 -8.785156 2.609375 -8.828125 C 2.835938 -9.140625 3.125 -9.375 3.46875 -9.53125 C 3.820312 -9.695312 4.195312 -9.78125 4.59375 -9.78125 Z M 4.59375 -9.78125 "/></g></g></g><g fill="#000000" fill-opacity="1"><g transform="translate(165.771782, 84.338775)"><g><path d="M 5.546875 -9.453125 C 5.546875 -9.578125 5.609375 -9.640625 5.734375 -9.640625 L 6.703125 -9.640625 C 6.835938 -9.640625 6.90625 -9.578125 6.90625 -9.453125 L 6.90625 -0.1875 C 6.90625 1.164062 6.585938 2.195312 5.953125 2.90625 C 5.328125 3.613281 4.273438 3.9375 2.796875 3.875 C 2.671875 3.851562 2.609375 3.78125 2.609375 3.65625 L 2.609375 2.84375 C 2.609375 2.71875 2.671875 2.65625 2.796875 2.65625 C 3.816406 2.675781 4.53125 2.441406 4.9375 1.953125 C 5.34375 1.460938 5.546875 0.707031 5.546875 -0.3125 L 5.546875 -0.875 C 5.546875 -0.90625 5.535156 -0.925781 5.515625 -0.9375 C 5.492188 -0.945312 5.472656 -0.941406 5.453125 -0.921875 C 5.234375 -0.597656 4.957031 -0.351562 4.625 -0.1875 C 4.289062 -0.0195312 3.929688 0.0625 3.546875 0.0625 C 2.742188 0.0625 2.109375 -0.203125 1.640625 -0.734375 C 1.179688 -1.273438 0.953125 -1.984375 0.953125 -2.859375 L 0.953125 -6.875 C 0.953125 -7.769531 1.179688 -8.476562 1.640625 -9 C 2.109375 -9.53125 2.742188 -9.796875 3.546875 -9.796875 C 3.929688 -9.796875 4.289062 -9.71875 4.625 -9.5625 C 4.957031 -9.40625 5.234375 -9.164062 5.453125 -8.84375 C 5.472656 -8.800781 5.492188 -8.785156 5.515625 -8.796875 C 5.535156 -8.804688 5.546875 -8.828125 5.546875 -8.859375 Z M 3.953125 -1.125 C 4.421875 -1.125 4.800781 -1.289062 5.09375 -1.625 C 5.394531 -1.96875 5.546875 -2.40625 5.546875 -2.9375 L 5.546875 -6.78125 C 5.546875 -7.332031 5.394531 -7.773438 5.09375 -8.109375 C 4.800781 -8.441406 4.421875 -8.609375 3.953125 -8.609375 C 3.460938 -8.609375 3.066406 -8.441406 2.765625 -8.109375 C 2.460938 -7.773438 2.3125 -7.332031 2.3125 -6.78125 L 2.3125 -2.9375 C 2.3125 -2.40625 2.460938 -1.96875 2.765625 -1.625 C 3.066406 -1.289062 3.460938 -1.125 3.953125 -1.125 Z M 3.953125 -1.125 "/></g></g></g><g fill="#000000" fill-opacity="1"><g transform="translate(173.646596, 84.338775)"><g/></g></g><g fill="#000000" fill-opacity="1"><g transform="translate(177.460064, 84.338775)"><g><path d="M 4.5625 -8.828125 C 4.5625 -8.703125 4.492188 -8.640625 4.359375 -8.640625 L 2.921875 -8.640625 C 2.867188 -8.640625 2.84375 -8.613281 2.84375 -8.5625 L 2.84375 -2.71875 C 2.84375 -2.132812 2.941406 -1.734375 3.140625 -1.515625 C 3.347656 -1.296875 3.660156 -1.191406 4.078125 -1.203125 L 4.265625 -1.203125 C 4.390625 -1.203125 4.453125 -1.140625 4.453125 -1.015625 L 4.453125 -0.1875 C 4.453125 -0.0625 4.390625 0 4.265625 0 L 3.796875 0 C 3.046875 0 2.472656 -0.160156 2.078125 -0.484375 C 1.691406 -0.804688 1.5 -1.421875 1.5 -2.328125 L 1.5 -8.5625 C 1.5 -8.613281 1.476562 -8.640625 1.4375 -8.640625 L 0.6875 -8.640625 C 0.5625 -8.640625 0.5 -8.703125 0.5 -8.828125 L 0.5 -9.453125 C 0.5 -9.578125 0.5625 -9.640625 0.6875 -9.640625 L 1.4375 -9.640625 C 1.476562 -9.640625 1.5 -9.664062 1.5 -9.71875 L 1.5 -11.859375 C 1.5 -11.984375 1.566406 -12.046875 1.703125 -12.046875 L 2.65625 -12.046875 C 2.78125 -12.046875 2.84375 -11.984375 2.84375 -11.859375 L 2.84375 -9.71875 C 2.84375 -9.664062 2.867188 -9.640625 2.921875 -9.640625 L 4.359375 -9.640625 C 4.492188 -9.640625 4.5625 -9.578125 4.5625 -9.453125 Z M 4.5625 -8.828125 "/></g></g></g><g fill="#000000" fill-opacity="1"><g transform="translate(182.551047, 84.338775)"><g><path d="M 4.59375 -9.78125 C 5.363281 -9.78125 5.960938 -9.507812 6.390625 -8.96875 C 6.816406 -8.4375 7.03125 -7.695312 7.03125 -6.75 L 7.03125 -0.1875 C 7.03125 -0.0625 6.96875 0 6.84375 0 L 5.875 0 C 5.75 0 5.6875 -0.0625 5.6875 -0.1875 L 5.6875 -6.640625 C 5.6875 -7.253906 5.546875 -7.734375 5.265625 -8.078125 C 4.992188 -8.421875 4.617188 -8.59375 4.140625 -8.59375 C 3.628906 -8.59375 3.226562 -8.40625 2.9375 -8.03125 C 2.65625 -7.664062 2.515625 -7.164062 2.515625 -6.53125 L 2.515625 -0.1875 C 2.515625 -0.0625 2.453125 0 2.328125 0 L 1.359375 0 C 1.222656 0 1.15625 -0.0625 1.15625 -0.1875 L 1.15625 -13.15625 C 1.15625 -13.28125 1.222656 -13.34375 1.359375 -13.34375 L 2.328125 -13.34375 C 2.453125 -13.34375 2.515625 -13.28125 2.515625 -13.15625 L 2.515625 -8.84375 C 2.515625 -8.820312 2.523438 -8.800781 2.546875 -8.78125 C 2.578125 -8.769531 2.597656 -8.785156 2.609375 -8.828125 C 2.835938 -9.140625 3.125 -9.375 3.46875 -9.53125 C 3.820312 -9.695312 4.195312 -9.78125 4.59375 -9.78125 Z M 4.59375 -9.78125 "/></g></g></g><g fill="#000000" fill-opacity="1"><g transform="translate(190.635589, 84.338775)"><g><path d="M 6.921875 -4.5 C 6.921875 -4.375 6.859375 -4.3125 6.734375 -4.3125 L 2.390625 -4.3125 C 2.335938 -4.3125 2.3125 -4.285156 2.3125 -4.234375 L 2.3125 -2.84375 C 2.3125 -2.3125 2.457031 -1.875 2.75 -1.53125 C 3.050781 -1.195312 3.441406 -1.03125 3.921875 -1.03125 C 4.328125 -1.03125 4.671875 -1.148438 4.953125 -1.390625 C 5.242188 -1.640625 5.4375 -1.960938 5.53125 -2.359375 C 5.5625 -2.472656 5.628906 -2.53125 5.734375 -2.53125 L 6.6875 -2.5 C 6.738281 -2.5 6.78125 -2.476562 6.8125 -2.4375 C 6.851562 -2.40625 6.867188 -2.351562 6.859375 -2.28125 C 6.753906 -1.53125 6.445312 -0.9375 5.9375 -0.5 C 5.425781 -0.0625 4.753906 0.15625 3.921875 0.15625 C 3.023438 0.15625 2.304688 -0.109375 1.765625 -0.640625 C 1.222656 -1.179688 0.953125 -1.890625 0.953125 -2.765625 L 0.953125 -6.875 C 0.953125 -7.738281 1.222656 -8.441406 1.765625 -8.984375 C 2.304688 -9.523438 3.023438 -9.796875 3.921875 -9.796875 C 4.835938 -9.796875 5.566406 -9.523438 6.109375 -8.984375 C 6.648438 -8.441406 6.921875 -7.738281 6.921875 -6.875 Z M 3.921875 -8.609375 C 3.441406 -8.609375 3.050781 -8.441406 2.75 -8.109375 C 2.457031 -7.773438 2.3125 -7.332031 2.3125 -6.78125 L 2.3125 -5.515625 C 2.3125 -5.460938 2.335938 -5.4375 2.390625 -5.4375 L 5.515625 -5.4375 C 5.554688 -5.4375 5.578125 -5.460938 5.578125 -5.515625 L 5.578125 -6.78125 C 5.578125 -7.332031 5.425781 -7.773438 5.125 -8.109375 C 4.820312 -8.441406 4.421875 -8.609375 3.921875 -8.609375 Z M 3.921875 -8.609375 "/></g></g></g><g fill="#000000" fill-opacity="1"><g transform="translate(198.395993, 84.338775)"><g/></g></g><g fill="#000000" fill-opacity="1"><g transform="translate(202.209462, 84.338775)"><g><path d="M 1.5625 0 C 1.4375 0 1.375 -0.0625 1.375 -0.1875 L 1.375 -13.15625 C 1.375 -13.28125 1.4375 -13.34375 1.5625 -13.34375 L 2.53125 -13.34375 C 2.65625 -13.34375 2.71875 -13.28125 2.71875 -13.15625 L 2.71875 -0.1875 C 2.71875 -0.0625 2.65625 0 2.53125 0 Z M 1.5625 0 "/></g></g></g><g fill="#000000" fill-opacity="1"><g transform="translate(206.308938, 84.338775)"><g><path d="M 4.59375 -9.78125 C 5.363281 -9.78125 5.960938 -9.507812 6.390625 -8.96875 C 6.816406 -8.4375 7.03125 -7.695312 7.03125 -6.75 L 7.03125 -0.1875 C 7.03125 -0.0625 6.96875 0 6.84375 0 L 5.875 0 C 5.75 0 5.6875 -0.0625 5.6875 -0.1875 L 5.6875 -6.640625 C 5.6875 -7.253906 5.546875 -7.734375 5.265625 -8.078125 C 4.992188 -8.421875 4.617188 -8.59375 4.140625 -8.59375 C 3.628906 -8.59375 3.226562 -8.40625 2.9375 -8.03125 C 2.65625 -7.664062 2.515625 -7.164062 2.515625 -6.53125 L 2.515625 -0.1875 C 2.515625 -0.0625 2.453125 0 2.328125 0 L 1.359375 0 C 1.222656 0 1.15625 -0.0625 1.15625 -0.1875 L 1.15625 -9.453125 C 1.15625 -9.578125 1.222656 -9.640625 1.359375 -9.640625 L 2.328125 -9.640625 C 2.453125 -9.640625 2.515625 -9.578125 2.515625 -9.453125 L 2.515625 -8.84375 C 2.515625 -8.820312 2.523438 -8.800781 2.546875 -8.78125 C 2.578125 -8.769531 2.597656 -8.785156 2.609375 -8.828125 C 2.835938 -9.140625 3.125 -9.375 3.46875 -9.53125 C 3.820312 -9.695312 4.195312 -9.78125 4.59375 -9.78125 Z M 4.59375 -9.78125 "/></g></g></g><g fill="#000000" fill-opacity="1"><g transform="translate(214.39348, 84.338775)"><g><path d="M 4.234375 -12.3125 C 3.742188 -12.3125 3.394531 -12.148438 3.1875 -11.828125 C 2.988281 -11.503906 2.890625 -11 2.890625 -10.3125 L 2.890625 -9.71875 C 2.890625 -9.664062 2.914062 -9.640625 2.96875 -9.640625 L 4.4375 -9.640625 C 4.5625 -9.640625 4.625 -9.578125 4.625 -9.453125 L 4.625 -8.828125 C 4.625 -8.703125 4.5625 -8.640625 4.4375 -8.640625 L 2.96875 -8.640625 C 2.914062 -8.640625 2.890625 -8.613281 2.890625 -8.5625 L 2.890625 -0.1875 C 2.890625 -0.0625 2.828125 0 2.703125 0 L 1.75 0 C 1.625 0 1.5625 -0.0625 1.5625 -0.1875 L 1.5625 -8.5625 C 1.5625 -8.613281 1.535156 -8.640625 1.484375 -8.640625 L 0.71875 -8.640625 C 0.59375 -8.640625 0.53125 -8.703125 0.53125 -8.828125 L 0.53125 -9.453125 C 0.53125 -9.578125 0.59375 -9.640625 0.71875 -9.640625 L 1.484375 -9.640625 C 1.535156 -9.640625 1.5625 -9.664062 1.5625 -9.71875 L 1.5625 -10.328125 C 1.5625 -11.429688 1.765625 -12.234375 2.171875 -12.734375 C 2.578125 -13.234375 3.257812 -13.484375 4.21875 -13.484375 L 4.484375 -13.484375 C 4.609375 -13.484375 4.671875 -13.414062 4.671875 -13.28125 L 4.65625 -12.5 C 4.65625 -12.375 4.585938 -12.3125 4.453125 -12.3125 Z M 4.234375 -12.3125 "/></g></g></g><g fill="#000000" fill-opacity="1"><g transform="translate(219.675135, 84.338775)"><g><path d="M 1.234375 0 C 1.109375 0 1.046875 -0.0625 1.046875 -0.1875 L 1.046875 -13.15625 C 1.046875 -13.28125 1.109375 -13.34375 1.234375 -13.34375 L 2.21875 -13.34375 C 2.34375 -13.34375 2.40625 -13.28125 2.40625 -13.15625 L 2.40625 -0.1875 C 2.40625 -0.0625 2.34375 0 2.21875 0 Z M 1.234375 0 "/></g></g></g><g fill="#000000" fill-opacity="1"><g transform="translate(223.126317, 84.338775)"><g><path d="M 5.5625 -9.453125 C 5.5625 -9.578125 5.625 -9.640625 5.75 -9.640625 L 6.734375 -9.640625 C 6.859375 -9.640625 6.921875 -9.578125 6.921875 -9.453125 L 6.921875 -0.1875 C 6.921875 -0.0625 6.859375 0 6.734375 0 L 5.75 0 C 5.625 0 5.5625 -0.0625 5.5625 -0.1875 L 5.5625 -0.84375 C 5.5625 -0.875 5.550781 -0.890625 5.53125 -0.890625 C 5.519531 -0.890625 5.5 -0.878906 5.46875 -0.859375 C 5.070312 -0.191406 4.4375 0.140625 3.5625 0.140625 C 2.800781 0.140625 2.191406 -0.09375 1.734375 -0.5625 C 1.285156 -1.03125 1.0625 -1.734375 1.0625 -2.671875 L 1.0625 -9.453125 C 1.0625 -9.578125 1.128906 -9.640625 1.265625 -9.640625 L 2.234375 -9.640625 C 2.359375 -9.640625 2.421875 -9.578125 2.421875 -9.453125 L 2.421875 -2.96875 C 2.421875 -2.332031 2.550781 -1.851562 2.8125 -1.53125 C 3.070312 -1.207031 3.453125 -1.046875 3.953125 -1.046875 C 4.453125 -1.046875 4.84375 -1.226562 5.125 -1.59375 C 5.414062 -1.96875 5.5625 -2.472656 5.5625 -3.109375 Z M 5.5625 -9.453125 "/></g></g></g><g fill="#000000" fill-opacity="1"><g transform="translate(231.210859, 84.338775)"><g><path d="M 6.921875 -4.5 C 6.921875 -4.375 6.859375 -4.3125 6.734375 -4.3125 L 2.390625 -4.3125 C 2.335938 -4.3125 2.3125 -4.285156 2.3125 -4.234375 L 2.3125 -2.84375 C 2.3125 -2.3125 2.457031 -1.875 2.75 -1.53125 C 3.050781 -1.195312 3.441406 -1.03125 3.921875 -1.03125 C 4.328125 -1.03125 4.671875 -1.148438 4.953125 -1.390625 C 5.242188 -1.640625 5.4375 -1.960938 5.53125 -2.359375 C 5.5625 -2.472656 5.628906 -2.53125 5.734375 -2.53125 L 6.6875 -2.5 C 6.738281 -2.5 6.78125 -2.476562 6.8125 -2.4375 C 6.851562 -2.40625 6.867188 -2.351562 6.859375 -2.28125 C 6.753906 -1.53125 6.445312 -0.9375 5.9375 -0.5 C 5.425781 -0.0625 4.753906 0.15625 3.921875 0.15625 C 3.023438 0.15625 2.304688 -0.109375 1.765625 -0.640625 C 1.222656 -1.179688 0.953125 -1.890625 0.953125 -2.765625 L 0.953125 -6.875 C 0.953125 -7.738281 1.222656 -8.441406 1.765625 -8.984375 C 2.304688 -9.523438 3.023438 -9.796875 3.921875 -9.796875 C 4.835938 -9.796875 5.566406 -9.523438 6.109375 -8.984375 C 6.648438 -8.441406 6.921875 -7.738281 6.921875 -6.875 Z M 3.921875 -8.609375 C 3.441406 -8.609375 3.050781 -8.441406 2.75 -8.109375 C 2.457031 -7.773438 2.3125 -7.332031 2.3125 -6.78125 L 2.3125 -5.515625 C 2.3125 -5.460938 2.335938 -5.4375 2.390625 -5.4375 L 5.515625 -5.4375 C 5.554688 -5.4375 5.578125 -5.460938 5.578125 -5.515625 L 5.578125 -6.78125 C 5.578125 -7.332031 5.425781 -7.773438 5.125 -8.109375 C 4.820312 -8.441406 4.421875 -8.609375 3.921875 -8.609375 Z M 3.921875 -8.609375 "/></g></g></g><g fill="#000000" fill-opacity="1"><g transform="translate(238.971263, 84.338775)"><g><path d="M 4.59375 -9.78125 C 5.363281 -9.78125 5.960938 -9.507812 6.390625 -8.96875 C 6.816406 -8.4375 7.03125 -7.695312 7.03125 -6.75 L 7.03125 -0.1875 C 7.03125 -0.0625 6.96875 0 6.84375 0 L 5.875 0 C 5.75 0 5.6875 -0.0625 5.6875 -0.1875 L 5.6875 -6.640625 C 5.6875 -7.253906 5.546875 -7.734375 5.265625 -8.078125 C 4.992188 -8.421875 4.617188 -8.59375 4.140625 -8.59375 C 3.628906 -8.59375 3.226562 -8.40625 2.9375 -8.03125 C 2.65625 -7.664062 2.515625 -7.164062 2.515625 -6.53125 L 2.515625 -0.1875 C 2.515625 -0.0625 2.453125 0 2.328125 0 L 1.359375 0 C 1.222656 0 1.15625 -0.0625 1.15625 -0.1875 L 1.15625 -9.453125 C 1.15625 -9.578125 1.222656 -9.640625 1.359375 -9.640625 L 2.328125 -9.640625 C 2.453125 -9.640625 2.515625 -9.578125 2.515625 -9.453125 L 2.515625 -8.84375 C 2.515625 -8.820312 2.523438 -8.800781 2.546875 -8.78125 C 2.578125 -8.769531 2.597656 -8.785156 2.609375 -8.828125 C 2.835938 -9.140625 3.125 -9.375 3.46875 -9.53125 C 3.820312 -9.695312 4.195312 -9.78125 4.59375 -9.78125 Z M 4.59375 -9.78125 "/></g></g></g><g fill="#000000" fill-opacity="1"><g transform="translate(247.055806, 84.338775)"><g><path d="M 3.921875 0.15625 C 3.023438 0.15625 2.304688 -0.109375 1.765625 -0.640625 C 1.222656 -1.179688 0.953125 -1.890625 0.953125 -2.765625 L 0.953125 -6.875 C 0.953125 -7.738281 1.222656 -8.441406 1.765625 -8.984375 C 2.316406 -9.523438 3.035156 -9.796875 3.921875 -9.796875 C 4.523438 -9.796875 5.054688 -9.675781 5.515625 -9.4375 C 5.972656 -9.195312 6.320312 -8.875 6.5625 -8.46875 C 6.8125 -8.070312 6.9375 -7.632812 6.9375 -7.15625 L 6.9375 -6.953125 C 6.9375 -6.828125 6.875 -6.765625 6.75 -6.765625 L 5.78125 -6.734375 C 5.644531 -6.734375 5.578125 -6.796875 5.578125 -6.921875 L 5.578125 -7.046875 C 5.578125 -7.472656 5.421875 -7.835938 5.109375 -8.140625 C 4.804688 -8.453125 4.410156 -8.609375 3.921875 -8.609375 C 3.441406 -8.609375 3.050781 -8.441406 2.75 -8.109375 C 2.457031 -7.773438 2.3125 -7.332031 2.3125 -6.78125 L 2.3125 -2.859375 C 2.3125 -2.316406 2.457031 -1.875 2.75 -1.53125 C 3.050781 -1.195312 3.441406 -1.03125 3.921875 -1.03125 C 4.410156 -1.03125 4.804688 -1.1875 5.109375 -1.5 C 5.421875 -1.8125 5.578125 -2.175781 5.578125 -2.59375 L 5.578125 -2.71875 C 5.578125 -2.851562 5.644531 -2.921875 5.78125 -2.921875 L 6.75 -2.890625 C 6.875 -2.890625 6.9375 -2.828125 6.9375 -2.703125 L 6.9375 -2.5 C 6.9375 -1.738281 6.660156 -1.101562 6.109375 -0.59375 C 5.554688 -0.09375 4.828125 0.15625 3.921875 0.15625 Z M 3.921875 0.15625 "/></g></g></g><g fill="#000000" fill-opacity="1"><g transform="translate(254.720874, 84.338775)"><g><path d="M 6.921875 -4.5 C 6.921875 -4.375 6.859375 -4.3125 6.734375 -4.3125 L 2.390625 -4.3125 C 2.335938 -4.3125 2.3125 -4.285156 2.3125 -4.234375 L 2.3125 -2.84375 C 2.3125 -2.3125 2.457031 -1.875 2.75 -1.53125 C 3.050781 -1.195312 3.441406 -1.03125 3.921875 -1.03125 C 4.328125 -1.03125 4.671875 -1.148438 4.953125 -1.390625 C 5.242188 -1.640625 5.4375 -1.960938 5.53125 -2.359375 C 5.5625 -2.472656 5.628906 -2.53125 5.734375 -2.53125 L 6.6875 -2.5 C 6.738281 -2.5 6.78125 -2.476562 6.8125 -2.4375 C 6.851562 -2.40625 6.867188 -2.351562 6.859375 -2.28125 C 6.753906 -1.53125 6.445312 -0.9375 5.9375 -0.5 C 5.425781 -0.0625 4.753906 0.15625 3.921875 0.15625 C 3.023438 0.15625 2.304688 -0.109375 1.765625 -0.640625 C 1.222656 -1.179688 0.953125 -1.890625 0.953125 -2.765625 L 0.953125 -6.875 C 0.953125 -7.738281 1.222656 -8.441406 1.765625 -8.984375 C 2.304688 -9.523438 3.023438 -9.796875 3.921875 -9.796875 C 4.835938 -9.796875 5.566406 -9.523438 6.109375 -8.984375 C 6.648438 -8.441406 6.921875 -7.738281 6.921875 -6.875 Z M 3.921875 -8.609375 C 3.441406 -8.609375 3.050781 -8.441406 2.75 -8.109375 C 2.457031 -7.773438 2.3125 -7.332031 2.3125 -6.78125 L 2.3125 -5.515625 C 2.3125 -5.460938 2.335938 -5.4375 2.390625 -5.4375 L 5.515625 -5.4375 C 5.554688 -5.4375 5.578125 -5.460938 5.578125 -5.515625 L 5.578125 -6.78125 C 5.578125 -7.332031 5.425781 -7.773438 5.125 -8.109375 C 4.820312 -8.441406 4.421875 -8.609375 3.921875 -8.609375 Z M 3.921875 -8.609375 "/></g></g></g><g fill="#000000" fill-opacity="1"><g transform="translate(262.481278, 84.338775)"><g><path d="M 4.421875 -9.734375 C 4.742188 -9.734375 5.019531 -9.664062 5.25 -9.53125 C 5.332031 -9.476562 5.363281 -9.394531 5.34375 -9.28125 L 5.109375 -8.296875 C 5.097656 -8.179688 5.019531 -8.140625 4.875 -8.171875 C 4.726562 -8.253906 4.539062 -8.296875 4.3125 -8.296875 C 4.207031 -8.296875 4.128906 -8.285156 4.078125 -8.265625 C 3.617188 -8.242188 3.242188 -8.003906 2.953125 -7.546875 C 2.660156 -7.097656 2.515625 -6.550781 2.515625 -5.90625 L 2.515625 -0.1875 C 2.515625 -0.0625 2.453125 0 2.328125 0 L 1.359375 0 C 1.222656 0 1.15625 -0.0625 1.15625 -0.1875 L 1.15625 -9.453125 C 1.15625 -9.578125 1.222656 -9.640625 1.359375 -9.640625 L 2.328125 -9.640625 C 2.453125 -9.640625 2.515625 -9.578125 2.515625 -9.453125 L 2.515625 -8.3125 C 2.515625 -8.269531 2.523438 -8.25 2.546875 -8.25 C 2.566406 -8.25 2.585938 -8.265625 2.609375 -8.296875 C 2.984375 -9.253906 3.585938 -9.734375 4.421875 -9.734375 Z M 4.421875 -9.734375 "/></g></g></g><g fill="#000000" fill-opacity="1"><g transform="translate(268.04894, 84.338775)"><g><path d="M 3.671875 0.09375 C 2.796875 0.09375 2.09375 -0.128906 1.5625 -0.578125 C 1.039062 -1.035156 0.78125 -1.640625 0.78125 -2.390625 L 0.78125 -2.515625 C 0.78125 -2.640625 0.84375 -2.703125 0.96875 -2.703125 L 1.890625 -2.703125 C 2.015625 -2.703125 2.078125 -2.640625 2.078125 -2.515625 L 2.078125 -2.40625 C 2.078125 -2 2.222656 -1.65625 2.515625 -1.375 C 2.816406 -1.09375 3.210938 -0.953125 3.703125 -0.953125 C 4.160156 -0.953125 4.523438 -1.09375 4.796875 -1.375 C 5.078125 -1.65625 5.21875 -2.007812 5.21875 -2.4375 C 5.21875 -2.769531 5.128906 -3.046875 4.953125 -3.265625 C 4.773438 -3.492188 4.566406 -3.671875 4.328125 -3.796875 C 4.097656 -3.921875 3.75 -4.085938 3.28125 -4.296875 C 2.78125 -4.492188 2.367188 -4.691406 2.046875 -4.890625 C 1.722656 -5.085938 1.441406 -5.363281 1.203125 -5.71875 C 0.972656 -6.082031 0.859375 -6.546875 0.859375 -7.109375 C 0.859375 -7.921875 1.109375 -8.5625 1.609375 -9.03125 C 2.109375 -9.5 2.785156 -9.734375 3.640625 -9.734375 C 4.503906 -9.734375 5.191406 -9.492188 5.703125 -9.015625 C 6.210938 -8.535156 6.46875 -7.894531 6.46875 -7.09375 L 6.46875 -7.03125 C 6.46875 -6.90625 6.398438 -6.84375 6.265625 -6.84375 L 5.390625 -6.84375 C 5.265625 -6.84375 5.203125 -6.90625 5.203125 -7.03125 L 5.203125 -7.15625 C 5.203125 -7.582031 5.054688 -7.9375 4.765625 -8.21875 C 4.484375 -8.5 4.113281 -8.640625 3.65625 -8.640625 C 3.195312 -8.640625 2.832031 -8.492188 2.5625 -8.203125 C 2.289062 -7.921875 2.15625 -7.570312 2.15625 -7.15625 C 2.15625 -6.84375 2.238281 -6.582031 2.40625 -6.375 C 2.570312 -6.164062 2.773438 -5.992188 3.015625 -5.859375 C 3.253906 -5.722656 3.585938 -5.5625 4.015625 -5.375 C 4.535156 -5.144531 4.960938 -4.925781 5.296875 -4.71875 C 5.640625 -4.519531 5.9375 -4.234375 6.1875 -3.859375 C 6.445312 -3.492188 6.578125 -3.039062 6.578125 -2.5 C 6.578125 -1.707031 6.316406 -1.078125 5.796875 -0.609375 C 5.273438 -0.140625 4.566406 0.09375 3.671875 0.09375 Z M 3.671875 0.09375 "/></g></g></g></svg>