<svg xmlns="http://www.w3.org/2000/svg" xmlns:xlink="http://www.w3.org/1999/xlink" width="500" zoomAndPan="magnify" viewBox="0 0 375 374.999991" height="500" preserveAspectRatio="xMidYMid meet" version="1.0"><defs><g/><clipPath id="c6dc243db0"><path d="M 5 0 L 95 0 L 95 95 L 5 95 Z M 5 0 " clip-rule="nonzero"/></clipPath><clipPath id="b720d9c583"><path d="M 0 5.65625 L 94.527344 -0.0117188 L 99.964844 90.703125 L 5.4375 96.371094 Z M 0 5.65625 " clip-rule="nonzero"/></clipPath><clipPath id="530c0bc188"><path d="M 0 5.65625 L 94.527344 -0.0117188 L 99.964844 90.703125 L 5.4375 96.371094 Z M 0 5.65625 " clip-rule="nonzero"/></clipPath></defs><g fill="#f1efe7" fill-opacity="1"><g transform="translate(99.764924, 53.4875)"><g><path d="M 15.328125 0 C 15.253906 -0.257812 15.175781 -0.503906 15.09375 -0.734375 C 15.019531 -0.960938 14.953125 -1.242188 14.890625 -1.578125 C 14.835938 -1.921875 14.800781 -2.359375 14.78125 -2.890625 C 14.769531 -3.421875 14.765625 -4.082031 14.765625 -4.875 L 14.765625 -11.125 C 14.765625 -12.976562 14.441406 -14.28125 13.796875 -15.03125 C 13.148438 -15.789062 12.109375 -16.171875 10.671875 -16.171875 L 8.515625 -16.171875 L 8.515625 0 L 2.265625 0 L 2.265625 -39.734375 L 11.6875 -39.734375 C 14.945312 -39.734375 17.304688 -38.972656 18.765625 -37.453125 C 20.222656 -35.941406 20.953125 -33.65625 20.953125 -30.59375 L 20.953125 -27.46875 C 20.953125 -23.382812 19.585938 -20.695312 16.859375 -19.40625 C 18.453125 -18.769531 19.539062 -17.722656 20.125 -16.265625 C 20.707031 -14.804688 21 -13.035156 21 -10.953125 L 21 -4.828125 C 21 -3.835938 21.035156 -2.972656 21.109375 -2.234375 C 21.191406 -1.503906 21.382812 -0.757812 21.6875 0 Z M 8.515625 -34.0625 L 8.515625 -21.859375 L 10.953125 -21.859375 C 12.128906 -21.859375 13.046875 -22.160156 13.703125 -22.765625 C 14.367188 -23.367188 14.703125 -24.46875 14.703125 -26.0625 L 14.703125 -29.96875 C 14.703125 -31.40625 14.445312 -32.445312 13.9375 -33.09375 C 13.425781 -33.738281 12.617188 -34.0625 11.515625 -34.0625 Z M 8.515625 -34.0625 "/></g></g></g><g fill="#f1efe7" fill-opacity="1"><g transform="translate(122.581634, 53.4875)"><g><path d="M 22.484375 0 L 16.171875 0 L 15.09375 -7.203125 L 7.4375 -7.203125 L 6.359375 0 L 0.625 0 L 6.984375 -39.734375 L 16.125 -39.734375 Z M 8.234375 -12.609375 L 14.25 -12.609375 L 11.234375 -32.703125 Z M 8.234375 -12.609375 "/></g></g></g><g fill="#f1efe7" fill-opacity="1"><g transform="translate(145.682133, 53.4875)"><g><path d="M 0.5625 -39.734375 L 19.875 -39.734375 L 19.875 -34.0625 L 13.34375 -34.0625 L 13.34375 0 L 7.09375 0 L 7.09375 -34.0625 L 0.5625 -34.0625 Z M 0.5625 -39.734375 "/></g></g></g><g fill="#f1efe7" fill-opacity="1"><g transform="translate(166.11501, 53.4875)"><g><path d="M 8.515625 -22.984375 L 17.09375 -22.984375 L 17.09375 -17.3125 L 8.515625 -17.3125 L 8.515625 -5.671875 L 19.296875 -5.671875 L 19.296875 0 L 2.265625 0 L 2.265625 -39.734375 L 19.296875 -39.734375 L 19.296875 -34.0625 L 8.515625 -34.0625 Z M 8.515625 -22.984375 "/></g></g></g><g fill="#ff3131" fill-opacity="1"><g transform="translate(196.734073, 53.4875)"><g><path d="M 20.375 -14.8125 L 20.375 -9.53125 C 20.375 -6.320312 19.585938 -3.851562 18.015625 -2.125 C 16.453125 -0.40625 14.132812 0.453125 11.0625 0.453125 C 8 0.453125 5.679688 -0.40625 4.109375 -2.125 C 2.546875 -3.851562 1.765625 -6.320312 1.765625 -9.53125 L 1.765625 -30.203125 C 1.765625 -33.421875 2.546875 -35.890625 4.109375 -37.609375 C 5.679688 -39.328125 8 -40.1875 11.0625 -40.1875 C 14.132812 -40.1875 16.453125 -39.328125 18.015625 -37.609375 C 19.585938 -35.890625 20.375 -33.421875 20.375 -30.203125 L 20.375 -26.34375 L 14.46875 -26.34375 L 14.46875 -30.59375 C 14.46875 -32.03125 14.175781 -33.039062 13.59375 -33.625 C 13.007812 -34.21875 12.222656 -34.515625 11.234375 -34.515625 C 10.253906 -34.515625 9.46875 -34.21875 8.875 -33.625 C 8.289062 -33.039062 8 -32.03125 8 -30.59375 L 8 -9.140625 C 8 -7.703125 8.289062 -6.695312 8.875 -6.125 C 9.46875 -5.5625 10.253906 -5.28125 11.234375 -5.28125 C 12.222656 -5.28125 13.007812 -5.5625 13.59375 -6.125 C 14.175781 -6.695312 14.46875 -7.703125 14.46875 -9.140625 L 14.46875 -14.8125 Z M 20.375 -14.8125 "/></g></g></g><g fill="#ff3131" fill-opacity="1"><g transform="translate(218.642656, 53.4875)"><g><path d="M 15.328125 0 C 15.253906 -0.257812 15.175781 -0.503906 15.09375 -0.734375 C 15.019531 -0.960938 14.953125 -1.242188 14.890625 -1.578125 C 14.835938 -1.921875 14.800781 -2.359375 14.78125 -2.890625 C 14.769531 -3.421875 14.765625 -4.082031 14.765625 -4.875 L 14.765625 -11.125 C 14.765625 -12.976562 14.441406 -14.28125 13.796875 -15.03125 C 13.148438 -15.789062 12.109375 -16.171875 10.671875 -16.171875 L 8.515625 -16.171875 L 8.515625 0 L 2.265625 0 L 2.265625 -39.734375 L 11.6875 -39.734375 C 14.945312 -39.734375 17.304688 -38.972656 18.765625 -37.453125 C 20.222656 -35.941406 20.953125 -33.65625 20.953125 -30.59375 L 20.953125 -27.46875 C 20.953125 -23.382812 19.585938 -20.695312 16.859375 -19.40625 C 18.453125 -18.769531 19.539062 -17.722656 20.125 -16.265625 C 20.707031 -14.804688 21 -13.035156 21 -10.953125 L 21 -4.828125 C 21 -3.835938 21.035156 -2.972656 21.109375 -2.234375 C 21.191406 -1.503906 21.382812 -0.757812 21.6875 0 Z M 8.515625 -34.0625 L 8.515625 -21.859375 L 10.953125 -21.859375 C 12.128906 -21.859375 13.046875 -22.160156 13.703125 -22.765625 C 14.367188 -23.367188 14.703125 -24.46875 14.703125 -26.0625 L 14.703125 -29.96875 C 14.703125 -31.40625 14.445312 -32.445312 13.9375 -33.09375 C 13.425781 -33.738281 12.617188 -34.0625 11.515625 -34.0625 Z M 8.515625 -34.0625 "/></g></g></g><g fill="#ff3131" fill-opacity="1"><g transform="translate(241.459367, 53.4875)"><g><path d="M 8.515625 -22.984375 L 17.09375 -22.984375 L 17.09375 -17.3125 L 8.515625 -17.3125 L 8.515625 -5.671875 L 19.296875 -5.671875 L 19.296875 0 L 2.265625 0 L 2.265625 -39.734375 L 19.296875 -39.734375 L 19.296875 -34.0625 L 8.515625 -34.0625 Z M 8.515625 -22.984375 "/></g></g></g><g fill="#ff3131" fill-opacity="1"><g transform="translate(262.346299, 53.4875)"><g><path d="M 22.484375 0 L 16.171875 0 L 15.09375 -7.203125 L 7.4375 -7.203125 L 6.359375 0 L 0.625 0 L 6.984375 -39.734375 L 16.125 -39.734375 Z M 8.234375 -12.609375 L 14.25 -12.609375 L 11.234375 -32.703125 Z M 8.234375 -12.609375 "/></g></g></g><g fill="#ff3131" fill-opacity="1"><g transform="translate(285.446798, 53.4875)"><g><path d="M 0.5625 -39.734375 L 19.875 -39.734375 L 19.875 -34.0625 L 13.34375 -34.0625 L 13.34375 0 L 7.09375 0 L 7.09375 -34.0625 L 0.5625 -34.0625 Z M 0.5625 -39.734375 "/></g></g></g><g fill="#ff3131" fill-opacity="1"><g transform="translate(305.879675, 53.4875)"><g><path d="M 8 -9.140625 C 8 -7.703125 8.289062 -6.6875 8.875 -6.09375 C 9.46875 -5.507812 10.253906 -5.21875 11.234375 -5.21875 C 12.222656 -5.21875 13.007812 -5.507812 13.59375 -6.09375 C 14.175781 -6.6875 14.46875 -7.703125 14.46875 -9.140625 L 14.46875 -30.59375 C 14.46875 -32.03125 14.175781 -33.039062 13.59375 -33.625 C 13.007812 -34.21875 12.222656 -34.515625 11.234375 -34.515625 C 10.253906 -34.515625 9.46875 -34.21875 8.875 -33.625 C 8.289062 -33.039062 8 -32.03125 8 -30.59375 Z M 1.765625 -30.203125 C 1.765625 -33.421875 2.578125 -35.890625 4.203125 -37.609375 C 5.828125 -39.328125 8.171875 -40.1875 11.234375 -40.1875 C 14.304688 -40.1875 16.65625 -39.328125 18.28125 -37.609375 C 19.90625 -35.890625 20.71875 -33.421875 20.71875 -30.203125 L 20.71875 -9.53125 C 20.71875 -6.320312 19.90625 -3.851562 18.28125 -2.125 C 16.65625 -0.40625 14.304688 0.453125 11.234375 0.453125 C 8.171875 0.453125 5.828125 -0.40625 4.203125 -2.125 C 2.578125 -3.851562 1.765625 -6.320312 1.765625 -9.53125 Z M 1.765625 -30.203125 "/></g></g></g><g fill="#ff3131" fill-opacity="1"><g transform="translate(328.355835, 53.4875)"><g><path d="M 15.328125 0 C 15.253906 -0.257812 15.175781 -0.503906 15.09375 -0.734375 C 15.019531 -0.960938 14.953125 -1.242188 14.890625 -1.578125 C 14.835938 -1.921875 14.800781 -2.359375 14.78125 -2.890625 C 14.769531 -3.421875 14.765625 -4.082031 14.765625 -4.875 L 14.765625 -11.125 C 14.765625 -12.976562 14.441406 -14.28125 13.796875 -15.03125 C 13.148438 -15.789062 12.109375 -16.171875 10.671875 -16.171875 L 8.515625 -16.171875 L 8.515625 0 L 2.265625 0 L 2.265625 -39.734375 L 11.6875 -39.734375 C 14.945312 -39.734375 17.304688 -38.972656 18.765625 -37.453125 C 20.222656 -35.941406 20.953125 -33.65625 20.953125 -30.59375 L 20.953125 -27.46875 C 20.953125 -23.382812 19.585938 -20.695312 16.859375 -19.40625 C 18.453125 -18.769531 19.539062 -17.722656 20.125 -16.265625 C 20.707031 -14.804688 21 -13.035156 21 -10.953125 L 21 -4.828125 C 21 -3.835938 21.035156 -2.972656 21.109375 -2.234375 C 21.191406 -1.503906 21.382812 -0.757812 21.6875 0 Z M 8.515625 -34.0625 L 8.515625 -21.859375 L 10.953125 -21.859375 C 12.128906 -21.859375 13.046875 -22.160156 13.703125 -22.765625 C 14.367188 -23.367188 14.703125 -24.46875 14.703125 -26.0625 L 14.703125 -29.96875 C 14.703125 -31.40625 14.445312 -32.445312 13.9375 -33.09375 C 13.425781 -33.738281 12.617188 -34.0625 11.515625 -34.0625 Z M 8.515625 -34.0625 "/></g></g></g><g fill="#f1efe7" fill-opacity="1"><g transform="translate(103.126279, 71.849348)"><g><path d="M 6.84375 0 C 6.71875 0 6.640625 -0.0507812 6.609375 -0.15625 L 4.625 -6.15625 C 4.613281 -6.195312 4.585938 -6.21875 4.546875 -6.21875 L 2.859375 -6.21875 C 2.804688 -6.21875 2.78125 -6.191406 2.78125 -6.140625 L 2.78125 -0.1875 C 2.78125 -0.0625 2.710938 0 2.578125 0 L 1.59375 0 C 1.457031 0 1.390625 -0.0625 1.390625 -0.1875 L 1.390625 -13.40625 C 1.390625 -13.53125 1.457031 -13.59375 1.59375 -13.59375 L 4.796875 -13.59375 C 5.742188 -13.59375 6.507812 -13.242188 7.09375 -12.546875 C 7.675781 -11.859375 7.96875 -10.957031 7.96875 -9.84375 C 7.96875 -9 7.785156 -8.273438 7.421875 -7.671875 C 7.054688 -7.066406 6.5625 -6.640625 5.9375 -6.390625 C 5.882812 -6.378906 5.867188 -6.347656 5.890625 -6.296875 L 8 -0.21875 L 8.015625 -0.140625 C 8.015625 -0.046875 7.957031 0 7.84375 0 Z M 2.859375 -12.390625 C 2.804688 -12.390625 2.78125 -12.363281 2.78125 -12.3125 L 2.78125 -7.40625 C 2.78125 -7.351562 2.804688 -7.328125 2.859375 -7.328125 L 4.609375 -7.328125 C 5.203125 -7.328125 5.675781 -7.554688 6.03125 -8.015625 C 6.394531 -8.472656 6.578125 -9.082031 6.578125 -9.84375 C 6.578125 -10.613281 6.394531 -11.226562 6.03125 -11.6875 C 5.675781 -12.15625 5.203125 -12.390625 4.609375 -12.390625 Z M 2.859375 -12.390625 "/></g></g></g><g fill="#f1efe7" fill-opacity="1"><g transform="translate(111.726799, 71.849348)"><g><path d="M 7.046875 -4.578125 C 7.046875 -4.453125 6.984375 -4.390625 6.859375 -4.390625 L 2.421875 -4.390625 C 2.367188 -4.390625 2.34375 -4.363281 2.34375 -4.3125 L 2.34375 -2.890625 C 2.34375 -2.347656 2.492188 -1.90625 2.796875 -1.5625 C 3.109375 -1.21875 3.507812 -1.046875 4 -1.046875 C 4.414062 -1.046875 4.769531 -1.171875 5.0625 -1.421875 C 5.351562 -1.679688 5.539062 -2.007812 5.625 -2.40625 C 5.664062 -2.519531 5.738281 -2.578125 5.84375 -2.578125 L 6.8125 -2.546875 C 6.863281 -2.546875 6.910156 -2.523438 6.953125 -2.484375 C 6.992188 -2.441406 7.003906 -2.390625 6.984375 -2.328125 C 6.890625 -1.566406 6.578125 -0.960938 6.046875 -0.515625 C 5.523438 -0.0664062 4.84375 0.15625 4 0.15625 C 3.082031 0.15625 2.347656 -0.113281 1.796875 -0.65625 C 1.242188 -1.195312 0.96875 -1.914062 0.96875 -2.8125 L 0.96875 -7.015625 C 0.96875 -7.890625 1.242188 -8.601562 1.796875 -9.15625 C 2.347656 -9.707031 3.082031 -9.984375 4 -9.984375 C 4.9375 -9.984375 5.675781 -9.707031 6.21875 -9.15625 C 6.769531 -8.601562 7.046875 -7.890625 7.046875 -7.015625 Z M 4 -8.78125 C 3.507812 -8.78125 3.109375 -8.609375 2.796875 -8.265625 C 2.492188 -7.921875 2.34375 -7.472656 2.34375 -6.921875 L 2.34375 -5.609375 C 2.34375 -5.554688 2.367188 -5.53125 2.421875 -5.53125 L 5.609375 -5.53125 C 5.660156 -5.53125 5.6875 -5.554688 5.6875 -5.609375 L 5.6875 -6.921875 C 5.6875 -7.472656 5.53125 -7.921875 5.21875 -8.265625 C 4.914062 -8.609375 4.507812 -8.78125 4 -8.78125 Z M 4 -8.78125 "/></g></g></g><g fill="#f1efe7" fill-opacity="1"><g transform="translate(119.628402, 71.849348)"><g><path d="M 3.109375 0 C 2.992188 0 2.921875 -0.0546875 2.890625 -0.171875 L 0.484375 -9.609375 L 0.46875 -9.6875 C 0.46875 -9.78125 0.523438 -9.828125 0.640625 -9.828125 L 1.765625 -9.828125 C 1.878906 -9.828125 1.953125 -9.769531 1.984375 -9.65625 L 3.65625 -2.296875 C 3.664062 -2.253906 3.675781 -2.234375 3.6875 -2.234375 C 3.695312 -2.234375 3.710938 -2.253906 3.734375 -2.296875 L 5.375 -9.65625 C 5.40625 -9.769531 5.476562 -9.828125 5.59375 -9.828125 L 6.71875 -9.8125 C 6.78125 -9.8125 6.828125 -9.789062 6.859375 -9.75 C 6.898438 -9.707031 6.90625 -9.65625 6.875 -9.59375 L 4.484375 -0.171875 C 4.472656 -0.0546875 4.398438 0 4.265625 0 Z M 3.109375 0 "/></g></g></g><g fill="#f1efe7" fill-opacity="1"><g transform="translate(126.98641, 71.849348)"><g><path d="M 2.015625 -11.609375 C 1.691406 -11.609375 1.429688 -11.710938 1.234375 -11.921875 C 1.035156 -12.128906 0.9375 -12.390625 0.9375 -12.703125 C 0.9375 -13.023438 1.035156 -13.285156 1.234375 -13.484375 C 1.429688 -13.691406 1.691406 -13.796875 2.015625 -13.796875 C 2.328125 -13.796875 2.582031 -13.691406 2.78125 -13.484375 C 2.988281 -13.285156 3.09375 -13.023438 3.09375 -12.703125 C 3.09375 -12.390625 2.988281 -12.128906 2.78125 -11.921875 C 2.582031 -11.710938 2.328125 -11.609375 2.015625 -11.609375 Z M 1.53125 0 C 1.40625 0 1.34375 -0.0625 1.34375 -0.1875 L 1.34375 -9.640625 C 1.34375 -9.765625 1.40625 -9.828125 1.53125 -9.828125 L 2.53125 -9.828125 C 2.65625 -9.828125 2.71875 -9.765625 2.71875 -9.640625 L 2.71875 -0.1875 C 2.71875 -0.0625 2.65625 0 2.53125 0 Z M 1.53125 0 "/></g></g></g><g fill="#f1efe7" fill-opacity="1"><g transform="translate(131.024579, 71.849348)"><g><path d="M 7.046875 -4.578125 C 7.046875 -4.453125 6.984375 -4.390625 6.859375 -4.390625 L 2.421875 -4.390625 C 2.367188 -4.390625 2.34375 -4.363281 2.34375 -4.3125 L 2.34375 -2.890625 C 2.34375 -2.347656 2.492188 -1.90625 2.796875 -1.5625 C 3.109375 -1.21875 3.507812 -1.046875 4 -1.046875 C 4.414062 -1.046875 4.769531 -1.171875 5.0625 -1.421875 C 5.351562 -1.679688 5.539062 -2.007812 5.625 -2.40625 C 5.664062 -2.519531 5.738281 -2.578125 5.84375 -2.578125 L 6.8125 -2.546875 C 6.863281 -2.546875 6.910156 -2.523438 6.953125 -2.484375 C 6.992188 -2.441406 7.003906 -2.390625 6.984375 -2.328125 C 6.890625 -1.566406 6.578125 -0.960938 6.046875 -0.515625 C 5.523438 -0.0664062 4.84375 0.15625 4 0.15625 C 3.082031 0.15625 2.347656 -0.113281 1.796875 -0.65625 C 1.242188 -1.195312 0.96875 -1.914062 0.96875 -2.8125 L 0.96875 -7.015625 C 0.96875 -7.890625 1.242188 -8.601562 1.796875 -9.15625 C 2.347656 -9.707031 3.082031 -9.984375 4 -9.984375 C 4.9375 -9.984375 5.675781 -9.707031 6.21875 -9.15625 C 6.769531 -8.601562 7.046875 -7.890625 7.046875 -7.015625 Z M 4 -8.78125 C 3.507812 -8.78125 3.109375 -8.609375 2.796875 -8.265625 C 2.492188 -7.921875 2.34375 -7.472656 2.34375 -6.921875 L 2.34375 -5.609375 C 2.34375 -5.554688 2.367188 -5.53125 2.421875 -5.53125 L 5.609375 -5.53125 C 5.660156 -5.53125 5.6875 -5.554688 5.6875 -5.609375 L 5.6875 -6.921875 C 5.6875 -7.472656 5.53125 -7.921875 5.21875 -8.265625 C 4.914062 -8.609375 4.507812 -8.78125 4 -8.78125 Z M 4 -8.78125 "/></g></g></g><g fill="#f1efe7" fill-opacity="1"><g transform="translate(138.926181, 71.849348)"><g><path d="M 2.734375 0 C 2.617188 0 2.550781 -0.0546875 2.53125 -0.171875 L 0.46875 -9.609375 L 0.46875 -9.65625 C 0.46875 -9.769531 0.523438 -9.828125 0.640625 -9.828125 L 1.59375 -9.828125 C 1.71875 -9.828125 1.789062 -9.769531 1.8125 -9.65625 L 3.203125 -2.234375 C 3.210938 -2.203125 3.222656 -2.1875 3.234375 -2.1875 C 3.253906 -2.1875 3.269531 -2.203125 3.28125 -2.234375 L 4.71875 -9.65625 C 4.75 -9.769531 4.820312 -9.828125 4.9375 -9.828125 L 5.8125 -9.828125 C 5.9375 -9.828125 6.003906 -9.769531 6.015625 -9.65625 L 7.453125 -2.234375 C 7.472656 -2.203125 7.488281 -2.1875 7.5 -2.1875 C 7.507812 -2.1875 7.519531 -2.203125 7.53125 -2.234375 L 8.96875 -9.65625 C 9 -9.769531 9.070312 -9.828125 9.1875 -9.828125 L 10.125 -9.8125 C 10.257812 -9.8125 10.316406 -9.738281 10.296875 -9.59375 L 8.234375 -0.171875 C 8.222656 -0.0546875 8.148438 0 8.015625 0 L 7.03125 0 C 6.914062 0 6.84375 -0.0546875 6.8125 -0.171875 L 5.375 -7.28125 C 5.363281 -7.320312 5.351562 -7.34375 5.34375 -7.34375 C 5.332031 -7.34375 5.316406 -7.320312 5.296875 -7.28125 L 3.921875 -0.171875 C 3.910156 -0.0546875 3.835938 0 3.703125 0 Z M 2.734375 0 "/></g></g></g><g fill="#f1efe7" fill-opacity="1"><g transform="translate(149.681682, 71.849348)"><g><path d="M 2.015625 -11.609375 C 1.691406 -11.609375 1.429688 -11.710938 1.234375 -11.921875 C 1.035156 -12.128906 0.9375 -12.390625 0.9375 -12.703125 C 0.9375 -13.023438 1.035156 -13.285156 1.234375 -13.484375 C 1.429688 -13.691406 1.691406 -13.796875 2.015625 -13.796875 C 2.328125 -13.796875 2.582031 -13.691406 2.78125 -13.484375 C 2.988281 -13.285156 3.09375 -13.023438 3.09375 -12.703125 C 3.09375 -12.390625 2.988281 -12.128906 2.78125 -11.921875 C 2.582031 -11.710938 2.328125 -11.609375 2.015625 -11.609375 Z M 1.53125 0 C 1.40625 0 1.34375 -0.0625 1.34375 -0.1875 L 1.34375 -9.640625 C 1.34375 -9.765625 1.40625 -9.828125 1.53125 -9.828125 L 2.53125 -9.828125 C 2.65625 -9.828125 2.71875 -9.765625 2.71875 -9.640625 L 2.71875 -0.1875 C 2.71875 -0.0625 2.65625 0 2.53125 0 Z M 1.53125 0 "/></g></g></g><g fill="#f1efe7" fill-opacity="1"><g transform="translate(153.719851, 71.849348)"><g><path d="M 4.6875 -9.96875 C 5.46875 -9.96875 6.078125 -9.691406 6.515625 -9.140625 C 6.953125 -8.597656 7.171875 -7.84375 7.171875 -6.875 L 7.171875 -0.1875 C 7.171875 -0.0625 7.101562 0 6.96875 0 L 5.984375 0 C 5.847656 0 5.78125 -0.0625 5.78125 -0.1875 L 5.78125 -6.765625 C 5.78125 -7.390625 5.640625 -7.878906 5.359375 -8.234375 C 5.085938 -8.585938 4.707031 -8.765625 4.21875 -8.765625 C 3.695312 -8.765625 3.289062 -8.570312 3 -8.1875 C 2.707031 -7.8125 2.5625 -7.300781 2.5625 -6.65625 L 2.5625 -0.1875 C 2.5625 -0.0625 2.5 0 2.375 0 L 1.375 0 C 1.25 0 1.1875 -0.0625 1.1875 -0.1875 L 1.1875 -9.640625 C 1.1875 -9.765625 1.25 -9.828125 1.375 -9.828125 L 2.375 -9.828125 C 2.5 -9.828125 2.5625 -9.765625 2.5625 -9.640625 L 2.5625 -9.015625 C 2.5625 -8.984375 2.570312 -8.960938 2.59375 -8.953125 C 2.625 -8.941406 2.644531 -8.957031 2.65625 -9 C 2.894531 -9.320312 3.191406 -9.5625 3.546875 -9.71875 C 3.898438 -9.882812 4.28125 -9.96875 4.6875 -9.96875 Z M 4.6875 -9.96875 "/></g></g></g><g fill="#f1efe7" fill-opacity="1"><g transform="translate(161.951499, 71.849348)"><g><path d="M 5.65625 -9.640625 C 5.65625 -9.765625 5.71875 -9.828125 5.84375 -9.828125 L 6.84375 -9.828125 C 6.96875 -9.828125 7.03125 -9.765625 7.03125 -9.640625 L 7.03125 -0.1875 C 7.03125 1.195312 6.707031 2.25 6.0625 2.96875 C 5.425781 3.6875 4.359375 4.007812 2.859375 3.9375 C 2.722656 3.925781 2.65625 3.859375 2.65625 3.734375 L 2.65625 2.890625 C 2.65625 2.765625 2.722656 2.703125 2.859375 2.703125 C 3.890625 2.722656 4.613281 2.484375 5.03125 1.984375 C 5.445312 1.492188 5.65625 0.726562 5.65625 -0.3125 L 5.65625 -0.890625 C 5.65625 -0.921875 5.644531 -0.941406 5.625 -0.953125 C 5.601562 -0.960938 5.578125 -0.957031 5.546875 -0.9375 C 5.328125 -0.613281 5.046875 -0.363281 4.703125 -0.1875 C 4.359375 -0.0195312 3.992188 0.0625 3.609375 0.0625 C 2.796875 0.0625 2.148438 -0.207031 1.671875 -0.75 C 1.203125 -1.300781 0.96875 -2.019531 0.96875 -2.90625 L 0.96875 -7.015625 C 0.96875 -7.921875 1.203125 -8.640625 1.671875 -9.171875 C 2.148438 -9.710938 2.796875 -9.984375 3.609375 -9.984375 C 3.992188 -9.984375 4.359375 -9.898438 4.703125 -9.734375 C 5.046875 -9.578125 5.328125 -9.335938 5.546875 -9.015625 C 5.578125 -8.972656 5.601562 -8.953125 5.625 -8.953125 C 5.644531 -8.960938 5.65625 -8.988281 5.65625 -9.03125 Z M 4.015625 -1.140625 C 4.492188 -1.140625 4.882812 -1.3125 5.1875 -1.65625 C 5.5 -2 5.65625 -2.441406 5.65625 -2.984375 L 5.65625 -6.921875 C 5.65625 -7.472656 5.5 -7.921875 5.1875 -8.265625 C 4.882812 -8.609375 4.492188 -8.78125 4.015625 -8.78125 C 3.523438 -8.78125 3.125 -8.609375 2.8125 -8.265625 C 2.5 -7.921875 2.34375 -7.472656 2.34375 -6.921875 L 2.34375 -2.984375 C 2.34375 -2.441406 2.5 -2 2.8125 -1.65625 C 3.125 -1.3125 3.523438 -1.140625 4.015625 -1.140625 Z M 4.015625 -1.140625 "/></g></g></g><g fill="#f1efe7" fill-opacity="1"><g transform="translate(169.969584, 71.849348)"><g/></g></g><g fill="#f1efe7" fill-opacity="1"><g transform="translate(173.852431, 71.849348)"><g><path d="M 4.640625 -9 C 4.640625 -8.863281 4.578125 -8.796875 4.453125 -8.796875 L 2.96875 -8.796875 C 2.914062 -8.796875 2.890625 -8.769531 2.890625 -8.71875 L 2.890625 -2.78125 C 2.890625 -2.1875 2.992188 -1.773438 3.203125 -1.546875 C 3.410156 -1.316406 3.726562 -1.207031 4.15625 -1.21875 L 4.34375 -1.21875 C 4.476562 -1.21875 4.546875 -1.15625 4.546875 -1.03125 L 4.546875 -0.1875 C 4.546875 -0.0625 4.476562 0 4.34375 0 L 3.859375 0 C 3.097656 0 2.519531 -0.160156 2.125 -0.484375 C 1.726562 -0.816406 1.53125 -1.445312 1.53125 -2.375 L 1.53125 -8.71875 C 1.53125 -8.769531 1.503906 -8.796875 1.453125 -8.796875 L 0.703125 -8.796875 C 0.566406 -8.796875 0.5 -8.863281 0.5 -9 L 0.5 -9.640625 C 0.5 -9.765625 0.566406 -9.828125 0.703125 -9.828125 L 1.453125 -9.828125 C 1.503906 -9.828125 1.53125 -9.851562 1.53125 -9.90625 L 1.53125 -12.078125 C 1.53125 -12.210938 1.597656 -12.28125 1.734375 -12.28125 L 2.703125 -12.28125 C 2.828125 -12.28125 2.890625 -12.210938 2.890625 -12.078125 L 2.890625 -9.90625 C 2.890625 -9.851562 2.914062 -9.828125 2.96875 -9.828125 L 4.453125 -9.828125 C 4.578125 -9.828125 4.640625 -9.765625 4.640625 -9.640625 Z M 4.640625 -9 "/></g></g></g><g fill="#f1efe7" fill-opacity="1"><g transform="translate(179.036045, 71.849348)"><g><path d="M 4.6875 -9.96875 C 5.46875 -9.96875 6.078125 -9.691406 6.515625 -9.140625 C 6.953125 -8.597656 7.171875 -7.84375 7.171875 -6.875 L 7.171875 -0.1875 C 7.171875 -0.0625 7.101562 0 6.96875 0 L 5.984375 0 C 5.847656 0 5.78125 -0.0625 5.78125 -0.1875 L 5.78125 -6.765625 C 5.78125 -7.390625 5.640625 -7.878906 5.359375 -8.234375 C 5.085938 -8.585938 4.707031 -8.765625 4.21875 -8.765625 C 3.695312 -8.765625 3.289062 -8.570312 3 -8.1875 C 2.707031 -7.8125 2.5625 -7.300781 2.5625 -6.65625 L 2.5625 -0.1875 C 2.5625 -0.0625 2.5 0 2.375 0 L 1.375 0 C 1.25 0 1.1875 -0.0625 1.1875 -0.1875 L 1.1875 -13.40625 C 1.1875 -13.53125 1.25 -13.59375 1.375 -13.59375 L 2.375 -13.59375 C 2.5 -13.59375 2.5625 -13.53125 2.5625 -13.40625 L 2.5625 -9.015625 C 2.5625 -8.984375 2.570312 -8.960938 2.59375 -8.953125 C 2.625 -8.941406 2.644531 -8.957031 2.65625 -9 C 2.894531 -9.320312 3.191406 -9.5625 3.546875 -9.71875 C 3.898438 -9.882812 4.28125 -9.96875 4.6875 -9.96875 Z M 4.6875 -9.96875 "/></g></g></g><g fill="#f1efe7" fill-opacity="1"><g transform="translate(187.267692, 71.849348)"><g><path d="M 7.046875 -4.578125 C 7.046875 -4.453125 6.984375 -4.390625 6.859375 -4.390625 L 2.421875 -4.390625 C 2.367188 -4.390625 2.34375 -4.363281 2.34375 -4.3125 L 2.34375 -2.890625 C 2.34375 -2.347656 2.492188 -1.90625 2.796875 -1.5625 C 3.109375 -1.21875 3.507812 -1.046875 4 -1.046875 C 4.414062 -1.046875 4.769531 -1.171875 5.0625 -1.421875 C 5.351562 -1.679688 5.539062 -2.007812 5.625 -2.40625 C 5.664062 -2.519531 5.738281 -2.578125 5.84375 -2.578125 L 6.8125 -2.546875 C 6.863281 -2.546875 6.910156 -2.523438 6.953125 -2.484375 C 6.992188 -2.441406 7.003906 -2.390625 6.984375 -2.328125 C 6.890625 -1.566406 6.578125 -0.960938 6.046875 -0.515625 C 5.523438 -0.0664062 4.84375 0.15625 4 0.15625 C 3.082031 0.15625 2.347656 -0.113281 1.796875 -0.65625 C 1.242188 -1.195312 0.96875 -1.914062 0.96875 -2.8125 L 0.96875 -7.015625 C 0.96875 -7.890625 1.242188 -8.601562 1.796875 -9.15625 C 2.347656 -9.707031 3.082031 -9.984375 4 -9.984375 C 4.9375 -9.984375 5.675781 -9.707031 6.21875 -9.15625 C 6.769531 -8.601562 7.046875 -7.890625 7.046875 -7.015625 Z M 4 -8.78125 C 3.507812 -8.78125 3.109375 -8.609375 2.796875 -8.265625 C 2.492188 -7.921875 2.34375 -7.472656 2.34375 -6.921875 L 2.34375 -5.609375 C 2.34375 -5.554688 2.367188 -5.53125 2.421875 -5.53125 L 5.609375 -5.53125 C 5.660156 -5.53125 5.6875 -5.554688 5.6875 -5.609375 L 5.6875 -6.921875 C 5.6875 -7.472656 5.53125 -7.921875 5.21875 -8.265625 C 4.914062 -8.609375 4.507812 -8.78125 4 -8.78125 Z M 4 -8.78125 "/></g></g></g><g fill="#f1efe7" fill-opacity="1"><g transform="translate(195.169295, 71.849348)"><g/></g></g><g fill="#f1efe7" fill-opacity="1"><g transform="translate(199.052143, 71.849348)"><g><path d="M 1.59375 0 C 1.457031 0 1.390625 -0.0625 1.390625 -0.1875 L 1.390625 -13.40625 C 1.390625 -13.53125 1.457031 -13.59375 1.59375 -13.59375 L 2.578125 -13.59375 C 2.710938 -13.59375 2.78125 -13.53125 2.78125 -13.40625 L 2.78125 -0.1875 C 2.78125 -0.0625 2.710938 0 2.578125 0 Z M 1.59375 0 "/></g></g></g><g fill="#f1efe7" fill-opacity="1"><g transform="translate(203.226208, 71.849348)"><g><path d="M 4.6875 -9.96875 C 5.46875 -9.96875 6.078125 -9.691406 6.515625 -9.140625 C 6.953125 -8.597656 7.171875 -7.84375 7.171875 -6.875 L 7.171875 -0.1875 C 7.171875 -0.0625 7.101562 0 6.96875 0 L 5.984375 0 C 5.847656 0 5.78125 -0.0625 5.78125 -0.1875 L 5.78125 -6.765625 C 5.78125 -7.390625 5.640625 -7.878906 5.359375 -8.234375 C 5.085938 -8.585938 4.707031 -8.765625 4.21875 -8.765625 C 3.695312 -8.765625 3.289062 -8.570312 3 -8.1875 C 2.707031 -7.8125 2.5625 -7.300781 2.5625 -6.65625 L 2.5625 -0.1875 C 2.5625 -0.0625 2.5 0 2.375 0 L 1.375 0 C 1.25 0 1.1875 -0.0625 1.1875 -0.1875 L 1.1875 -9.640625 C 1.1875 -9.765625 1.25 -9.828125 1.375 -9.828125 L 2.375 -9.828125 C 2.5 -9.828125 2.5625 -9.765625 2.5625 -9.640625 L 2.5625 -9.015625 C 2.5625 -8.984375 2.570312 -8.960938 2.59375 -8.953125 C 2.625 -8.941406 2.644531 -8.957031 2.65625 -9 C 2.894531 -9.320312 3.191406 -9.5625 3.546875 -9.71875 C 3.898438 -9.882812 4.28125 -9.96875 4.6875 -9.96875 Z M 4.6875 -9.96875 "/></g></g></g><g fill="#f1efe7" fill-opacity="1"><g transform="translate(211.457856, 71.849348)"><g><path d="M 4.3125 -12.546875 C 3.820312 -12.546875 3.472656 -12.378906 3.265625 -12.046875 C 3.054688 -11.722656 2.953125 -11.207031 2.953125 -10.5 L 2.953125 -9.90625 C 2.953125 -9.851562 2.976562 -9.828125 3.03125 -9.828125 L 4.53125 -9.828125 C 4.65625 -9.828125 4.71875 -9.765625 4.71875 -9.640625 L 4.71875 -9 C 4.71875 -8.863281 4.65625 -8.796875 4.53125 -8.796875 L 3.03125 -8.796875 C 2.976562 -8.796875 2.953125 -8.769531 2.953125 -8.71875 L 2.953125 -0.1875 C 2.953125 -0.0625 2.890625 0 2.765625 0 L 1.78125 0 C 1.65625 0 1.59375 -0.0625 1.59375 -0.1875 L 1.59375 -8.71875 C 1.59375 -8.769531 1.566406 -8.796875 1.515625 -8.796875 L 0.734375 -8.796875 C 0.609375 -8.796875 0.546875 -8.863281 0.546875 -9 L 0.546875 -9.640625 C 0.546875 -9.765625 0.609375 -9.828125 0.734375 -9.828125 L 1.515625 -9.828125 C 1.566406 -9.828125 1.59375 -9.851562 1.59375 -9.90625 L 1.59375 -10.53125 C 1.59375 -11.65625 1.796875 -12.46875 2.203125 -12.96875 C 2.617188 -13.476562 3.316406 -13.734375 4.296875 -13.734375 L 4.5625 -13.734375 C 4.695312 -13.734375 4.765625 -13.664062 4.765625 -13.53125 L 4.734375 -12.734375 C 4.734375 -12.609375 4.671875 -12.546875 4.546875 -12.546875 Z M 4.3125 -12.546875 "/></g></g></g><g fill="#f1efe7" fill-opacity="1"><g transform="translate(216.835606, 71.849348)"><g><path d="M 1.265625 0 C 1.128906 0 1.0625 -0.0625 1.0625 -0.1875 L 1.0625 -13.40625 C 1.0625 -13.53125 1.128906 -13.59375 1.265625 -13.59375 L 2.25 -13.59375 C 2.382812 -13.59375 2.453125 -13.53125 2.453125 -13.40625 L 2.453125 -0.1875 C 2.453125 -0.0625 2.382812 0 2.25 0 Z M 1.265625 0 "/></g></g></g><g fill="#f1efe7" fill-opacity="1"><g transform="translate(220.349581, 71.849348)"><g><path d="M 5.671875 -9.640625 C 5.671875 -9.765625 5.734375 -9.828125 5.859375 -9.828125 L 6.859375 -9.828125 C 6.984375 -9.828125 7.046875 -9.765625 7.046875 -9.640625 L 7.046875 -0.1875 C 7.046875 -0.0625 6.984375 0 6.859375 0 L 5.859375 0 C 5.734375 0 5.671875 -0.0625 5.671875 -0.1875 L 5.671875 -0.859375 C 5.671875 -0.890625 5.660156 -0.90625 5.640625 -0.90625 C 5.617188 -0.90625 5.597656 -0.894531 5.578125 -0.875 C 5.171875 -0.195312 4.519531 0.140625 3.625 0.140625 C 2.851562 0.140625 2.238281 -0.09375 1.78125 -0.5625 C 1.320312 -1.039062 1.09375 -1.757812 1.09375 -2.71875 L 1.09375 -9.640625 C 1.09375 -9.765625 1.15625 -9.828125 1.28125 -9.828125 L 2.265625 -9.828125 C 2.398438 -9.828125 2.46875 -9.765625 2.46875 -9.640625 L 2.46875 -3.03125 C 2.46875 -2.382812 2.597656 -1.894531 2.859375 -1.5625 C 3.128906 -1.226562 3.515625 -1.0625 4.015625 -1.0625 C 4.535156 -1.0625 4.941406 -1.25 5.234375 -1.625 C 5.523438 -2 5.671875 -2.515625 5.671875 -3.171875 Z M 5.671875 -9.640625 "/></g></g></g><g fill="#f1efe7" fill-opacity="1"><g transform="translate(228.581229, 71.849348)"><g><path d="M 7.046875 -4.578125 C 7.046875 -4.453125 6.984375 -4.390625 6.859375 -4.390625 L 2.421875 -4.390625 C 2.367188 -4.390625 2.34375 -4.363281 2.34375 -4.3125 L 2.34375 -2.890625 C 2.34375 -2.347656 2.492188 -1.90625 2.796875 -1.5625 C 3.109375 -1.21875 3.507812 -1.046875 4 -1.046875 C 4.414062 -1.046875 4.769531 -1.171875 5.0625 -1.421875 C 5.351562 -1.679688 5.539062 -2.007812 5.625 -2.40625 C 5.664062 -2.519531 5.738281 -2.578125 5.84375 -2.578125 L 6.8125 -2.546875 C 6.863281 -2.546875 6.910156 -2.523438 6.953125 -2.484375 C 6.992188 -2.441406 7.003906 -2.390625 6.984375 -2.328125 C 6.890625 -1.566406 6.578125 -0.960938 6.046875 -0.515625 C 5.523438 -0.0664062 4.84375 0.15625 4 0.15625 C 3.082031 0.15625 2.347656 -0.113281 1.796875 -0.65625 C 1.242188 -1.195312 0.96875 -1.914062 0.96875 -2.8125 L 0.96875 -7.015625 C 0.96875 -7.890625 1.242188 -8.601562 1.796875 -9.15625 C 2.347656 -9.707031 3.082031 -9.984375 4 -9.984375 C 4.9375 -9.984375 5.675781 -9.707031 6.21875 -9.15625 C 6.769531 -8.601562 7.046875 -7.890625 7.046875 -7.015625 Z M 4 -8.78125 C 3.507812 -8.78125 3.109375 -8.609375 2.796875 -8.265625 C 2.492188 -7.921875 2.34375 -7.472656 2.34375 -6.921875 L 2.34375 -5.609375 C 2.34375 -5.554688 2.367188 -5.53125 2.421875 -5.53125 L 5.609375 -5.53125 C 5.660156 -5.53125 5.6875 -5.554688 5.6875 -5.609375 L 5.6875 -6.921875 C 5.6875 -7.472656 5.53125 -7.921875 5.21875 -8.265625 C 4.914062 -8.609375 4.507812 -8.78125 4 -8.78125 Z M 4 -8.78125 "/></g></g></g><g fill="#f1efe7" fill-opacity="1"><g transform="translate(236.482832, 71.849348)"><g><path d="M 4.6875 -9.96875 C 5.46875 -9.96875 6.078125 -9.691406 6.515625 -9.140625 C 6.953125 -8.597656 7.171875 -7.84375 7.171875 -6.875 L 7.171875 -0.1875 C 7.171875 -0.0625 7.101562 0 6.96875 0 L 5.984375 0 C 5.847656 0 5.78125 -0.0625 5.78125 -0.1875 L 5.78125 -6.765625 C 5.78125 -7.390625 5.640625 -7.878906 5.359375 -8.234375 C 5.085938 -8.585938 4.707031 -8.765625 4.21875 -8.765625 C 3.695312 -8.765625 3.289062 -8.570312 3 -8.1875 C 2.707031 -7.8125 2.5625 -7.300781 2.5625 -6.65625 L 2.5625 -0.1875 C 2.5625 -0.0625 2.5 0 2.375 0 L 1.375 0 C 1.25 0 1.1875 -0.0625 1.1875 -0.1875 L 1.1875 -9.640625 C 1.1875 -9.765625 1.25 -9.828125 1.375 -9.828125 L 2.375 -9.828125 C 2.5 -9.828125 2.5625 -9.765625 2.5625 -9.640625 L 2.5625 -9.015625 C 2.5625 -8.984375 2.570312 -8.960938 2.59375 -8.953125 C 2.625 -8.941406 2.644531 -8.957031 2.65625 -9 C 2.894531 -9.320312 3.191406 -9.5625 3.546875 -9.71875 C 3.898438 -9.882812 4.28125 -9.96875 4.6875 -9.96875 Z M 4.6875 -9.96875 "/></g></g></g><g fill="#f1efe7" fill-opacity="1"><g transform="translate(244.71448, 71.849348)"><g><path d="M 4 0.15625 C 3.082031 0.15625 2.347656 -0.113281 1.796875 -0.65625 C 1.242188 -1.195312 0.96875 -1.914062 0.96875 -2.8125 L 0.96875 -7.015625 C 0.96875 -7.890625 1.242188 -8.601562 1.796875 -9.15625 C 2.359375 -9.707031 3.09375 -9.984375 4 -9.984375 C 4.601562 -9.984375 5.140625 -9.859375 5.609375 -9.609375 C 6.078125 -9.367188 6.4375 -9.039062 6.6875 -8.625 C 6.9375 -8.21875 7.0625 -7.769531 7.0625 -7.28125 L 7.0625 -7.09375 C 7.0625 -6.957031 7 -6.890625 6.875 -6.890625 L 5.890625 -6.859375 C 5.753906 -6.859375 5.6875 -6.921875 5.6875 -7.046875 L 5.6875 -7.1875 C 5.6875 -7.613281 5.523438 -7.984375 5.203125 -8.296875 C 4.890625 -8.617188 4.488281 -8.78125 4 -8.78125 C 3.507812 -8.78125 3.109375 -8.609375 2.796875 -8.265625 C 2.492188 -7.921875 2.34375 -7.472656 2.34375 -6.921875 L 2.34375 -2.90625 C 2.34375 -2.351562 2.492188 -1.90625 2.796875 -1.5625 C 3.109375 -1.21875 3.507812 -1.046875 4 -1.046875 C 4.488281 -1.046875 4.890625 -1.203125 5.203125 -1.515625 C 5.523438 -1.835938 5.6875 -2.210938 5.6875 -2.640625 L 5.6875 -2.78125 C 5.6875 -2.90625 5.753906 -2.96875 5.890625 -2.96875 L 6.875 -2.953125 C 7 -2.953125 7.0625 -2.890625 7.0625 -2.765625 L 7.0625 -2.546875 C 7.0625 -1.765625 6.78125 -1.117188 6.21875 -0.609375 C 5.65625 -0.0976562 4.914062 0.15625 4 0.15625 Z M 4 0.15625 "/></g></g></g><g fill="#f1efe7" fill-opacity="1"><g transform="translate(252.519014, 71.849348)"><g><path d="M 7.046875 -4.578125 C 7.046875 -4.453125 6.984375 -4.390625 6.859375 -4.390625 L 2.421875 -4.390625 C 2.367188 -4.390625 2.34375 -4.363281 2.34375 -4.3125 L 2.34375 -2.890625 C 2.34375 -2.347656 2.492188 -1.90625 2.796875 -1.5625 C 3.109375 -1.21875 3.507812 -1.046875 4 -1.046875 C 4.414062 -1.046875 4.769531 -1.171875 5.0625 -1.421875 C 5.351562 -1.679688 5.539062 -2.007812 5.625 -2.40625 C 5.664062 -2.519531 5.738281 -2.578125 5.84375 -2.578125 L 6.8125 -2.546875 C 6.863281 -2.546875 6.910156 -2.523438 6.953125 -2.484375 C 6.992188 -2.441406 7.003906 -2.390625 6.984375 -2.328125 C 6.890625 -1.566406 6.578125 -0.960938 6.046875 -0.515625 C 5.523438 -0.0664062 4.84375 0.15625 4 0.15625 C 3.082031 0.15625 2.347656 -0.113281 1.796875 -0.65625 C 1.242188 -1.195312 0.96875 -1.914062 0.96875 -2.8125 L 0.96875 -7.015625 C 0.96875 -7.890625 1.242188 -8.601562 1.796875 -9.15625 C 2.347656 -9.707031 3.082031 -9.984375 4 -9.984375 C 4.9375 -9.984375 5.675781 -9.707031 6.21875 -9.15625 C 6.769531 -8.601562 7.046875 -7.890625 7.046875 -7.015625 Z M 4 -8.78125 C 3.507812 -8.78125 3.109375 -8.609375 2.796875 -8.265625 C 2.492188 -7.921875 2.34375 -7.472656 2.34375 -6.921875 L 2.34375 -5.609375 C 2.34375 -5.554688 2.367188 -5.53125 2.421875 -5.53125 L 5.609375 -5.53125 C 5.660156 -5.53125 5.6875 -5.554688 5.6875 -5.609375 L 5.6875 -6.921875 C 5.6875 -7.472656 5.53125 -7.921875 5.21875 -8.265625 C 4.914062 -8.609375 4.507812 -8.78125 4 -8.78125 Z M 4 -8.78125 "/></g></g></g><g fill="#f1efe7" fill-opacity="1"><g transform="translate(260.420617, 71.849348)"><g><path d="M 4.5 -9.921875 C 4.820312 -9.921875 5.101562 -9.847656 5.34375 -9.703125 C 5.4375 -9.660156 5.46875 -9.578125 5.4375 -9.453125 L 5.203125 -8.453125 C 5.191406 -8.335938 5.113281 -8.296875 4.96875 -8.328125 C 4.8125 -8.410156 4.617188 -8.453125 4.390625 -8.453125 C 4.285156 -8.453125 4.207031 -8.441406 4.15625 -8.421875 C 3.6875 -8.398438 3.300781 -8.160156 3 -7.703125 C 2.707031 -7.242188 2.5625 -6.679688 2.5625 -6.015625 L 2.5625 -0.1875 C 2.5625 -0.0625 2.5 0 2.375 0 L 1.375 0 C 1.25 0 1.1875 -0.0625 1.1875 -0.1875 L 1.1875 -9.640625 C 1.1875 -9.765625 1.25 -9.828125 1.375 -9.828125 L 2.375 -9.828125 C 2.5 -9.828125 2.5625 -9.765625 2.5625 -9.640625 L 2.5625 -8.46875 C 2.5625 -8.425781 2.570312 -8.40625 2.59375 -8.40625 C 2.613281 -8.40625 2.632812 -8.421875 2.65625 -8.453125 C 3.03125 -9.429688 3.644531 -9.921875 4.5 -9.921875 Z M 4.5 -9.921875 "/></g></g></g><g fill="#f1efe7" fill-opacity="1"><g transform="translate(266.089585, 71.849348)"><g><path d="M 3.75 0.09375 C 2.851562 0.09375 2.132812 -0.132812 1.59375 -0.59375 C 1.0625 -1.050781 0.796875 -1.660156 0.796875 -2.421875 L 0.796875 -2.5625 C 0.796875 -2.695312 0.859375 -2.765625 0.984375 -2.765625 L 1.921875 -2.765625 C 2.046875 -2.765625 2.109375 -2.695312 2.109375 -2.5625 L 2.109375 -2.453125 C 2.109375 -2.035156 2.257812 -1.679688 2.5625 -1.390625 C 2.875 -1.109375 3.273438 -0.96875 3.765625 -0.96875 C 4.234375 -0.96875 4.609375 -1.109375 4.890625 -1.390625 C 5.179688 -1.679688 5.328125 -2.046875 5.328125 -2.484375 C 5.328125 -2.816406 5.234375 -3.097656 5.046875 -3.328125 C 4.867188 -3.554688 4.660156 -3.734375 4.421875 -3.859375 C 4.179688 -3.992188 3.820312 -4.164062 3.34375 -4.375 C 2.832031 -4.582031 2.410156 -4.785156 2.078125 -4.984375 C 1.753906 -5.179688 1.472656 -5.460938 1.234375 -5.828125 C 0.992188 -6.203125 0.875 -6.675781 0.875 -7.25 C 0.875 -8.070312 1.128906 -8.722656 1.640625 -9.203125 C 2.148438 -9.679688 2.835938 -9.921875 3.703125 -9.921875 C 4.585938 -9.921875 5.285156 -9.675781 5.796875 -9.1875 C 6.316406 -8.695312 6.578125 -8.039062 6.578125 -7.21875 L 6.578125 -7.171875 C 6.578125 -7.035156 6.515625 -6.96875 6.390625 -6.96875 L 5.5 -6.96875 C 5.363281 -6.96875 5.296875 -7.035156 5.296875 -7.171875 L 5.296875 -7.28125 C 5.296875 -7.71875 5.148438 -8.078125 4.859375 -8.359375 C 4.566406 -8.648438 4.191406 -8.796875 3.734375 -8.796875 C 3.265625 -8.796875 2.890625 -8.648438 2.609375 -8.359375 C 2.328125 -8.066406 2.1875 -7.707031 2.1875 -7.28125 C 2.1875 -6.96875 2.269531 -6.703125 2.4375 -6.484375 C 2.613281 -6.273438 2.820312 -6.101562 3.0625 -5.96875 C 3.3125 -5.832031 3.65625 -5.671875 4.09375 -5.484375 C 4.625 -5.242188 5.0625 -5.019531 5.40625 -4.8125 C 5.75 -4.601562 6.050781 -4.3125 6.3125 -3.9375 C 6.570312 -3.5625 6.703125 -3.097656 6.703125 -2.546875 C 6.703125 -1.742188 6.4375 -1.101562 5.90625 -0.625 C 5.375 -0.144531 4.65625 0.09375 3.75 0.09375 Z M 3.75 0.09375 "/></g></g></g><g clip-path="url(#c6dc243db0)"><g clip-path="url(#b720d9c583)"><g clip-path="url(#530c0bc188)"><path fill="#ff3131" d="M 72.296875 71.769531 L 67.4375 67.457031 C 66.511719 66.636719 66.425781 65.222656 67.246094 64.296875 L 72.816406 58.015625 C 73.636719 57.089844 73.554688 55.675781 72.625 54.855469 C 71.699219 54.035156 70.289062 54.121094 69.464844 55.046875 L 59.511719 66.269531 C 58.488281 67.425781 56.71875 67.53125 55.5625 66.503906 C 54.40625 65.480469 54.300781 63.714844 55.328125 62.558594 L 71.964844 43.800781 C 72.785156 42.871094 72.699219 41.460938 71.773438 40.636719 C 70.847656 39.816406 69.433594 39.902344 68.613281 40.828125 L 32.980469 81.007812 C 31.953125 82.160156 30.1875 82.269531 29.03125 81.242188 C 27.875 80.21875 27.769531 78.449219 28.792969 77.292969 L 57.746094 44.652344 C 58.566406 43.726562 58.484375 42.3125 57.558594 41.492188 C 56.628906 40.667969 55.21875 40.753906 54.394531 41.679688 L 43.105469 54.410156 C 42.285156 55.335938 40.871094 55.421875 39.945312 54.597656 L 39.105469 53.855469 C 38.179688 53.035156 38.097656 51.621094 38.917969 50.695312 L 56.890625 30.429688 C 57.710938 29.503906 57.625 28.089844 56.699219 27.269531 C 55.773438 26.449219 54.359375 26.53125 53.539062 27.457031 L 11.199219 75.210938 C 10.171875 76.367188 8.40625 76.472656 7.25 75.449219 C 6.09375 74.425781 5.988281 72.65625 7.011719 71.5 L 42.675781 31.289062 C 43.496094 30.363281 43.414062 28.949219 42.488281 28.128906 C 41.5625 27.308594 40.148438 27.390625 39.324219 28.320312 L 33.761719 34.597656 C 32.941406 35.523438 31.527344 35.609375 30.601562 34.785156 L 25.738281 30.476562 C 24.496094 29.375 24.847656 27.34375 26.390625 26.722656 L 90.964844 0.808594 C 92.675781 0.121094 94.4375 1.683594 93.960938 3.464844 L 75.945312 70.671875 C 75.511719 72.277344 73.539062 72.871094 72.296875 71.769531 Z M 35.394531 58.894531 C 34.238281 57.867188 32.472656 57.972656 31.445312 59.128906 L 6.019531 87.800781 C 4.992188 88.957031 5.097656 90.722656 6.253906 91.75 C 7.410156 92.773438 9.179688 92.667969 10.203125 91.511719 L 35.632812 62.839844 C 36.65625 61.683594 36.550781 59.917969 35.394531 58.894531 Z M 51.949219 70.582031 C 50.792969 69.558594 49.027344 69.664062 48 70.820312 L 31.472656 89.457031 C 30.445312 90.609375 30.550781 92.378906 31.707031 93.402344 C 32.863281 94.429688 34.632812 94.324219 35.65625 93.167969 L 52.183594 74.53125 C 53.210938 73.375 53.105469 71.605469 51.949219 70.582031 Z M 27.414062 82.960938 C 26.289062 81.960938 24.566406 82.0625 23.566406 83.191406 C 22.566406 84.316406 22.671875 86.039062 23.796875 87.039062 C 24.921875 88.039062 26.648438 87.933594 27.648438 86.808594 C 28.644531 85.683594 28.542969 83.957031 27.414062 82.960938 Z M 27.414062 82.960938 " fill-opacity="1" fill-rule="nonzero"/></g></g></g></svg>