<svg xmlns="http://www.w3.org/2000/svg" xmlns:xlink="http://www.w3.org/1999/xlink" width="500" zoomAndPan="magnify" viewBox="0 0 375 374.999991" height="500" preserveAspectRatio="xMidYMid meet" version="1.0"><defs><clipPath id="d6b618658f"><path d="M 39 29 L 335 29 L 335 341 L 39 341 Z M 39 29 " clip-rule="nonzero"/></clipPath><clipPath id="e23f3fabbd"><path d="M 21.375 46.296875 L 335.808594 27.453125 L 353.847656 328.410156 L 39.414062 347.257812 Z M 21.375 46.296875 " clip-rule="nonzero"/></clipPath><clipPath id="4eff1db728"><path d="M 21.375 46.296875 L 335.808594 27.453125 L 353.847656 328.410156 L 39.414062 347.257812 Z M 21.375 46.296875 " clip-rule="nonzero"/></clipPath></defs><g clip-path="url(#d6b618658f)"><g clip-path="url(#e23f3fabbd)"><g clip-path="url(#4eff1db728)"><path fill="#ff3131" d="M 262.160156 266.496094 L 245.972656 252.136719 C 242.886719 249.402344 242.605469 244.695312 245.34375 241.609375 L 263.890625 220.699219 C 266.625 217.613281 266.34375 212.90625 263.257812 210.171875 C 260.175781 207.433594 255.46875 207.71875 252.730469 210.800781 L 219.578125 248.179688 C 216.167969 252.03125 210.28125 252.382812 206.429688 248.96875 C 202.582031 245.554688 202.230469 239.667969 205.640625 235.820312 L 261.050781 173.34375 C 263.789062 170.261719 263.503906 165.554688 260.421875 162.816406 C 257.335938 160.082031 252.628906 160.363281 249.894531 163.449219 L 131.210938 297.265625 C 127.800781 301.113281 121.914062 301.464844 118.0625 298.050781 C 114.214844 294.636719 113.863281 288.753906 117.277344 284.902344 L 213.699219 176.183594 C 216.433594 173.097656 216.152344 168.390625 213.066406 165.65625 C 209.984375 162.921875 205.277344 163.203125 202.539062 166.289062 L 164.941406 208.683594 C 162.203125 211.769531 157.496094 212.050781 154.414062 209.3125 L 151.621094 206.835938 C 148.535156 204.101562 148.253906 199.394531 150.988281 196.308594 L 210.847656 128.820312 C 213.582031 125.734375 213.300781 121.027344 210.214844 118.292969 C 207.128906 115.554688 202.425781 115.835938 199.6875 118.921875 L 58.667969 277.96875 C 55.253906 281.820312 49.367188 282.171875 45.519531 278.757812 C 41.667969 275.34375 41.316406 269.457031 44.730469 265.609375 L 163.507812 131.683594 C 166.246094 128.597656 165.960938 123.890625 162.878906 121.15625 C 159.792969 118.417969 155.085938 118.703125 152.351562 121.785156 L 133.816406 142.699219 C 131.078125 145.78125 126.375 146.066406 123.289062 143.328125 L 107.101562 128.972656 C 102.960938 125.300781 104.132812 118.546875 109.273438 116.472656 L 324.332031 30.167969 C 330.035156 27.878906 335.902344 33.078125 334.308594 39.015625 L 274.308594 262.847656 C 272.867188 268.195312 266.300781 270.167969 262.160156 266.496094 Z M 139.257812 223.617188 C 135.410156 220.203125 129.523438 220.554688 126.109375 224.402344 L 41.417969 319.894531 C 38.003906 323.742188 38.355469 329.628906 42.207031 333.042969 C 46.054688 336.457031 51.941406 336.105469 55.355469 332.257812 L 140.046875 236.765625 C 143.460938 232.917969 143.105469 227.03125 139.257812 223.617188 Z M 194.390625 262.546875 C 190.539062 259.132812 184.65625 259.484375 181.242188 263.332031 L 126.1875 325.40625 C 122.777344 329.253906 123.128906 335.140625 126.976562 338.554688 C 130.828125 341.96875 136.714844 341.617188 140.125 337.765625 L 195.179688 275.695312 C 198.59375 271.84375 198.238281 265.960938 194.390625 262.546875 Z M 112.683594 303.769531 C 108.929688 300.441406 103.1875 300.785156 99.863281 304.539062 C 96.535156 308.289062 96.878906 314.03125 100.628906 317.359375 C 104.382812 320.6875 110.125 320.34375 113.453125 316.589844 C 116.777344 312.839844 116.433594 307.097656 112.683594 303.769531 Z M 112.683594 303.769531 " fill-opacity="1" fill-rule="nonzero"/></g></g></g></svg>