<svg xmlns="http://www.w3.org/2000/svg" xmlns:xlink="http://www.w3.org/1999/xlink" width="500" zoomAndPan="magnify" viewBox="0 0 375 374.999991" height="500" preserveAspectRatio="xMidYMid meet" version="1.0"><defs><g/><clipPath id="982d10d1f6"><path d="M 11 147 L 100 147 L 100 239 L 11 239 Z M 11 147 " clip-rule="nonzero"/></clipPath><clipPath id="105db5619c"><path d="M 6.71875 152.078125 L 99.554688 146.515625 L 104.894531 235.605469 L 12.058594 241.167969 Z M 6.71875 152.078125 " clip-rule="nonzero"/></clipPath><clipPath id="68fc2e9b7c"><path d="M 6.71875 152.078125 L 99.554688 146.515625 L 104.894531 235.605469 L 12.058594 241.167969 Z M 6.71875 152.078125 " clip-rule="nonzero"/></clipPath></defs><g fill="#f1efe7" fill-opacity="1"><g transform="translate(104.696628, 199.053905)"><g><path d="M 15.046875 0 C 14.972656 -0.257812 14.898438 -0.5 14.828125 -0.71875 C 14.753906 -0.945312 14.6875 -1.226562 14.625 -1.5625 C 14.570312 -1.894531 14.535156 -2.320312 14.515625 -2.84375 C 14.503906 -3.363281 14.5 -4.015625 14.5 -4.796875 L 14.5 -10.921875 C 14.5 -12.742188 14.179688 -14.023438 13.546875 -14.765625 C 12.910156 -15.515625 11.890625 -15.890625 10.484375 -15.890625 L 8.359375 -15.890625 L 8.359375 0 L 2.234375 0 L 2.234375 -39.03125 L 11.484375 -39.03125 C 14.679688 -39.03125 16.992188 -38.285156 18.421875 -36.796875 C 19.859375 -35.304688 20.578125 -33.054688 20.578125 -30.046875 L 20.578125 -26.984375 C 20.578125 -22.972656 19.238281 -20.332031 16.5625 -19.0625 C 18.125 -18.4375 19.191406 -17.40625 19.765625 -15.96875 C 20.335938 -14.539062 20.625 -12.804688 20.625 -10.765625 L 20.625 -4.734375 C 20.625 -3.773438 20.660156 -2.929688 20.734375 -2.203125 C 20.804688 -1.472656 20.992188 -0.738281 21.296875 0 Z M 8.359375 -33.453125 L 8.359375 -21.46875 L 10.765625 -21.46875 C 11.910156 -21.46875 12.804688 -21.765625 13.453125 -22.359375 C 14.109375 -22.953125 14.4375 -24.03125 14.4375 -25.59375 L 14.4375 -29.4375 C 14.4375 -30.84375 14.1875 -31.863281 13.6875 -32.5 C 13.1875 -33.132812 12.394531 -33.453125 11.3125 -33.453125 Z M 8.359375 -33.453125 "/></g></g></g><g fill="#f1efe7" fill-opacity="1"><g transform="translate(127.104504, 199.053905)"><g><path d="M 22.078125 0 L 15.890625 0 L 14.828125 -7.078125 L 7.296875 -7.078125 L 6.25 0 L 0.609375 0 L 6.859375 -39.03125 L 15.828125 -39.03125 Z M 8.078125 -12.375 L 14 -12.375 L 11.03125 -32.109375 Z M 8.078125 -12.375 "/></g></g></g><g fill="#f1efe7" fill-opacity="1"><g transform="translate(149.791083, 199.053905)"><g><path d="M 0.5625 -39.03125 L 19.515625 -39.03125 L 19.515625 -33.453125 L 13.09375 -33.453125 L 13.09375 0 L 6.96875 0 L 6.96875 -33.453125 L 0.5625 -33.453125 Z M 0.5625 -39.03125 "/></g></g></g><g fill="#f1efe7" fill-opacity="1"><g transform="translate(169.85784, 199.053905)"><g><path d="M 8.359375 -22.578125 L 16.78125 -22.578125 L 16.78125 -17 L 8.359375 -17 L 8.359375 -5.578125 L 18.953125 -5.578125 L 18.953125 0 L 2.234375 0 L 2.234375 -39.03125 L 18.953125 -39.03125 L 18.953125 -33.453125 L 8.359375 -33.453125 Z M 8.359375 -22.578125 "/></g></g></g><g fill="#ff3131" fill-opacity="1"><g transform="translate(199.928252, 199.053905)"><g><path d="M 20.015625 -14.546875 L 20.015625 -9.359375 C 20.015625 -6.203125 19.242188 -3.773438 17.703125 -2.078125 C 16.160156 -0.390625 13.882812 0.453125 10.875 0.453125 C 7.863281 0.453125 5.585938 -0.390625 4.046875 -2.078125 C 2.503906 -3.773438 1.734375 -6.203125 1.734375 -9.359375 L 1.734375 -29.65625 C 1.734375 -32.8125 2.503906 -35.234375 4.046875 -36.921875 C 5.585938 -38.617188 7.863281 -39.46875 10.875 -39.46875 C 13.882812 -39.46875 16.160156 -38.617188 17.703125 -36.921875 C 19.242188 -35.234375 20.015625 -32.8125 20.015625 -29.65625 L 20.015625 -25.875 L 14.21875 -25.875 L 14.21875 -30.046875 C 14.21875 -31.460938 13.925781 -32.457031 13.34375 -33.03125 C 12.769531 -33.601562 12 -33.890625 11.03125 -33.890625 C 10.070312 -33.890625 9.300781 -33.601562 8.71875 -33.03125 C 8.144531 -32.457031 7.859375 -31.460938 7.859375 -30.046875 L 7.859375 -8.96875 C 7.859375 -7.5625 8.144531 -6.578125 8.71875 -6.015625 C 9.300781 -5.460938 10.070312 -5.1875 11.03125 -5.1875 C 12 -5.1875 12.769531 -5.460938 13.34375 -6.015625 C 13.925781 -6.578125 14.21875 -7.5625 14.21875 -8.96875 L 14.21875 -14.546875 Z M 20.015625 -14.546875 "/></g></g></g><g fill="#ff3131" fill-opacity="1"><g transform="translate(221.444273, 199.053905)"><g><path d="M 15.046875 0 C 14.972656 -0.257812 14.898438 -0.5 14.828125 -0.71875 C 14.753906 -0.945312 14.6875 -1.226562 14.625 -1.5625 C 14.570312 -1.894531 14.535156 -2.320312 14.515625 -2.84375 C 14.503906 -3.363281 14.5 -4.015625 14.5 -4.796875 L 14.5 -10.921875 C 14.5 -12.742188 14.179688 -14.023438 13.546875 -14.765625 C 12.910156 -15.515625 11.890625 -15.890625 10.484375 -15.890625 L 8.359375 -15.890625 L 8.359375 0 L 2.234375 0 L 2.234375 -39.03125 L 11.484375 -39.03125 C 14.679688 -39.03125 16.992188 -38.285156 18.421875 -36.796875 C 19.859375 -35.304688 20.578125 -33.054688 20.578125 -30.046875 L 20.578125 -26.984375 C 20.578125 -22.972656 19.238281 -20.332031 16.5625 -19.0625 C 18.125 -18.4375 19.191406 -17.40625 19.765625 -15.96875 C 20.335938 -14.539062 20.625 -12.804688 20.625 -10.765625 L 20.625 -4.734375 C 20.625 -3.773438 20.660156 -2.929688 20.734375 -2.203125 C 20.804688 -1.472656 20.992188 -0.738281 21.296875 0 Z M 8.359375 -33.453125 L 8.359375 -21.46875 L 10.765625 -21.46875 C 11.910156 -21.46875 12.804688 -21.765625 13.453125 -22.359375 C 14.109375 -22.953125 14.4375 -24.03125 14.4375 -25.59375 L 14.4375 -29.4375 C 14.4375 -30.84375 14.1875 -31.863281 13.6875 -32.5 C 13.1875 -33.132812 12.394531 -33.453125 11.3125 -33.453125 Z M 8.359375 -33.453125 "/></g></g></g><g fill="#ff3131" fill-opacity="1"><g transform="translate(243.852149, 199.053905)"><g><path d="M 8.359375 -22.578125 L 16.78125 -22.578125 L 16.78125 -17 L 8.359375 -17 L 8.359375 -5.578125 L 18.953125 -5.578125 L 18.953125 0 L 2.234375 0 L 2.234375 -39.03125 L 18.953125 -39.03125 L 18.953125 -33.453125 L 8.359375 -33.453125 Z M 8.359375 -22.578125 "/></g></g></g><g fill="#ff3131" fill-opacity="1"><g transform="translate(264.364826, 199.053905)"><g><path d="M 22.078125 0 L 15.890625 0 L 14.828125 -7.078125 L 7.296875 -7.078125 L 6.25 0 L 0.609375 0 L 6.859375 -39.03125 L 15.828125 -39.03125 Z M 8.078125 -12.375 L 14 -12.375 L 11.03125 -32.109375 Z M 8.078125 -12.375 "/></g></g></g><g fill="#ff3131" fill-opacity="1"><g transform="translate(287.051405, 199.053905)"><g><path d="M 0.5625 -39.03125 L 19.515625 -39.03125 L 19.515625 -33.453125 L 13.09375 -33.453125 L 13.09375 0 L 6.96875 0 L 6.96875 -33.453125 L 0.5625 -33.453125 Z M 0.5625 -39.03125 "/></g></g></g><g fill="#ff3131" fill-opacity="1"><g transform="translate(307.118162, 199.053905)"><g><path d="M 7.859375 -8.96875 C 7.859375 -7.5625 8.144531 -6.566406 8.71875 -5.984375 C 9.300781 -5.410156 10.070312 -5.125 11.03125 -5.125 C 12 -5.125 12.769531 -5.410156 13.34375 -5.984375 C 13.925781 -6.566406 14.21875 -7.5625 14.21875 -8.96875 L 14.21875 -30.046875 C 14.21875 -31.460938 13.925781 -32.457031 13.34375 -33.03125 C 12.769531 -33.601562 12 -33.890625 11.03125 -33.890625 C 10.070312 -33.890625 9.300781 -33.601562 8.71875 -33.03125 C 8.144531 -32.457031 7.859375 -31.460938 7.859375 -30.046875 Z M 1.734375 -29.65625 C 1.734375 -32.8125 2.53125 -35.234375 4.125 -36.921875 C 5.71875 -38.617188 8.019531 -39.46875 11.03125 -39.46875 C 14.039062 -39.46875 16.34375 -38.617188 17.9375 -36.921875 C 19.539062 -35.234375 20.34375 -32.8125 20.34375 -29.65625 L 20.34375 -9.359375 C 20.34375 -6.203125 19.539062 -3.773438 17.9375 -2.078125 C 16.34375 -0.390625 14.039062 0.453125 11.03125 0.453125 C 8.019531 0.453125 5.71875 -0.390625 4.125 -2.078125 C 2.53125 -3.773438 1.734375 -6.203125 1.734375 -9.359375 Z M 1.734375 -29.65625 "/></g></g></g><g fill="#ff3131" fill-opacity="1"><g transform="translate(329.19159, 199.053905)"><g><path d="M 15.046875 0 C 14.972656 -0.257812 14.898438 -0.5 14.828125 -0.71875 C 14.753906 -0.945312 14.6875 -1.226562 14.625 -1.5625 C 14.570312 -1.894531 14.535156 -2.320312 14.515625 -2.84375 C 14.503906 -3.363281 14.5 -4.015625 14.5 -4.796875 L 14.5 -10.921875 C 14.5 -12.742188 14.179688 -14.023438 13.546875 -14.765625 C 12.910156 -15.515625 11.890625 -15.890625 10.484375 -15.890625 L 8.359375 -15.890625 L 8.359375 0 L 2.234375 0 L 2.234375 -39.03125 L 11.484375 -39.03125 C 14.679688 -39.03125 16.992188 -38.285156 18.421875 -36.796875 C 19.859375 -35.304688 20.578125 -33.054688 20.578125 -30.046875 L 20.578125 -26.984375 C 20.578125 -22.972656 19.238281 -20.332031 16.5625 -19.0625 C 18.125 -18.4375 19.191406 -17.40625 19.765625 -15.96875 C 20.335938 -14.539062 20.625 -12.804688 20.625 -10.765625 L 20.625 -4.734375 C 20.625 -3.773438 20.660156 -2.929688 20.734375 -2.203125 C 20.804688 -1.472656 20.992188 -0.738281 21.296875 0 Z M 8.359375 -33.453125 L 8.359375 -21.46875 L 10.765625 -21.46875 C 11.910156 -21.46875 12.804688 -21.765625 13.453125 -22.359375 C 14.109375 -22.953125 14.4375 -24.03125 14.4375 -25.59375 L 14.4375 -29.4375 C 14.4375 -30.84375 14.1875 -31.863281 13.6875 -32.5 C 13.1875 -33.132812 12.394531 -33.453125 11.3125 -33.453125 Z M 8.359375 -33.453125 "/></g></g></g><g fill="#f1efe7" fill-opacity="1"><g transform="translate(107.997756, 217.086783)"><g><path d="M 6.71875 0 C 6.601562 0 6.523438 -0.0507812 6.484375 -0.15625 L 4.546875 -6.046875 C 4.523438 -6.085938 4.5 -6.109375 4.46875 -6.109375 L 2.796875 -6.109375 C 2.753906 -6.109375 2.734375 -6.082031 2.734375 -6.03125 L 2.734375 -0.1875 C 2.734375 -0.0625 2.664062 0 2.53125 0 L 1.5625 0 C 1.4375 0 1.375 -0.0625 1.375 -0.1875 L 1.375 -13.15625 C 1.375 -13.289062 1.4375 -13.359375 1.5625 -13.359375 L 4.71875 -13.359375 C 5.644531 -13.359375 6.394531 -13.015625 6.96875 -12.328125 C 7.539062 -11.648438 7.828125 -10.765625 7.828125 -9.671875 C 7.828125 -8.847656 7.644531 -8.132812 7.28125 -7.53125 C 6.925781 -6.9375 6.445312 -6.519531 5.84375 -6.28125 C 5.789062 -6.257812 5.769531 -6.226562 5.78125 -6.1875 L 7.859375 -0.203125 L 7.875 -0.140625 C 7.875 -0.046875 7.816406 0 7.703125 0 Z M 2.796875 -12.171875 C 2.753906 -12.171875 2.734375 -12.144531 2.734375 -12.09375 L 2.734375 -7.265625 C 2.734375 -7.210938 2.753906 -7.1875 2.796875 -7.1875 L 4.515625 -7.1875 C 5.109375 -7.1875 5.582031 -7.410156 5.9375 -7.859375 C 6.289062 -8.316406 6.46875 -8.921875 6.46875 -9.671875 C 6.46875 -10.421875 6.289062 -11.023438 5.9375 -11.484375 C 5.582031 -11.941406 5.109375 -12.171875 4.515625 -12.171875 Z M 2.796875 -12.171875 "/></g></g></g><g fill="#f1efe7" fill-opacity="1"><g transform="translate(116.44417, 217.086783)"><g><path d="M 6.921875 -4.5 C 6.921875 -4.375 6.859375 -4.3125 6.734375 -4.3125 L 2.390625 -4.3125 C 2.335938 -4.3125 2.3125 -4.285156 2.3125 -4.234375 L 2.3125 -2.84375 C 2.3125 -2.3125 2.457031 -1.875 2.75 -1.53125 C 3.050781 -1.195312 3.445312 -1.03125 3.9375 -1.03125 C 4.34375 -1.03125 4.6875 -1.15625 4.96875 -1.40625 C 5.257812 -1.65625 5.445312 -1.972656 5.53125 -2.359375 C 5.570312 -2.472656 5.644531 -2.53125 5.75 -2.53125 L 6.703125 -2.5 C 6.742188 -2.5 6.785156 -2.476562 6.828125 -2.4375 C 6.867188 -2.40625 6.882812 -2.359375 6.875 -2.296875 C 6.769531 -1.535156 6.457031 -0.9375 5.9375 -0.5 C 5.425781 -0.0625 4.757812 0.15625 3.9375 0.15625 C 3.03125 0.15625 2.304688 -0.109375 1.765625 -0.640625 C 1.222656 -1.179688 0.953125 -1.890625 0.953125 -2.765625 L 0.953125 -6.890625 C 0.953125 -7.753906 1.222656 -8.457031 1.765625 -9 C 2.304688 -9.539062 3.03125 -9.8125 3.9375 -9.8125 C 4.84375 -9.8125 5.566406 -9.539062 6.109375 -9 C 6.648438 -8.457031 6.921875 -7.753906 6.921875 -6.890625 Z M 3.9375 -8.625 C 3.445312 -8.625 3.050781 -8.453125 2.75 -8.109375 C 2.457031 -7.773438 2.3125 -7.335938 2.3125 -6.796875 L 2.3125 -5.515625 C 2.3125 -5.460938 2.335938 -5.4375 2.390625 -5.4375 L 5.515625 -5.4375 C 5.566406 -5.4375 5.59375 -5.460938 5.59375 -5.515625 L 5.59375 -6.796875 C 5.59375 -7.335938 5.4375 -7.773438 5.125 -8.109375 C 4.820312 -8.453125 4.425781 -8.625 3.9375 -8.625 Z M 3.9375 -8.625 "/></g></g></g><g fill="#f1efe7" fill-opacity="1"><g transform="translate(124.204191, 217.086783)"><g><path d="M 3.046875 0 C 2.929688 0 2.863281 -0.0546875 2.84375 -0.171875 L 0.484375 -9.4375 L 0.453125 -9.515625 C 0.453125 -9.609375 0.507812 -9.65625 0.625 -9.65625 L 1.734375 -9.65625 C 1.847656 -9.65625 1.921875 -9.597656 1.953125 -9.484375 L 3.59375 -2.25 C 3.601562 -2.207031 3.613281 -2.1875 3.625 -2.1875 C 3.632812 -2.1875 3.644531 -2.207031 3.65625 -2.25 L 5.28125 -9.484375 C 5.3125 -9.597656 5.382812 -9.65625 5.5 -9.65625 L 6.59375 -9.640625 C 6.664062 -9.640625 6.71875 -9.617188 6.75 -9.578125 C 6.78125 -9.535156 6.78125 -9.484375 6.75 -9.421875 L 4.40625 -0.171875 C 4.394531 -0.0546875 4.328125 0 4.203125 0 Z M 3.046875 0 "/></g></g></g><g fill="#f1efe7" fill-opacity="1"><g transform="translate(131.430356, 217.086783)"><g><path d="M 1.984375 -11.40625 C 1.660156 -11.40625 1.398438 -11.503906 1.203125 -11.703125 C 1.015625 -11.910156 0.921875 -12.171875 0.921875 -12.484375 C 0.921875 -12.796875 1.015625 -13.050781 1.203125 -13.25 C 1.398438 -13.445312 1.660156 -13.546875 1.984375 -13.546875 C 2.285156 -13.546875 2.535156 -13.445312 2.734375 -13.25 C 2.929688 -13.050781 3.03125 -12.796875 3.03125 -12.484375 C 3.03125 -12.171875 2.929688 -11.910156 2.734375 -11.703125 C 2.535156 -11.503906 2.285156 -11.40625 1.984375 -11.40625 Z M 1.5 0 C 1.375 0 1.3125 -0.0625 1.3125 -0.1875 L 1.3125 -9.46875 C 1.3125 -9.59375 1.375 -9.65625 1.5 -9.65625 L 2.484375 -9.65625 C 2.609375 -9.65625 2.671875 -9.59375 2.671875 -9.46875 L 2.671875 -0.1875 C 2.671875 -0.0625 2.609375 0 2.484375 0 Z M 1.5 0 "/></g></g></g><g fill="#f1efe7" fill-opacity="1"><g transform="translate(135.396169, 217.086783)"><g><path d="M 6.921875 -4.5 C 6.921875 -4.375 6.859375 -4.3125 6.734375 -4.3125 L 2.390625 -4.3125 C 2.335938 -4.3125 2.3125 -4.285156 2.3125 -4.234375 L 2.3125 -2.84375 C 2.3125 -2.3125 2.457031 -1.875 2.75 -1.53125 C 3.050781 -1.195312 3.445312 -1.03125 3.9375 -1.03125 C 4.34375 -1.03125 4.6875 -1.15625 4.96875 -1.40625 C 5.257812 -1.65625 5.445312 -1.972656 5.53125 -2.359375 C 5.570312 -2.472656 5.644531 -2.53125 5.75 -2.53125 L 6.703125 -2.5 C 6.742188 -2.5 6.785156 -2.476562 6.828125 -2.4375 C 6.867188 -2.40625 6.882812 -2.359375 6.875 -2.296875 C 6.769531 -1.535156 6.457031 -0.9375 5.9375 -0.5 C 5.425781 -0.0625 4.757812 0.15625 3.9375 0.15625 C 3.03125 0.15625 2.304688 -0.109375 1.765625 -0.640625 C 1.222656 -1.179688 0.953125 -1.890625 0.953125 -2.765625 L 0.953125 -6.890625 C 0.953125 -7.753906 1.222656 -8.457031 1.765625 -9 C 2.304688 -9.539062 3.03125 -9.8125 3.9375 -9.8125 C 4.84375 -9.8125 5.566406 -9.539062 6.109375 -9 C 6.648438 -8.457031 6.921875 -7.753906 6.921875 -6.890625 Z M 3.9375 -8.625 C 3.445312 -8.625 3.050781 -8.453125 2.75 -8.109375 C 2.457031 -7.773438 2.3125 -7.335938 2.3125 -6.796875 L 2.3125 -5.515625 C 2.3125 -5.460938 2.335938 -5.4375 2.390625 -5.4375 L 5.515625 -5.4375 C 5.566406 -5.4375 5.59375 -5.460938 5.59375 -5.515625 L 5.59375 -6.796875 C 5.59375 -7.335938 5.4375 -7.773438 5.125 -8.109375 C 4.820312 -8.453125 4.425781 -8.625 3.9375 -8.625 Z M 3.9375 -8.625 "/></g></g></g><g fill="#f1efe7" fill-opacity="1"><g transform="translate(143.156189, 217.086783)"><g><path d="M 2.6875 0 C 2.570312 0 2.503906 -0.0546875 2.484375 -0.171875 L 0.453125 -9.4375 L 0.453125 -9.484375 C 0.453125 -9.597656 0.507812 -9.65625 0.625 -9.65625 L 1.5625 -9.65625 C 1.6875 -9.65625 1.757812 -9.597656 1.78125 -9.484375 L 3.140625 -2.1875 C 3.160156 -2.164062 3.175781 -2.15625 3.1875 -2.15625 C 3.195312 -2.15625 3.207031 -2.164062 3.21875 -2.1875 L 4.640625 -9.484375 C 4.660156 -9.597656 4.726562 -9.65625 4.84375 -9.65625 L 5.703125 -9.65625 C 5.828125 -9.65625 5.898438 -9.597656 5.921875 -9.484375 L 7.328125 -2.1875 C 7.335938 -2.164062 7.347656 -2.15625 7.359375 -2.15625 C 7.378906 -2.15625 7.394531 -2.164062 7.40625 -2.1875 L 8.8125 -9.484375 C 8.84375 -9.597656 8.914062 -9.65625 9.03125 -9.65625 L 9.9375 -9.640625 C 10.082031 -9.640625 10.140625 -9.566406 10.109375 -9.421875 L 8.09375 -0.171875 C 8.070312 -0.0546875 8 0 7.875 0 L 6.90625 0 C 6.789062 0 6.722656 -0.0546875 6.703125 -0.171875 L 5.28125 -7.15625 C 5.269531 -7.195312 5.257812 -7.21875 5.25 -7.21875 C 5.238281 -7.21875 5.222656 -7.195312 5.203125 -7.15625 L 3.859375 -0.171875 C 3.835938 -0.0546875 3.765625 0 3.640625 0 Z M 2.6875 0 "/></g></g></g><g fill="#f1efe7" fill-opacity="1"><g transform="translate(153.718971, 217.086783)"><g><path d="M 1.984375 -11.40625 C 1.660156 -11.40625 1.398438 -11.503906 1.203125 -11.703125 C 1.015625 -11.910156 0.921875 -12.171875 0.921875 -12.484375 C 0.921875 -12.796875 1.015625 -13.050781 1.203125 -13.25 C 1.398438 -13.445312 1.660156 -13.546875 1.984375 -13.546875 C 2.285156 -13.546875 2.535156 -13.445312 2.734375 -13.25 C 2.929688 -13.050781 3.03125 -12.796875 3.03125 -12.484375 C 3.03125 -12.171875 2.929688 -11.910156 2.734375 -11.703125 C 2.535156 -11.503906 2.285156 -11.40625 1.984375 -11.40625 Z M 1.5 0 C 1.375 0 1.3125 -0.0625 1.3125 -0.1875 L 1.3125 -9.46875 C 1.3125 -9.59375 1.375 -9.65625 1.5 -9.65625 L 2.484375 -9.65625 C 2.609375 -9.65625 2.671875 -9.59375 2.671875 -9.46875 L 2.671875 -0.1875 C 2.671875 -0.0625 2.609375 0 2.484375 0 Z M 1.5 0 "/></g></g></g><g fill="#f1efe7" fill-opacity="1"><g transform="translate(157.684783, 217.086783)"><g><path d="M 4.59375 -9.78125 C 5.375 -9.78125 5.976562 -9.515625 6.40625 -8.984375 C 6.832031 -8.453125 7.046875 -7.707031 7.046875 -6.75 L 7.046875 -0.1875 C 7.046875 -0.0625 6.976562 0 6.84375 0 L 5.875 0 C 5.75 0 5.6875 -0.0625 5.6875 -0.1875 L 5.6875 -6.640625 C 5.6875 -7.265625 5.546875 -7.75 5.265625 -8.09375 C 4.992188 -8.4375 4.617188 -8.609375 4.140625 -8.609375 C 3.628906 -8.609375 3.226562 -8.421875 2.9375 -8.046875 C 2.65625 -7.679688 2.515625 -7.179688 2.515625 -6.546875 L 2.515625 -0.1875 C 2.515625 -0.0625 2.453125 0 2.328125 0 L 1.359375 0 C 1.222656 0 1.15625 -0.0625 1.15625 -0.1875 L 1.15625 -9.46875 C 1.15625 -9.59375 1.222656 -9.65625 1.359375 -9.65625 L 2.328125 -9.65625 C 2.453125 -9.65625 2.515625 -9.59375 2.515625 -9.46875 L 2.515625 -8.859375 C 2.515625 -8.828125 2.523438 -8.804688 2.546875 -8.796875 C 2.578125 -8.785156 2.597656 -8.796875 2.609375 -8.828125 C 2.835938 -9.148438 3.125 -9.390625 3.46875 -9.546875 C 3.820312 -9.703125 4.195312 -9.78125 4.59375 -9.78125 Z M 4.59375 -9.78125 "/></g></g></g><g fill="#f1efe7" fill-opacity="1"><g transform="translate(165.768935, 217.086783)"><g><path d="M 5.546875 -9.46875 C 5.546875 -9.59375 5.613281 -9.65625 5.75 -9.65625 L 6.71875 -9.65625 C 6.84375 -9.65625 6.90625 -9.59375 6.90625 -9.46875 L 6.90625 -0.1875 C 6.90625 1.164062 6.585938 2.195312 5.953125 2.90625 C 5.328125 3.613281 4.273438 3.9375 2.796875 3.875 C 2.671875 3.863281 2.609375 3.789062 2.609375 3.65625 L 2.609375 2.84375 C 2.609375 2.71875 2.671875 2.65625 2.796875 2.65625 C 3.816406 2.675781 4.53125 2.441406 4.9375 1.953125 C 5.34375 1.460938 5.546875 0.707031 5.546875 -0.3125 L 5.546875 -0.875 C 5.546875 -0.90625 5.535156 -0.925781 5.515625 -0.9375 C 5.503906 -0.945312 5.484375 -0.941406 5.453125 -0.921875 C 5.234375 -0.597656 4.957031 -0.351562 4.625 -0.1875 C 4.289062 -0.0195312 3.929688 0.0625 3.546875 0.0625 C 2.742188 0.0625 2.109375 -0.203125 1.640625 -0.734375 C 1.179688 -1.273438 0.953125 -1.984375 0.953125 -2.859375 L 0.953125 -6.890625 C 0.953125 -7.773438 1.179688 -8.484375 1.640625 -9.015625 C 2.109375 -9.546875 2.742188 -9.8125 3.546875 -9.8125 C 3.929688 -9.8125 4.289062 -9.726562 4.625 -9.5625 C 4.957031 -9.40625 5.234375 -9.171875 5.453125 -8.859375 C 5.484375 -8.816406 5.503906 -8.796875 5.515625 -8.796875 C 5.535156 -8.804688 5.546875 -8.832031 5.546875 -8.875 Z M 3.953125 -1.125 C 4.421875 -1.125 4.800781 -1.289062 5.09375 -1.625 C 5.394531 -1.96875 5.546875 -2.40625 5.546875 -2.9375 L 5.546875 -6.796875 C 5.546875 -7.335938 5.394531 -7.773438 5.09375 -8.109375 C 4.800781 -8.453125 4.421875 -8.625 3.953125 -8.625 C 3.460938 -8.625 3.066406 -8.453125 2.765625 -8.109375 C 2.460938 -7.773438 2.3125 -7.335938 2.3125 -6.796875 L 2.3125 -2.9375 C 2.3125 -2.40625 2.460938 -1.96875 2.765625 -1.625 C 3.066406 -1.289062 3.460938 -1.125 3.953125 -1.125 Z M 3.953125 -1.125 "/></g></g></g><g fill="#f1efe7" fill-opacity="1"><g transform="translate(173.643351, 217.086783)"><g/></g></g><g fill="#f1efe7" fill-opacity="1"><g transform="translate(177.456625, 217.086783)"><g><path d="M 4.5625 -8.828125 C 4.5625 -8.703125 4.5 -8.640625 4.375 -8.640625 L 2.921875 -8.640625 C 2.867188 -8.640625 2.84375 -8.613281 2.84375 -8.5625 L 2.84375 -2.734375 C 2.84375 -2.140625 2.941406 -1.734375 3.140625 -1.515625 C 3.347656 -1.296875 3.660156 -1.191406 4.078125 -1.203125 L 4.28125 -1.203125 C 4.40625 -1.203125 4.46875 -1.140625 4.46875 -1.015625 L 4.46875 -0.1875 C 4.46875 -0.0625 4.40625 0 4.28125 0 L 3.796875 0 C 3.046875 0 2.472656 -0.160156 2.078125 -0.484375 C 1.691406 -0.804688 1.5 -1.421875 1.5 -2.328125 L 1.5 -8.5625 C 1.5 -8.613281 1.476562 -8.640625 1.4375 -8.640625 L 0.6875 -8.640625 C 0.5625 -8.640625 0.5 -8.703125 0.5 -8.828125 L 0.5 -9.46875 C 0.5 -9.59375 0.5625 -9.65625 0.6875 -9.65625 L 1.4375 -9.65625 C 1.476562 -9.65625 1.5 -9.679688 1.5 -9.734375 L 1.5 -11.859375 C 1.5 -11.992188 1.566406 -12.0625 1.703125 -12.0625 L 2.65625 -12.0625 C 2.78125 -12.0625 2.84375 -11.992188 2.84375 -11.859375 L 2.84375 -9.734375 C 2.84375 -9.679688 2.867188 -9.65625 2.921875 -9.65625 L 4.375 -9.65625 C 4.5 -9.65625 4.5625 -9.59375 4.5625 -9.46875 Z M 4.5625 -8.828125 "/></g></g></g><g fill="#f1efe7" fill-opacity="1"><g transform="translate(182.547357, 217.086783)"><g><path d="M 4.59375 -9.78125 C 5.375 -9.78125 5.976562 -9.515625 6.40625 -8.984375 C 6.832031 -8.453125 7.046875 -7.707031 7.046875 -6.75 L 7.046875 -0.1875 C 7.046875 -0.0625 6.976562 0 6.84375 0 L 5.875 0 C 5.75 0 5.6875 -0.0625 5.6875 -0.1875 L 5.6875 -6.640625 C 5.6875 -7.265625 5.546875 -7.75 5.265625 -8.09375 C 4.992188 -8.4375 4.617188 -8.609375 4.140625 -8.609375 C 3.628906 -8.609375 3.226562 -8.421875 2.9375 -8.046875 C 2.65625 -7.679688 2.515625 -7.179688 2.515625 -6.546875 L 2.515625 -0.1875 C 2.515625 -0.0625 2.453125 0 2.328125 0 L 1.359375 0 C 1.222656 0 1.15625 -0.0625 1.15625 -0.1875 L 1.15625 -13.15625 C 1.15625 -13.289062 1.222656 -13.359375 1.359375 -13.359375 L 2.328125 -13.359375 C 2.453125 -13.359375 2.515625 -13.289062 2.515625 -13.15625 L 2.515625 -8.859375 C 2.515625 -8.828125 2.523438 -8.804688 2.546875 -8.796875 C 2.578125 -8.785156 2.597656 -8.796875 2.609375 -8.828125 C 2.835938 -9.148438 3.125 -9.390625 3.46875 -9.546875 C 3.820312 -9.703125 4.195312 -9.78125 4.59375 -9.78125 Z M 4.59375 -9.78125 "/></g></g></g><g fill="#f1efe7" fill-opacity="1"><g transform="translate(190.631509, 217.086783)"><g><path d="M 6.921875 -4.5 C 6.921875 -4.375 6.859375 -4.3125 6.734375 -4.3125 L 2.390625 -4.3125 C 2.335938 -4.3125 2.3125 -4.285156 2.3125 -4.234375 L 2.3125 -2.84375 C 2.3125 -2.3125 2.457031 -1.875 2.75 -1.53125 C 3.050781 -1.195312 3.445312 -1.03125 3.9375 -1.03125 C 4.34375 -1.03125 4.6875 -1.15625 4.96875 -1.40625 C 5.257812 -1.65625 5.445312 -1.972656 5.53125 -2.359375 C 5.570312 -2.472656 5.644531 -2.53125 5.75 -2.53125 L 6.703125 -2.5 C 6.742188 -2.5 6.785156 -2.476562 6.828125 -2.4375 C 6.867188 -2.40625 6.882812 -2.359375 6.875 -2.296875 C 6.769531 -1.535156 6.457031 -0.9375 5.9375 -0.5 C 5.425781 -0.0625 4.757812 0.15625 3.9375 0.15625 C 3.03125 0.15625 2.304688 -0.109375 1.765625 -0.640625 C 1.222656 -1.179688 0.953125 -1.890625 0.953125 -2.765625 L 0.953125 -6.890625 C 0.953125 -7.753906 1.222656 -8.457031 1.765625 -9 C 2.304688 -9.539062 3.03125 -9.8125 3.9375 -9.8125 C 4.84375 -9.8125 5.566406 -9.539062 6.109375 -9 C 6.648438 -8.457031 6.921875 -7.753906 6.921875 -6.890625 Z M 3.9375 -8.625 C 3.445312 -8.625 3.050781 -8.453125 2.75 -8.109375 C 2.457031 -7.773438 2.3125 -7.335938 2.3125 -6.796875 L 2.3125 -5.515625 C 2.3125 -5.460938 2.335938 -5.4375 2.390625 -5.4375 L 5.515625 -5.4375 C 5.566406 -5.4375 5.59375 -5.460938 5.59375 -5.515625 L 5.59375 -6.796875 C 5.59375 -7.335938 5.4375 -7.773438 5.125 -8.109375 C 4.820312 -8.453125 4.425781 -8.625 3.9375 -8.625 Z M 3.9375 -8.625 "/></g></g></g><g fill="#f1efe7" fill-opacity="1"><g transform="translate(198.391529, 217.086783)"><g/></g></g><g fill="#f1efe7" fill-opacity="1"><g transform="translate(202.204803, 217.086783)"><g><path d="M 1.5625 0 C 1.4375 0 1.375 -0.0625 1.375 -0.1875 L 1.375 -13.15625 C 1.375 -13.289062 1.4375 -13.359375 1.5625 -13.359375 L 2.53125 -13.359375 C 2.664062 -13.359375 2.734375 -13.289062 2.734375 -13.15625 L 2.734375 -0.1875 C 2.734375 -0.0625 2.664062 0 2.53125 0 Z M 1.5625 0 "/></g></g></g><g fill="#f1efe7" fill-opacity="1"><g transform="translate(206.304077, 217.086783)"><g><path d="M 4.59375 -9.78125 C 5.375 -9.78125 5.976562 -9.515625 6.40625 -8.984375 C 6.832031 -8.453125 7.046875 -7.707031 7.046875 -6.75 L 7.046875 -0.1875 C 7.046875 -0.0625 6.976562 0 6.84375 0 L 5.875 0 C 5.75 0 5.6875 -0.0625 5.6875 -0.1875 L 5.6875 -6.640625 C 5.6875 -7.265625 5.546875 -7.75 5.265625 -8.09375 C 4.992188 -8.4375 4.617188 -8.609375 4.140625 -8.609375 C 3.628906 -8.609375 3.226562 -8.421875 2.9375 -8.046875 C 2.65625 -7.679688 2.515625 -7.179688 2.515625 -6.546875 L 2.515625 -0.1875 C 2.515625 -0.0625 2.453125 0 2.328125 0 L 1.359375 0 C 1.222656 0 1.15625 -0.0625 1.15625 -0.1875 L 1.15625 -9.46875 C 1.15625 -9.59375 1.222656 -9.65625 1.359375 -9.65625 L 2.328125 -9.65625 C 2.453125 -9.65625 2.515625 -9.59375 2.515625 -9.46875 L 2.515625 -8.859375 C 2.515625 -8.828125 2.523438 -8.804688 2.546875 -8.796875 C 2.578125 -8.785156 2.597656 -8.796875 2.609375 -8.828125 C 2.835938 -9.148438 3.125 -9.390625 3.46875 -9.546875 C 3.820312 -9.703125 4.195312 -9.78125 4.59375 -9.78125 Z M 4.59375 -9.78125 "/></g></g></g><g fill="#f1efe7" fill-opacity="1"><g transform="translate(214.388228, 217.086783)"><g><path d="M 4.234375 -12.328125 C 3.753906 -12.328125 3.410156 -12.160156 3.203125 -11.828125 C 3.003906 -11.503906 2.90625 -11.003906 2.90625 -10.328125 L 2.90625 -9.734375 C 2.90625 -9.679688 2.925781 -9.65625 2.96875 -9.65625 L 4.4375 -9.65625 C 4.570312 -9.65625 4.640625 -9.59375 4.640625 -9.46875 L 4.640625 -8.828125 C 4.640625 -8.703125 4.570312 -8.640625 4.4375 -8.640625 L 2.96875 -8.640625 C 2.925781 -8.640625 2.90625 -8.613281 2.90625 -8.5625 L 2.90625 -0.1875 C 2.90625 -0.0625 2.835938 0 2.703125 0 L 1.75 0 C 1.625 0 1.5625 -0.0625 1.5625 -0.1875 L 1.5625 -8.5625 C 1.5625 -8.613281 1.535156 -8.640625 1.484375 -8.640625 L 0.71875 -8.640625 C 0.59375 -8.640625 0.53125 -8.703125 0.53125 -8.828125 L 0.53125 -9.46875 C 0.53125 -9.59375 0.59375 -9.65625 0.71875 -9.65625 L 1.484375 -9.65625 C 1.535156 -9.65625 1.5625 -9.679688 1.5625 -9.734375 L 1.5625 -10.34375 C 1.5625 -11.445312 1.765625 -12.242188 2.171875 -12.734375 C 2.578125 -13.234375 3.257812 -13.484375 4.21875 -13.484375 L 4.484375 -13.484375 C 4.609375 -13.484375 4.671875 -13.421875 4.671875 -13.296875 L 4.65625 -12.515625 C 4.65625 -12.390625 4.59375 -12.328125 4.46875 -12.328125 Z M 4.234375 -12.328125 "/></g></g></g><g fill="#f1efe7" fill-opacity="1"><g transform="translate(219.669619, 217.086783)"><g><path d="M 1.234375 0 C 1.109375 0 1.046875 -0.0625 1.046875 -0.1875 L 1.046875 -13.15625 C 1.046875 -13.289062 1.109375 -13.359375 1.234375 -13.359375 L 2.21875 -13.359375 C 2.34375 -13.359375 2.40625 -13.289062 2.40625 -13.15625 L 2.40625 -0.1875 C 2.40625 -0.0625 2.34375 0 2.21875 0 Z M 1.234375 0 "/></g></g></g><g fill="#f1efe7" fill-opacity="1"><g transform="translate(223.120631, 217.086783)"><g><path d="M 5.578125 -9.46875 C 5.578125 -9.59375 5.640625 -9.65625 5.765625 -9.65625 L 6.734375 -9.65625 C 6.859375 -9.65625 6.921875 -9.59375 6.921875 -9.46875 L 6.921875 -0.1875 C 6.921875 -0.0625 6.859375 0 6.734375 0 L 5.765625 0 C 5.640625 0 5.578125 -0.0625 5.578125 -0.1875 L 5.578125 -0.84375 C 5.578125 -0.875 5.566406 -0.890625 5.546875 -0.890625 C 5.523438 -0.890625 5.5 -0.878906 5.46875 -0.859375 C 5.082031 -0.191406 4.445312 0.140625 3.5625 0.140625 C 2.800781 0.140625 2.191406 -0.09375 1.734375 -0.5625 C 1.285156 -1.03125 1.0625 -1.734375 1.0625 -2.671875 L 1.0625 -9.46875 C 1.0625 -9.59375 1.128906 -9.65625 1.265625 -9.65625 L 2.234375 -9.65625 C 2.359375 -9.65625 2.421875 -9.59375 2.421875 -9.46875 L 2.421875 -2.96875 C 2.421875 -2.332031 2.550781 -1.851562 2.8125 -1.53125 C 3.070312 -1.207031 3.453125 -1.046875 3.953125 -1.046875 C 4.460938 -1.046875 4.859375 -1.226562 5.140625 -1.59375 C 5.429688 -1.96875 5.578125 -2.472656 5.578125 -3.109375 Z M 5.578125 -9.46875 "/></g></g></g><g fill="#f1efe7" fill-opacity="1"><g transform="translate(231.204782, 217.086783)"><g><path d="M 6.921875 -4.5 C 6.921875 -4.375 6.859375 -4.3125 6.734375 -4.3125 L 2.390625 -4.3125 C 2.335938 -4.3125 2.3125 -4.285156 2.3125 -4.234375 L 2.3125 -2.84375 C 2.3125 -2.3125 2.457031 -1.875 2.75 -1.53125 C 3.050781 -1.195312 3.445312 -1.03125 3.9375 -1.03125 C 4.34375 -1.03125 4.6875 -1.15625 4.96875 -1.40625 C 5.257812 -1.65625 5.445312 -1.972656 5.53125 -2.359375 C 5.570312 -2.472656 5.644531 -2.53125 5.75 -2.53125 L 6.703125 -2.5 C 6.742188 -2.5 6.785156 -2.476562 6.828125 -2.4375 C 6.867188 -2.40625 6.882812 -2.359375 6.875 -2.296875 C 6.769531 -1.535156 6.457031 -0.9375 5.9375 -0.5 C 5.425781 -0.0625 4.757812 0.15625 3.9375 0.15625 C 3.03125 0.15625 2.304688 -0.109375 1.765625 -0.640625 C 1.222656 -1.179688 0.953125 -1.890625 0.953125 -2.765625 L 0.953125 -6.890625 C 0.953125 -7.753906 1.222656 -8.457031 1.765625 -9 C 2.304688 -9.539062 3.03125 -9.8125 3.9375 -9.8125 C 4.84375 -9.8125 5.566406 -9.539062 6.109375 -9 C 6.648438 -8.457031 6.921875 -7.753906 6.921875 -6.890625 Z M 3.9375 -8.625 C 3.445312 -8.625 3.050781 -8.453125 2.75 -8.109375 C 2.457031 -7.773438 2.3125 -7.335938 2.3125 -6.796875 L 2.3125 -5.515625 C 2.3125 -5.460938 2.335938 -5.4375 2.390625 -5.4375 L 5.515625 -5.4375 C 5.566406 -5.4375 5.59375 -5.460938 5.59375 -5.515625 L 5.59375 -6.796875 C 5.59375 -7.335938 5.4375 -7.773438 5.125 -8.109375 C 4.820312 -8.453125 4.425781 -8.625 3.9375 -8.625 Z M 3.9375 -8.625 "/></g></g></g><g fill="#f1efe7" fill-opacity="1"><g transform="translate(238.964803, 217.086783)"><g><path d="M 4.59375 -9.78125 C 5.375 -9.78125 5.976562 -9.515625 6.40625 -8.984375 C 6.832031 -8.453125 7.046875 -7.707031 7.046875 -6.75 L 7.046875 -0.1875 C 7.046875 -0.0625 6.976562 0 6.84375 0 L 5.875 0 C 5.75 0 5.6875 -0.0625 5.6875 -0.1875 L 5.6875 -6.640625 C 5.6875 -7.265625 5.546875 -7.75 5.265625 -8.09375 C 4.992188 -8.4375 4.617188 -8.609375 4.140625 -8.609375 C 3.628906 -8.609375 3.226562 -8.421875 2.9375 -8.046875 C 2.65625 -7.679688 2.515625 -7.179688 2.515625 -6.546875 L 2.515625 -0.1875 C 2.515625 -0.0625 2.453125 0 2.328125 0 L 1.359375 0 C 1.222656 0 1.15625 -0.0625 1.15625 -0.1875 L 1.15625 -9.46875 C 1.15625 -9.59375 1.222656 -9.65625 1.359375 -9.65625 L 2.328125 -9.65625 C 2.453125 -9.65625 2.515625 -9.59375 2.515625 -9.46875 L 2.515625 -8.859375 C 2.515625 -8.828125 2.523438 -8.804688 2.546875 -8.796875 C 2.578125 -8.785156 2.597656 -8.796875 2.609375 -8.828125 C 2.835938 -9.148438 3.125 -9.390625 3.46875 -9.546875 C 3.820312 -9.703125 4.195312 -9.78125 4.59375 -9.78125 Z M 4.59375 -9.78125 "/></g></g></g><g fill="#f1efe7" fill-opacity="1"><g transform="translate(247.048955, 217.086783)"><g><path d="M 3.9375 0.15625 C 3.03125 0.15625 2.304688 -0.109375 1.765625 -0.640625 C 1.222656 -1.179688 0.953125 -1.890625 0.953125 -2.765625 L 0.953125 -6.890625 C 0.953125 -7.753906 1.222656 -8.457031 1.765625 -9 C 2.316406 -9.539062 3.039062 -9.8125 3.9375 -9.8125 C 4.53125 -9.8125 5.054688 -9.6875 5.515625 -9.4375 C 5.972656 -9.195312 6.320312 -8.875 6.5625 -8.46875 C 6.8125 -8.070312 6.9375 -7.632812 6.9375 -7.15625 L 6.9375 -6.96875 C 6.9375 -6.832031 6.875 -6.765625 6.75 -6.765625 L 5.78125 -6.734375 C 5.65625 -6.734375 5.59375 -6.796875 5.59375 -6.921875 L 5.59375 -7.0625 C 5.59375 -7.476562 5.4375 -7.84375 5.125 -8.15625 C 4.8125 -8.46875 4.414062 -8.625 3.9375 -8.625 C 3.445312 -8.625 3.050781 -8.453125 2.75 -8.109375 C 2.457031 -7.773438 2.3125 -7.335938 2.3125 -6.796875 L 2.3125 -2.859375 C 2.3125 -2.316406 2.457031 -1.875 2.75 -1.53125 C 3.050781 -1.195312 3.445312 -1.03125 3.9375 -1.03125 C 4.414062 -1.03125 4.8125 -1.1875 5.125 -1.5 C 5.4375 -1.8125 5.59375 -2.175781 5.59375 -2.59375 L 5.59375 -2.734375 C 5.59375 -2.859375 5.65625 -2.921875 5.78125 -2.921875 L 6.75 -2.90625 C 6.875 -2.90625 6.9375 -2.835938 6.9375 -2.703125 L 6.9375 -2.5 C 6.9375 -1.738281 6.660156 -1.101562 6.109375 -0.59375 C 5.554688 -0.09375 4.832031 0.15625 3.9375 0.15625 Z M 3.9375 0.15625 "/></g></g></g><g fill="#f1efe7" fill-opacity="1"><g transform="translate(254.713646, 217.086783)"><g><path d="M 6.921875 -4.5 C 6.921875 -4.375 6.859375 -4.3125 6.734375 -4.3125 L 2.390625 -4.3125 C 2.335938 -4.3125 2.3125 -4.285156 2.3125 -4.234375 L 2.3125 -2.84375 C 2.3125 -2.3125 2.457031 -1.875 2.75 -1.53125 C 3.050781 -1.195312 3.445312 -1.03125 3.9375 -1.03125 C 4.34375 -1.03125 4.6875 -1.15625 4.96875 -1.40625 C 5.257812 -1.65625 5.445312 -1.972656 5.53125 -2.359375 C 5.570312 -2.472656 5.644531 -2.53125 5.75 -2.53125 L 6.703125 -2.5 C 6.742188 -2.5 6.785156 -2.476562 6.828125 -2.4375 C 6.867188 -2.40625 6.882812 -2.359375 6.875 -2.296875 C 6.769531 -1.535156 6.457031 -0.9375 5.9375 -0.5 C 5.425781 -0.0625 4.757812 0.15625 3.9375 0.15625 C 3.03125 0.15625 2.304688 -0.109375 1.765625 -0.640625 C 1.222656 -1.179688 0.953125 -1.890625 0.953125 -2.765625 L 0.953125 -6.890625 C 0.953125 -7.753906 1.222656 -8.457031 1.765625 -9 C 2.304688 -9.539062 3.03125 -9.8125 3.9375 -9.8125 C 4.84375 -9.8125 5.566406 -9.539062 6.109375 -9 C 6.648438 -8.457031 6.921875 -7.753906 6.921875 -6.890625 Z M 3.9375 -8.625 C 3.445312 -8.625 3.050781 -8.453125 2.75 -8.109375 C 2.457031 -7.773438 2.3125 -7.335938 2.3125 -6.796875 L 2.3125 -5.515625 C 2.3125 -5.460938 2.335938 -5.4375 2.390625 -5.4375 L 5.515625 -5.4375 C 5.566406 -5.4375 5.59375 -5.460938 5.59375 -5.515625 L 5.59375 -6.796875 C 5.59375 -7.335938 5.4375 -7.773438 5.125 -8.109375 C 4.820312 -8.453125 4.425781 -8.625 3.9375 -8.625 Z M 3.9375 -8.625 "/></g></g></g><g fill="#f1efe7" fill-opacity="1"><g transform="translate(262.473667, 217.086783)"><g><path d="M 4.421875 -9.75 C 4.742188 -9.75 5.019531 -9.675781 5.25 -9.53125 C 5.332031 -9.488281 5.363281 -9.410156 5.34375 -9.296875 L 5.109375 -8.296875 C 5.097656 -8.179688 5.023438 -8.144531 4.890625 -8.1875 C 4.734375 -8.257812 4.539062 -8.296875 4.3125 -8.296875 C 4.207031 -8.296875 4.128906 -8.289062 4.078125 -8.28125 C 3.617188 -8.25 3.242188 -8.007812 2.953125 -7.5625 C 2.660156 -7.113281 2.515625 -6.566406 2.515625 -5.921875 L 2.515625 -0.1875 C 2.515625 -0.0625 2.453125 0 2.328125 0 L 1.359375 0 C 1.222656 0 1.15625 -0.0625 1.15625 -0.1875 L 1.15625 -9.46875 C 1.15625 -9.59375 1.222656 -9.65625 1.359375 -9.65625 L 2.328125 -9.65625 C 2.453125 -9.65625 2.515625 -9.59375 2.515625 -9.46875 L 2.515625 -8.3125 C 2.515625 -8.28125 2.523438 -8.265625 2.546875 -8.265625 C 2.566406 -8.265625 2.585938 -8.273438 2.609375 -8.296875 C 2.984375 -9.265625 3.585938 -9.75 4.421875 -9.75 Z M 4.421875 -9.75 "/></g></g></g><g fill="#f1efe7" fill-opacity="1"><g transform="translate(268.041057, 217.086783)"><g><path d="M 3.6875 0.09375 C 2.800781 0.09375 2.09375 -0.128906 1.5625 -0.578125 C 1.039062 -1.035156 0.78125 -1.640625 0.78125 -2.390625 L 0.78125 -2.515625 C 0.78125 -2.640625 0.84375 -2.703125 0.96875 -2.703125 L 1.890625 -2.703125 C 2.015625 -2.703125 2.078125 -2.640625 2.078125 -2.515625 L 2.078125 -2.40625 C 2.078125 -2 2.222656 -1.65625 2.515625 -1.375 C 2.816406 -1.09375 3.210938 -0.953125 3.703125 -0.953125 C 4.160156 -0.953125 4.53125 -1.09375 4.8125 -1.375 C 5.09375 -1.65625 5.234375 -2.007812 5.234375 -2.4375 C 5.234375 -2.769531 5.140625 -3.046875 4.953125 -3.265625 C 4.773438 -3.492188 4.566406 -3.671875 4.328125 -3.796875 C 4.097656 -3.921875 3.75 -4.085938 3.28125 -4.296875 C 2.78125 -4.492188 2.367188 -4.691406 2.046875 -4.890625 C 1.722656 -5.085938 1.441406 -5.367188 1.203125 -5.734375 C 0.972656 -6.097656 0.859375 -6.554688 0.859375 -7.109375 C 0.859375 -7.929688 1.109375 -8.578125 1.609375 -9.046875 C 2.109375 -9.515625 2.785156 -9.75 3.640625 -9.75 C 4.503906 -9.75 5.191406 -9.503906 5.703125 -9.015625 C 6.210938 -8.535156 6.46875 -7.894531 6.46875 -7.09375 L 6.46875 -7.046875 C 6.46875 -6.910156 6.40625 -6.84375 6.28125 -6.84375 L 5.40625 -6.84375 C 5.269531 -6.84375 5.203125 -6.910156 5.203125 -7.046875 L 5.203125 -7.15625 C 5.203125 -7.582031 5.054688 -7.9375 4.765625 -8.21875 C 4.484375 -8.5 4.113281 -8.640625 3.65625 -8.640625 C 3.195312 -8.640625 2.832031 -8.492188 2.5625 -8.203125 C 2.289062 -7.921875 2.15625 -7.570312 2.15625 -7.15625 C 2.15625 -6.851562 2.238281 -6.59375 2.40625 -6.375 C 2.570312 -6.164062 2.773438 -5.992188 3.015625 -5.859375 C 3.253906 -5.734375 3.59375 -5.570312 4.03125 -5.375 C 4.550781 -5.144531 4.976562 -4.925781 5.3125 -4.71875 C 5.644531 -4.519531 5.9375 -4.234375 6.1875 -3.859375 C 6.445312 -3.492188 6.578125 -3.039062 6.578125 -2.5 C 6.578125 -1.707031 6.316406 -1.078125 5.796875 -0.609375 C 5.273438 -0.140625 4.570312 0.09375 3.6875 0.09375 Z M 3.6875 0.09375 "/></g></g></g><g clip-path="url(#982d10d1f6)"><g clip-path="url(#105db5619c)"><g clip-path="url(#68fc2e9b7c)"><path fill="#ff3131" d="M 77.722656 217.007812 L 72.949219 212.773438 C 72.039062 211.964844 71.953125 210.578125 72.761719 209.667969 L 78.230469 203.503906 C 79.039062 202.59375 78.953125 201.203125 78.042969 200.398438 C 77.136719 199.589844 75.746094 199.675781 74.941406 200.585938 L 65.164062 211.605469 C 64.160156 212.742188 62.421875 212.84375 61.289062 211.839844 C 60.152344 210.832031 60.046875 209.097656 61.054688 207.960938 L 77.394531 189.539062 C 78.199219 188.628906 78.117188 187.242188 77.207031 186.433594 C 76.296875 185.628906 74.910156 185.710938 74.105469 186.621094 L 39.109375 226.078125 C 38.101562 227.214844 36.367188 227.320312 35.230469 226.3125 C 34.09375 225.304688 33.992188 223.570312 35 222.433594 L 63.429688 190.375 C 64.238281 189.464844 64.15625 188.078125 63.246094 187.273438 C 62.335938 186.464844 60.945312 186.546875 60.140625 187.457031 L 49.054688 199.960938 C 48.246094 200.867188 46.859375 200.953125 45.949219 200.144531 L 45.125 199.414062 C 44.214844 198.609375 44.132812 197.21875 44.9375 196.3125 L 62.589844 176.410156 C 63.394531 175.5 63.3125 174.113281 62.402344 173.304688 C 61.492188 172.5 60.105469 172.582031 59.300781 173.492188 L 17.714844 220.390625 C 16.710938 221.523438 14.972656 221.628906 13.839844 220.621094 C 12.703125 219.617188 12.601562 217.878906 13.605469 216.746094 L 48.632812 177.253906 C 49.4375 176.34375 49.355469 174.957031 48.445312 174.148438 C 47.535156 173.34375 46.148438 173.425781 45.339844 174.335938 L 39.875 180.503906 C 39.070312 181.410156 37.679688 181.496094 36.769531 180.6875 L 31.996094 176.453125 C 30.777344 175.371094 31.121094 173.378906 32.636719 172.769531 L 96.054688 147.320312 C 97.734375 146.644531 99.464844 148.179688 98.996094 149.929688 L 81.304688 215.929688 C 80.878906 217.507812 78.941406 218.089844 77.722656 217.007812 Z M 41.480469 204.363281 C 40.34375 203.355469 38.609375 203.460938 37.601562 204.59375 L 12.628906 232.753906 C 11.625 233.886719 11.726562 235.625 12.863281 236.628906 C 13.996094 237.636719 15.734375 237.53125 16.738281 236.398438 L 41.710938 208.238281 C 42.71875 207.105469 42.613281 205.371094 41.480469 204.363281 Z M 57.738281 215.84375 C 56.601562 214.835938 54.867188 214.9375 53.859375 216.074219 L 37.625 234.378906 C 36.621094 235.511719 36.722656 237.25 37.859375 238.253906 C 38.992188 239.261719 40.730469 239.15625 41.738281 238.023438 L 57.96875 219.71875 C 58.976562 218.585938 58.871094 216.847656 57.738281 215.84375 Z M 33.644531 227.996094 C 32.539062 227.015625 30.84375 227.117188 29.863281 228.222656 C 28.882812 229.332031 28.984375 231.023438 30.089844 232.003906 C 31.195312 232.984375 32.890625 232.882812 33.871094 231.777344 C 34.851562 230.671875 34.75 228.980469 33.644531 227.996094 Z M 33.644531 227.996094 " fill-opacity="1" fill-rule="nonzero"/></g></g></g></svg>