<svg xmlns="http://www.w3.org/2000/svg" xmlns:xlink="http://www.w3.org/1999/xlink" width="1920" zoomAndPan="magnify" viewBox="0 0 1440 809.999993" height="1080" preserveAspectRatio="xMidYMid meet" version="1.0"><defs><g/><clipPath id="f0fae95500"><path d="M 195 249 L 487 249 L 487 556 L 195 556 Z M 195 249 " clip-rule="nonzero"/></clipPath><clipPath id="e37485931c"><path d="M 178.203125 266.1875 L 486.074219 247.734375 L 503.765625 542.910156 L 195.894531 561.363281 Z M 178.203125 266.1875 " clip-rule="nonzero"/></clipPath><clipPath id="6a6beb222d"><path d="M 178.203125 266.1875 L 486.074219 247.734375 L 503.765625 542.910156 L 195.894531 561.363281 Z M 178.203125 266.1875 " clip-rule="nonzero"/></clipPath></defs><rect x="-144" width="1728" fill="#ffffff" y="-80.999999" height="971.999992" fill-opacity="1"/><rect x="-144" width="1728" fill="#000000" y="-80.999999" height="971.999992" fill-opacity="1"/><g clip-path="url(#f0fae95500)"><g clip-path="url(#e37485931c)"><g clip-path="url(#6a6beb222d)"><path fill="#ff3131" d="M 414.90625 482.652344 L 398.992188 468.539062 C 395.960938 465.847656 395.683594 461.222656 398.371094 458.1875 L 416.605469 437.628906 C 419.296875 434.597656 419.019531 429.972656 415.984375 427.28125 C 412.953125 424.59375 408.328125 424.871094 405.636719 427.902344 L 373.046875 464.648438 C 369.691406 468.429688 363.90625 468.777344 360.121094 465.421875 C 356.335938 462.066406 355.992188 456.28125 359.347656 452.496094 L 413.816406 391.082031 C 416.503906 388.046875 416.226562 383.421875 413.195312 380.730469 C 410.164062 378.042969 405.535156 378.320312 402.847656 381.351562 L 286.179688 512.898438 C 282.824219 516.683594 277.035156 517.027344 273.25 513.671875 C 269.46875 510.316406 269.121094 504.53125 272.476562 500.746094 L 367.265625 393.871094 C 369.957031 390.835938 369.679688 386.210938 366.644531 383.523438 C 363.613281 380.832031 358.988281 381.109375 356.296875 384.140625 L 319.332031 425.820312 C 316.644531 428.851562 312.015625 429.128906 308.984375 426.4375 L 306.238281 424.003906 C 303.207031 421.3125 302.929688 416.6875 305.617188 413.65625 L 364.460938 347.308594 C 367.152344 344.277344 366.875 339.648438 363.84375 336.960938 C 360.808594 334.269531 356.183594 334.546875 353.492188 337.578125 L 214.863281 493.929688 C 211.507812 497.714844 205.71875 498.0625 201.9375 494.707031 C 198.152344 491.347656 197.804688 485.5625 201.160156 481.777344 L 317.925781 350.125 C 320.617188 347.089844 320.339844 342.464844 317.304688 339.773438 C 314.273438 337.085938 309.648438 337.363281 306.957031 340.394531 L 288.738281 360.953125 C 286.046875 363.984375 281.421875 364.261719 278.386719 361.574219 L 262.472656 347.457031 C 258.402344 343.847656 259.558594 337.207031 264.609375 335.171875 L 476.023438 250.328125 C 481.632812 248.078125 487.398438 253.191406 485.832031 259.027344 L 426.851562 479.0625 C 425.433594 484.324219 418.976562 486.261719 414.90625 482.652344 Z M 294.085938 440.5 C 290.304688 437.144531 284.515625 437.488281 281.160156 441.273438 L 197.90625 535.144531 C 194.550781 538.929688 194.898438 544.714844 198.679688 548.070312 C 202.464844 551.425781 208.25 551.082031 211.605469 547.296875 L 294.863281 453.425781 C 298.21875 449.640625 297.871094 443.855469 294.085938 440.5 Z M 348.285156 478.769531 C 344.5 475.410156 338.714844 475.757812 335.359375 479.542969 L 281.238281 540.5625 C 277.882812 544.347656 278.230469 550.132812 282.015625 553.488281 C 285.796875 556.84375 291.585938 556.496094 294.941406 552.714844 L 349.058594 491.695312 C 352.414062 487.910156 352.070312 482.125 348.285156 478.769531 Z M 267.960938 519.292969 C 264.273438 516.023438 258.628906 516.359375 255.359375 520.046875 C 252.085938 523.738281 252.425781 529.382812 256.113281 532.652344 C 259.800781 535.921875 265.445312 535.585938 268.71875 531.898438 C 271.988281 528.207031 271.652344 522.5625 267.960938 519.292969 Z M 267.960938 519.292969 " fill-opacity="1" fill-rule="nonzero"/></g></g></g><g fill="#f1efe7" fill-opacity="1"><g transform="translate(480.732078, 438.38622)"><g><path d="M 43.484375 0 C 43.273438 -0.75 43.0625 -1.445312 42.84375 -2.09375 C 42.632812 -2.738281 42.445312 -3.539062 42.28125 -4.5 C 42.125 -5.46875 42.015625 -6.703125 41.953125 -8.203125 C 41.898438 -9.710938 41.875 -11.597656 41.875 -13.859375 L 41.875 -31.578125 C 41.875 -36.835938 40.960938 -40.539062 39.140625 -42.6875 C 37.316406 -44.832031 34.363281 -45.90625 30.28125 -45.90625 L 24.15625 -45.90625 L 24.15625 0 L 6.4375 0 L 6.4375 -112.75 L 33.1875 -112.75 C 42.414062 -112.75 49.097656 -110.601562 53.234375 -106.3125 C 57.367188 -102.019531 59.4375 -95.523438 59.4375 -86.828125 L 59.4375 -77.96875 C 59.4375 -66.363281 55.570312 -58.738281 47.84375 -55.09375 C 52.351562 -53.257812 55.4375 -50.273438 57.09375 -46.140625 C 58.757812 -42.015625 59.59375 -37 59.59375 -31.09375 L 59.59375 -13.6875 C 59.59375 -10.894531 59.703125 -8.453125 59.921875 -6.359375 C 60.140625 -4.265625 60.675781 -2.144531 61.53125 0 Z M 24.15625 -96.640625 L 24.15625 -62.015625 L 31.09375 -62.015625 C 34.414062 -62.015625 37.015625 -62.875 38.890625 -64.59375 C 40.773438 -66.3125 41.71875 -69.425781 41.71875 -73.9375 L 41.71875 -85.046875 C 41.71875 -89.128906 40.992188 -92.082031 39.546875 -93.90625 C 38.097656 -95.726562 35.816406 -96.640625 32.703125 -96.640625 Z M 24.15625 -96.640625 "/></g></g></g><g fill="#f1efe7" fill-opacity="1"><g transform="translate(545.48168, 438.38622)"><g><path d="M 63.78125 0 L 45.90625 0 L 42.84375 -20.453125 L 21.09375 -20.453125 L 18.046875 0 L 1.765625 0 L 19.8125 -112.75 L 45.75 -112.75 Z M 23.359375 -35.765625 L 40.4375 -35.765625 L 31.890625 -92.78125 Z M 23.359375 -35.765625 "/></g></g></g><g fill="#f1efe7" fill-opacity="1"><g transform="translate(611.03662, 438.38622)"><g><path d="M 1.609375 -112.75 L 56.375 -112.75 L 56.375 -96.640625 L 37.859375 -96.640625 L 37.859375 0 L 20.140625 0 L 20.140625 -96.640625 L 1.609375 -96.640625 Z M 1.609375 -112.75 "/></g></g></g><g fill="#f1efe7" fill-opacity="1"><g transform="translate(669.021345, 438.38622)"><g><path d="M 24.15625 -65.234375 L 48.484375 -65.234375 L 48.484375 -49.125 L 24.15625 -49.125 L 24.15625 -16.109375 L 54.765625 -16.109375 L 54.765625 0 L 6.4375 0 L 6.4375 -112.75 L 54.765625 -112.75 L 54.765625 -96.640625 L 24.15625 -96.640625 Z M 24.15625 -65.234375 "/></g></g></g><g fill="#ff3131" fill-opacity="1"><g transform="translate(755.912536, 438.38622)"><g><path d="M 57.828125 -42.046875 L 57.828125 -27.0625 C 57.828125 -17.9375 55.597656 -10.929688 51.140625 -6.046875 C 46.679688 -1.160156 40.101562 1.28125 31.40625 1.28125 C 22.707031 1.28125 16.128906 -1.160156 11.671875 -6.046875 C 7.222656 -10.929688 5 -17.9375 5 -27.0625 L 5 -85.6875 C 5 -94.820312 7.222656 -101.832031 11.671875 -106.71875 C 16.128906 -111.601562 22.707031 -114.046875 31.40625 -114.046875 C 40.101562 -114.046875 46.679688 -111.601562 51.140625 -106.71875 C 55.597656 -101.832031 57.828125 -94.820312 57.828125 -85.6875 L 57.828125 -74.734375 L 41.078125 -74.734375 L 41.078125 -86.828125 C 41.078125 -90.898438 40.242188 -93.769531 38.578125 -95.4375 C 36.910156 -97.101562 34.679688 -97.9375 31.890625 -97.9375 C 29.097656 -97.9375 26.867188 -97.101562 25.203125 -95.4375 C 23.546875 -93.769531 22.71875 -90.898438 22.71875 -86.828125 L 22.71875 -25.9375 C 22.71875 -21.851562 23.546875 -19.003906 25.203125 -17.390625 C 26.867188 -15.785156 29.097656 -14.984375 31.890625 -14.984375 C 34.679688 -14.984375 36.910156 -15.785156 38.578125 -17.390625 C 40.242188 -19.003906 41.078125 -21.851562 41.078125 -25.9375 L 41.078125 -42.046875 Z M 57.828125 -42.046875 "/></g></g></g><g fill="#ff3131" fill-opacity="1"><g transform="translate(818.085041, 438.38622)"><g><path d="M 43.484375 0 C 43.273438 -0.75 43.0625 -1.445312 42.84375 -2.09375 C 42.632812 -2.738281 42.445312 -3.539062 42.28125 -4.5 C 42.125 -5.46875 42.015625 -6.703125 41.953125 -8.203125 C 41.898438 -9.710938 41.875 -11.597656 41.875 -13.859375 L 41.875 -31.578125 C 41.875 -36.835938 40.960938 -40.539062 39.140625 -42.6875 C 37.316406 -44.832031 34.363281 -45.90625 30.28125 -45.90625 L 24.15625 -45.90625 L 24.15625 0 L 6.4375 0 L 6.4375 -112.75 L 33.1875 -112.75 C 42.414062 -112.75 49.097656 -110.601562 53.234375 -106.3125 C 57.367188 -102.019531 59.4375 -95.523438 59.4375 -86.828125 L 59.4375 -77.96875 C 59.4375 -66.363281 55.570312 -58.738281 47.84375 -55.09375 C 52.351562 -53.257812 55.4375 -50.273438 57.09375 -46.140625 C 58.757812 -42.015625 59.59375 -37 59.59375 -31.09375 L 59.59375 -13.6875 C 59.59375 -10.894531 59.703125 -8.453125 59.921875 -6.359375 C 60.140625 -4.265625 60.675781 -2.144531 61.53125 0 Z M 24.15625 -96.640625 L 24.15625 -62.015625 L 31.09375 -62.015625 C 34.414062 -62.015625 37.015625 -62.875 38.890625 -64.59375 C 40.773438 -66.3125 41.71875 -69.425781 41.71875 -73.9375 L 41.71875 -85.046875 C 41.71875 -89.128906 40.992188 -92.082031 39.546875 -93.90625 C 38.097656 -95.726562 35.816406 -96.640625 32.703125 -96.640625 Z M 24.15625 -96.640625 "/></g></g></g><g fill="#ff3131" fill-opacity="1"><g transform="translate(882.834643, 438.38622)"><g><path d="M 24.15625 -65.234375 L 48.484375 -65.234375 L 48.484375 -49.125 L 24.15625 -49.125 L 24.15625 -16.109375 L 54.765625 -16.109375 L 54.765625 0 L 6.4375 0 L 6.4375 -112.75 L 54.765625 -112.75 L 54.765625 -96.640625 L 24.15625 -96.640625 Z M 24.15625 -65.234375 "/></g></g></g><g fill="#ff3131" fill-opacity="1"><g transform="translate(942.107893, 438.38622)"><g><path d="M 63.78125 0 L 45.90625 0 L 42.84375 -20.453125 L 21.09375 -20.453125 L 18.046875 0 L 1.765625 0 L 19.8125 -112.75 L 45.75 -112.75 Z M 23.359375 -35.765625 L 40.4375 -35.765625 L 31.890625 -92.78125 Z M 23.359375 -35.765625 "/></g></g></g><g fill="#ff3131" fill-opacity="1"><g transform="translate(1007.662833, 438.38622)"><g><path d="M 1.609375 -112.75 L 56.375 -112.75 L 56.375 -96.640625 L 37.859375 -96.640625 L 37.859375 0 L 20.140625 0 L 20.140625 -96.640625 L 1.609375 -96.640625 Z M 1.609375 -112.75 "/></g></g></g><g fill="#ff3131" fill-opacity="1"><g transform="translate(1065.647558, 438.38622)"><g><path d="M 22.71875 -25.9375 C 22.71875 -21.851562 23.546875 -18.976562 25.203125 -17.3125 C 26.867188 -15.644531 29.097656 -14.8125 31.890625 -14.8125 C 34.679688 -14.8125 36.910156 -15.644531 38.578125 -17.3125 C 40.242188 -18.976562 41.078125 -21.851562 41.078125 -25.9375 L 41.078125 -86.828125 C 41.078125 -90.898438 40.242188 -93.769531 38.578125 -95.4375 C 36.910156 -97.101562 34.679688 -97.9375 31.890625 -97.9375 C 29.097656 -97.9375 26.867188 -97.101562 25.203125 -95.4375 C 23.546875 -93.769531 22.71875 -90.898438 22.71875 -86.828125 Z M 5 -85.6875 C 5 -94.820312 7.304688 -101.832031 11.921875 -106.71875 C 16.535156 -111.601562 23.191406 -114.046875 31.890625 -114.046875 C 40.585938 -114.046875 47.242188 -111.601562 51.859375 -106.71875 C 56.484375 -101.832031 58.796875 -94.820312 58.796875 -85.6875 L 58.796875 -27.0625 C 58.796875 -17.9375 56.484375 -10.929688 51.859375 -6.046875 C 47.242188 -1.160156 40.585938 1.28125 31.890625 1.28125 C 23.191406 1.28125 16.535156 -1.160156 11.921875 -6.046875 C 7.304688 -10.929688 5 -17.9375 5 -27.0625 Z M 5 -85.6875 "/></g></g></g><g fill="#ff3131" fill-opacity="1"><g transform="translate(1129.430742, 438.38622)"><g><path d="M 43.484375 0 C 43.273438 -0.75 43.0625 -1.445312 42.84375 -2.09375 C 42.632812 -2.738281 42.445312 -3.539062 42.28125 -4.5 C 42.125 -5.46875 42.015625 -6.703125 41.953125 -8.203125 C 41.898438 -9.710938 41.875 -11.597656 41.875 -13.859375 L 41.875 -31.578125 C 41.875 -36.835938 40.960938 -40.539062 39.140625 -42.6875 C 37.316406 -44.832031 34.363281 -45.90625 30.28125 -45.90625 L 24.15625 -45.90625 L 24.15625 0 L 6.4375 0 L 6.4375 -112.75 L 33.1875 -112.75 C 42.414062 -112.75 49.097656 -110.601562 53.234375 -106.3125 C 57.367188 -102.019531 59.4375 -95.523438 59.4375 -86.828125 L 59.4375 -77.96875 C 59.4375 -66.363281 55.570312 -58.738281 47.84375 -55.09375 C 52.351562 -53.257812 55.4375 -50.273438 57.09375 -46.140625 C 58.757812 -42.015625 59.59375 -37 59.59375 -31.09375 L 59.59375 -13.6875 C 59.59375 -10.894531 59.703125 -8.453125 59.921875 -6.359375 C 60.140625 -4.265625 60.675781 -2.144531 61.53125 0 Z M 24.15625 -96.640625 L 24.15625 -62.015625 L 31.09375 -62.015625 C 34.414062 -62.015625 37.015625 -62.875 38.890625 -64.59375 C 40.773438 -66.3125 41.71875 -69.425781 41.71875 -73.9375 L 41.71875 -85.046875 C 41.71875 -89.128906 40.992188 -92.082031 39.546875 -93.90625 C 38.097656 -95.726562 35.816406 -96.640625 32.703125 -96.640625 Z M 24.15625 -96.640625 "/></g></g></g><g fill="#ff3131" fill-opacity="1"><g transform="translate(490.270998, 494.146747)"><g><path d="M 19.40625 0 C 19.070312 0 18.847656 -0.144531 18.734375 -0.4375 L 13.109375 -17.46875 C 13.078125 -17.582031 13.003906 -17.640625 12.890625 -17.640625 L 8.09375 -17.640625 C 7.945312 -17.640625 7.875 -17.566406 7.875 -17.421875 L 7.875 -0.546875 C 7.875 -0.179688 7.691406 0 7.328125 0 L 4.515625 0 C 4.148438 0 3.96875 -0.179688 3.96875 -0.546875 L 3.96875 -38.03125 C 3.96875 -38.394531 4.148438 -38.578125 4.515625 -38.578125 L 13.609375 -38.578125 C 16.296875 -38.578125 18.460938 -37.59375 20.109375 -35.625 C 21.765625 -33.664062 22.59375 -31.101562 22.59375 -27.9375 C 22.59375 -25.550781 22.078125 -23.492188 21.046875 -21.765625 C 20.023438 -20.035156 18.628906 -18.820312 16.859375 -18.125 C 16.710938 -18.09375 16.660156 -18.003906 16.703125 -17.859375 L 22.703125 -0.609375 L 22.765625 -0.390625 C 22.765625 -0.128906 22.597656 0 22.265625 0 Z M 8.09375 -35.15625 C 7.945312 -35.15625 7.875 -35.082031 7.875 -34.9375 L 7.875 -21 C 7.875 -20.851562 7.945312 -20.78125 8.09375 -20.78125 L 13.0625 -20.78125 C 14.75 -20.78125 16.109375 -21.429688 17.140625 -22.734375 C 18.171875 -24.035156 18.6875 -25.769531 18.6875 -27.9375 C 18.6875 -30.101562 18.171875 -31.847656 17.140625 -33.171875 C 16.109375 -34.492188 14.75 -35.15625 13.0625 -35.15625 Z M 8.09375 -35.15625 "/></g></g></g><g fill="#ff3131" fill-opacity="1"><g transform="translate(514.68097, 494.146747)"><g><path d="M 20 -13 C 20 -12.632812 19.816406 -12.453125 19.453125 -12.453125 L 6.890625 -12.453125 C 6.742188 -12.453125 6.671875 -12.378906 6.671875 -12.234375 L 6.671875 -8.21875 C 6.671875 -6.664062 7.101562 -5.398438 7.96875 -4.421875 C 8.832031 -3.453125 9.960938 -2.96875 11.359375 -2.96875 C 12.523438 -2.96875 13.519531 -3.328125 14.34375 -4.046875 C 15.175781 -4.765625 15.722656 -5.691406 15.984375 -6.828125 C 16.085938 -7.160156 16.289062 -7.328125 16.59375 -7.328125 L 19.34375 -7.21875 C 19.488281 -7.21875 19.613281 -7.160156 19.71875 -7.046875 C 19.832031 -6.941406 19.875 -6.796875 19.84375 -6.609375 C 19.550781 -4.441406 18.660156 -2.722656 17.171875 -1.453125 C 15.679688 -0.191406 13.742188 0.4375 11.359375 0.4375 C 8.742188 0.4375 6.65625 -0.332031 5.09375 -1.875 C 3.53125 -3.414062 2.75 -5.453125 2.75 -7.984375 L 2.75 -19.890625 C 2.75 -22.390625 3.53125 -24.421875 5.09375 -25.984375 C 6.65625 -27.546875 8.742188 -28.328125 11.359375 -28.328125 C 14.003906 -28.328125 16.101562 -27.546875 17.65625 -25.984375 C 19.21875 -24.421875 20 -22.390625 20 -19.890625 Z M 11.359375 -24.90625 C 9.960938 -24.90625 8.832031 -24.414062 7.96875 -23.4375 C 7.101562 -22.46875 6.671875 -21.195312 6.671875 -19.625 L 6.671875 -15.921875 C 6.671875 -15.773438 6.742188 -15.703125 6.890625 -15.703125 L 15.921875 -15.703125 C 16.066406 -15.703125 16.140625 -15.773438 16.140625 -15.921875 L 16.140625 -19.625 C 16.140625 -21.195312 15.695312 -22.46875 14.8125 -23.4375 C 13.9375 -24.414062 12.785156 -24.90625 11.359375 -24.90625 Z M 11.359375 -24.90625 "/></g></g></g><g fill="#ff3131" fill-opacity="1"><g transform="translate(537.10728, 494.146747)"><g><path d="M 8.8125 0 C 8.488281 0 8.289062 -0.164062 8.21875 -0.5 L 1.375 -27.28125 L 1.328125 -27.5 C 1.328125 -27.757812 1.488281 -27.890625 1.8125 -27.890625 L 5.015625 -27.890625 C 5.347656 -27.890625 5.550781 -27.722656 5.625 -27.390625 L 10.359375 -6.5 C 10.398438 -6.394531 10.4375 -6.34375 10.46875 -6.34375 C 10.507812 -6.34375 10.546875 -6.394531 10.578125 -6.5 L 15.265625 -27.390625 C 15.335938 -27.722656 15.539062 -27.890625 15.875 -27.890625 L 19.0625 -27.828125 C 19.25 -27.828125 19.390625 -27.769531 19.484375 -27.65625 C 19.578125 -27.550781 19.585938 -27.40625 19.515625 -27.21875 L 12.734375 -0.5 C 12.691406 -0.164062 12.488281 0 12.125 0 Z M 8.8125 0 "/></g></g></g><g fill="#ff3131" fill-opacity="1"><g transform="translate(557.990755, 494.146747)"><g><path d="M 5.734375 -32.953125 C 4.816406 -32.953125 4.070312 -33.242188 3.5 -33.828125 C 2.925781 -34.421875 2.640625 -35.160156 2.640625 -36.046875 C 2.640625 -36.960938 2.925781 -37.703125 3.5 -38.265625 C 4.070312 -38.835938 4.816406 -39.125 5.734375 -39.125 C 6.609375 -39.125 7.332031 -38.835938 7.90625 -38.265625 C 8.476562 -37.703125 8.765625 -36.960938 8.765625 -36.046875 C 8.765625 -35.160156 8.476562 -34.421875 7.90625 -33.828125 C 7.332031 -33.242188 6.609375 -32.953125 5.734375 -32.953125 Z M 4.359375 0 C 3.984375 0 3.796875 -0.179688 3.796875 -0.546875 L 3.796875 -27.328125 C 3.796875 -27.703125 3.984375 -27.890625 4.359375 -27.890625 L 7.171875 -27.890625 C 7.535156 -27.890625 7.71875 -27.703125 7.71875 -27.328125 L 7.71875 -0.546875 C 7.71875 -0.179688 7.535156 0 7.171875 0 Z M 4.359375 0 "/></g></g></g><g fill="#ff3131" fill-opacity="1"><g transform="translate(569.451875, 494.146747)"><g><path d="M 20 -13 C 20 -12.632812 19.816406 -12.453125 19.453125 -12.453125 L 6.890625 -12.453125 C 6.742188 -12.453125 6.671875 -12.378906 6.671875 -12.234375 L 6.671875 -8.21875 C 6.671875 -6.664062 7.101562 -5.398438 7.96875 -4.421875 C 8.832031 -3.453125 9.960938 -2.96875 11.359375 -2.96875 C 12.523438 -2.96875 13.519531 -3.328125 14.34375 -4.046875 C 15.175781 -4.765625 15.722656 -5.691406 15.984375 -6.828125 C 16.085938 -7.160156 16.289062 -7.328125 16.59375 -7.328125 L 19.34375 -7.21875 C 19.488281 -7.21875 19.613281 -7.160156 19.71875 -7.046875 C 19.832031 -6.941406 19.875 -6.796875 19.84375 -6.609375 C 19.550781 -4.441406 18.660156 -2.722656 17.171875 -1.453125 C 15.679688 -0.191406 13.742188 0.4375 11.359375 0.4375 C 8.742188 0.4375 6.65625 -0.332031 5.09375 -1.875 C 3.53125 -3.414062 2.75 -5.453125 2.75 -7.984375 L 2.75 -19.890625 C 2.75 -22.390625 3.53125 -24.421875 5.09375 -25.984375 C 6.65625 -27.546875 8.742188 -28.328125 11.359375 -28.328125 C 14.003906 -28.328125 16.101562 -27.546875 17.65625 -25.984375 C 19.21875 -24.421875 20 -22.390625 20 -19.890625 Z M 11.359375 -24.90625 C 9.960938 -24.90625 8.832031 -24.414062 7.96875 -23.4375 C 7.101562 -22.46875 6.671875 -21.195312 6.671875 -19.625 L 6.671875 -15.921875 C 6.671875 -15.773438 6.742188 -15.703125 6.890625 -15.703125 L 15.921875 -15.703125 C 16.066406 -15.703125 16.140625 -15.773438 16.140625 -15.921875 L 16.140625 -19.625 C 16.140625 -21.195312 15.695312 -22.46875 14.8125 -23.4375 C 13.9375 -24.414062 12.785156 -24.90625 11.359375 -24.90625 Z M 11.359375 -24.90625 "/></g></g></g><g fill="#ff3131" fill-opacity="1"><g transform="translate(591.878186, 494.146747)"><g><path d="M 7.765625 0 C 7.441406 0 7.242188 -0.164062 7.171875 -0.5 L 1.328125 -27.28125 L 1.328125 -27.390625 C 1.328125 -27.722656 1.488281 -27.890625 1.8125 -27.890625 L 4.515625 -27.890625 C 4.878906 -27.890625 5.082031 -27.722656 5.125 -27.390625 L 9.09375 -6.34375 C 9.125 -6.269531 9.160156 -6.234375 9.203125 -6.234375 C 9.242188 -6.234375 9.28125 -6.269531 9.3125 -6.34375 L 13.390625 -27.390625 C 13.460938 -27.722656 13.664062 -27.890625 14 -27.890625 L 16.484375 -27.890625 C 16.847656 -27.890625 17.046875 -27.722656 17.078125 -27.390625 L 21.15625 -6.34375 C 21.195312 -6.269531 21.234375 -6.234375 21.265625 -6.234375 C 21.304688 -6.234375 21.34375 -6.269531 21.375 -6.34375 L 25.453125 -27.390625 C 25.535156 -27.722656 25.738281 -27.890625 26.0625 -27.890625 L 28.71875 -27.828125 C 29.113281 -27.828125 29.273438 -27.625 29.203125 -27.21875 L 23.359375 -0.5 C 23.328125 -0.164062 23.128906 0 22.765625 0 L 19.953125 0 C 19.617188 0 19.414062 -0.164062 19.34375 -0.5 L 15.265625 -20.671875 C 15.222656 -20.773438 15.179688 -20.828125 15.140625 -20.828125 C 15.109375 -20.828125 15.078125 -20.773438 15.046875 -20.671875 L 11.125 -0.5 C 11.09375 -0.164062 10.894531 0 10.53125 0 Z M 7.765625 0 "/></g></g></g><g fill="#ff3131" fill-opacity="1"><g transform="translate(622.404418, 494.146747)"><g><path d="M 5.734375 -32.953125 C 4.816406 -32.953125 4.070312 -33.242188 3.5 -33.828125 C 2.925781 -34.421875 2.640625 -35.160156 2.640625 -36.046875 C 2.640625 -36.960938 2.925781 -37.703125 3.5 -38.265625 C 4.070312 -38.835938 4.816406 -39.125 5.734375 -39.125 C 6.609375 -39.125 7.332031 -38.835938 7.90625 -38.265625 C 8.476562 -37.703125 8.765625 -36.960938 8.765625 -36.046875 C 8.765625 -35.160156 8.476562 -34.421875 7.90625 -33.828125 C 7.332031 -33.242188 6.609375 -32.953125 5.734375 -32.953125 Z M 4.359375 0 C 3.984375 0 3.796875 -0.179688 3.796875 -0.546875 L 3.796875 -27.328125 C 3.796875 -27.703125 3.984375 -27.890625 4.359375 -27.890625 L 7.171875 -27.890625 C 7.535156 -27.890625 7.71875 -27.703125 7.71875 -27.328125 L 7.71875 -0.546875 C 7.71875 -0.179688 7.535156 0 7.171875 0 Z M 4.359375 0 "/></g></g></g><g fill="#ff3131" fill-opacity="1"><g transform="translate(633.865538, 494.146747)"><g><path d="M 13.28125 -28.265625 C 15.519531 -28.265625 17.253906 -27.492188 18.484375 -25.953125 C 19.710938 -24.410156 20.328125 -22.265625 20.328125 -19.515625 L 20.328125 -0.546875 C 20.328125 -0.179688 20.144531 0 19.78125 0 L 16.96875 0 C 16.601562 0 16.421875 -0.179688 16.421875 -0.546875 L 16.421875 -19.171875 C 16.421875 -20.972656 16.023438 -22.367188 15.234375 -23.359375 C 14.441406 -24.359375 13.347656 -24.859375 11.953125 -24.859375 C 10.484375 -24.859375 9.335938 -24.320312 8.515625 -23.25 C 7.691406 -22.1875 7.28125 -20.738281 7.28125 -18.90625 L 7.28125 -0.546875 C 7.28125 -0.179688 7.09375 0 6.71875 0 L 3.90625 0 C 3.539062 0 3.359375 -0.179688 3.359375 -0.546875 L 3.359375 -27.328125 C 3.359375 -27.703125 3.539062 -27.890625 3.90625 -27.890625 L 6.71875 -27.890625 C 7.09375 -27.890625 7.28125 -27.703125 7.28125 -27.328125 L 7.28125 -25.578125 C 7.28125 -25.492188 7.316406 -25.429688 7.390625 -25.390625 C 7.460938 -25.359375 7.515625 -25.398438 7.546875 -25.515625 C 8.210938 -26.429688 9.050781 -27.117188 10.0625 -27.578125 C 11.070312 -28.035156 12.144531 -28.265625 13.28125 -28.265625 Z M 13.28125 -28.265625 "/></g></g></g><g fill="#ff3131" fill-opacity="1"><g transform="translate(657.228582, 494.146747)"><g><path d="M 16.03125 -27.328125 C 16.03125 -27.703125 16.21875 -27.890625 16.59375 -27.890625 L 19.40625 -27.890625 C 19.769531 -27.890625 19.953125 -27.703125 19.953125 -27.328125 L 19.953125 -0.546875 C 19.953125 3.378906 19.039062 6.363281 17.21875 8.40625 C 15.40625 10.445312 12.363281 11.375 8.09375 11.1875 C 7.726562 11.144531 7.546875 10.941406 7.546875 10.578125 L 7.546875 8.21875 C 7.546875 7.84375 7.726562 7.65625 8.09375 7.65625 C 11.039062 7.726562 13.097656 7.054688 14.265625 5.640625 C 15.441406 4.234375 16.03125 2.0625 16.03125 -0.875 L 16.03125 -2.53125 C 16.03125 -2.601562 16.003906 -2.65625 15.953125 -2.6875 C 15.898438 -2.726562 15.835938 -2.710938 15.765625 -2.640625 C 15.140625 -1.722656 14.335938 -1.023438 13.359375 -0.546875 C 12.390625 -0.0664062 11.351562 0.171875 10.25 0.171875 C 7.9375 0.171875 6.109375 -0.597656 4.765625 -2.140625 C 3.421875 -3.691406 2.75 -5.734375 2.75 -8.265625 L 2.75 -19.890625 C 2.75 -22.460938 3.421875 -24.507812 4.765625 -26.03125 C 6.109375 -27.5625 7.9375 -28.328125 10.25 -28.328125 C 11.351562 -28.328125 12.390625 -28.097656 13.359375 -27.640625 C 14.335938 -27.179688 15.140625 -26.492188 15.765625 -25.578125 C 15.835938 -25.460938 15.898438 -25.410156 15.953125 -25.421875 C 16.003906 -25.441406 16.03125 -25.507812 16.03125 -25.625 Z M 11.40625 -3.25 C 12.769531 -3.25 13.878906 -3.734375 14.734375 -4.703125 C 15.597656 -5.679688 16.03125 -6.941406 16.03125 -8.484375 L 16.03125 -19.625 C 16.03125 -21.195312 15.597656 -22.46875 14.734375 -23.4375 C 13.878906 -24.414062 12.769531 -24.90625 11.40625 -24.90625 C 10.007812 -24.90625 8.867188 -24.414062 7.984375 -23.4375 C 7.109375 -22.46875 6.671875 -21.195312 6.671875 -19.625 L 6.671875 -8.484375 C 6.671875 -6.941406 7.109375 -5.679688 7.984375 -4.703125 C 8.867188 -3.734375 10.007812 -3.25 11.40625 -3.25 Z M 11.40625 -3.25 "/></g></g></g><g fill="#ff3131" fill-opacity="1"><g transform="translate(679.9855, 494.146747)"><g/></g></g><g fill="#ff3131" fill-opacity="1"><g transform="translate(691.005805, 494.146747)"><g><path d="M 13.171875 -25.515625 C 13.171875 -25.148438 12.988281 -24.96875 12.625 -24.96875 L 8.4375 -24.96875 C 8.289062 -24.96875 8.21875 -24.894531 8.21875 -24.75 L 8.21875 -7.875 C 8.21875 -6.1875 8.507812 -5.019531 9.09375 -4.375 C 9.675781 -3.738281 10.578125 -3.4375 11.796875 -3.46875 L 12.34375 -3.46875 C 12.707031 -3.46875 12.890625 -3.285156 12.890625 -2.921875 L 12.890625 -0.546875 C 12.890625 -0.179688 12.707031 0 12.34375 0 L 10.96875 0 C 8.800781 0 7.15625 -0.46875 6.03125 -1.40625 C 4.914062 -2.34375 4.359375 -4.113281 4.359375 -6.71875 L 4.359375 -24.75 C 4.359375 -24.894531 4.285156 -24.96875 4.140625 -24.96875 L 1.984375 -24.96875 C 1.617188 -24.96875 1.4375 -25.148438 1.4375 -25.515625 L 1.4375 -27.328125 C 1.4375 -27.703125 1.617188 -27.890625 1.984375 -27.890625 L 4.140625 -27.890625 C 4.285156 -27.890625 4.359375 -27.960938 4.359375 -28.109375 L 4.359375 -34.28125 C 4.359375 -34.644531 4.539062 -34.828125 4.90625 -34.828125 L 7.65625 -34.828125 C 8.03125 -34.828125 8.21875 -34.644531 8.21875 -34.28125 L 8.21875 -28.109375 C 8.21875 -27.960938 8.289062 -27.890625 8.4375 -27.890625 L 12.625 -27.890625 C 12.988281 -27.890625 13.171875 -27.703125 13.171875 -27.328125 Z M 13.171875 -25.515625 "/></g></g></g><g fill="#ff3131" fill-opacity="1"><g transform="translate(705.717917, 494.146747)"><g><path d="M 13.28125 -28.265625 C 15.519531 -28.265625 17.253906 -27.492188 18.484375 -25.953125 C 19.710938 -24.410156 20.328125 -22.265625 20.328125 -19.515625 L 20.328125 -0.546875 C 20.328125 -0.179688 20.144531 0 19.78125 0 L 16.96875 0 C 16.601562 0 16.421875 -0.179688 16.421875 -0.546875 L 16.421875 -19.171875 C 16.421875 -20.972656 16.023438 -22.367188 15.234375 -23.359375 C 14.441406 -24.359375 13.347656 -24.859375 11.953125 -24.859375 C 10.484375 -24.859375 9.335938 -24.320312 8.515625 -23.25 C 7.691406 -22.1875 7.28125 -20.738281 7.28125 -18.90625 L 7.28125 -0.546875 C 7.28125 -0.179688 7.09375 0 6.71875 0 L 3.90625 0 C 3.539062 0 3.359375 -0.179688 3.359375 -0.546875 L 3.359375 -38.03125 C 3.359375 -38.394531 3.539062 -38.578125 3.90625 -38.578125 L 6.71875 -38.578125 C 7.09375 -38.578125 7.28125 -38.394531 7.28125 -38.03125 L 7.28125 -25.578125 C 7.28125 -25.492188 7.316406 -25.429688 7.390625 -25.390625 C 7.460938 -25.359375 7.515625 -25.398438 7.546875 -25.515625 C 8.210938 -26.429688 9.050781 -27.117188 10.0625 -27.578125 C 11.070312 -28.035156 12.144531 -28.265625 13.28125 -28.265625 Z M 13.28125 -28.265625 "/></g></g></g><g fill="#ff3131" fill-opacity="1"><g transform="translate(729.080961, 494.146747)"><g><path d="M 20 -13 C 20 -12.632812 19.816406 -12.453125 19.453125 -12.453125 L 6.890625 -12.453125 C 6.742188 -12.453125 6.671875 -12.378906 6.671875 -12.234375 L 6.671875 -8.21875 C 6.671875 -6.664062 7.101562 -5.398438 7.96875 -4.421875 C 8.832031 -3.453125 9.960938 -2.96875 11.359375 -2.96875 C 12.523438 -2.96875 13.519531 -3.328125 14.34375 -4.046875 C 15.175781 -4.765625 15.722656 -5.691406 15.984375 -6.828125 C 16.085938 -7.160156 16.289062 -7.328125 16.59375 -7.328125 L 19.34375 -7.21875 C 19.488281 -7.21875 19.613281 -7.160156 19.71875 -7.046875 C 19.832031 -6.941406 19.875 -6.796875 19.84375 -6.609375 C 19.550781 -4.441406 18.660156 -2.722656 17.171875 -1.453125 C 15.679688 -0.191406 13.742188 0.4375 11.359375 0.4375 C 8.742188 0.4375 6.65625 -0.332031 5.09375 -1.875 C 3.53125 -3.414062 2.75 -5.453125 2.75 -7.984375 L 2.75 -19.890625 C 2.75 -22.390625 3.53125 -24.421875 5.09375 -25.984375 C 6.65625 -27.546875 8.742188 -28.328125 11.359375 -28.328125 C 14.003906 -28.328125 16.101562 -27.546875 17.65625 -25.984375 C 19.21875 -24.421875 20 -22.390625 20 -19.890625 Z M 11.359375 -24.90625 C 9.960938 -24.90625 8.832031 -24.414062 7.96875 -23.4375 C 7.101562 -22.46875 6.671875 -21.195312 6.671875 -19.625 L 6.671875 -15.921875 C 6.671875 -15.773438 6.742188 -15.703125 6.890625 -15.703125 L 15.921875 -15.703125 C 16.066406 -15.703125 16.140625 -15.773438 16.140625 -15.921875 L 16.140625 -19.625 C 16.140625 -21.195312 15.695312 -22.46875 14.8125 -23.4375 C 13.9375 -24.414062 12.785156 -24.90625 11.359375 -24.90625 Z M 11.359375 -24.90625 "/></g></g></g><g fill="#ff3131" fill-opacity="1"><g transform="translate(751.507282, 494.146747)"><g/></g></g><g fill="#ff3131" fill-opacity="1"><g transform="translate(762.527576, 494.146747)"><g><path d="M 4.515625 0 C 4.148438 0 3.96875 -0.179688 3.96875 -0.546875 L 3.96875 -38.03125 C 3.96875 -38.394531 4.148438 -38.578125 4.515625 -38.578125 L 7.328125 -38.578125 C 7.691406 -38.578125 7.875 -38.394531 7.875 -38.03125 L 7.875 -0.546875 C 7.875 -0.179688 7.691406 0 7.328125 0 Z M 4.515625 0 "/></g></g></g><g fill="#ff3131" fill-opacity="1"><g transform="translate(774.374408, 494.146747)"><g><path d="M 13.28125 -28.265625 C 15.519531 -28.265625 17.253906 -27.492188 18.484375 -25.953125 C 19.710938 -24.410156 20.328125 -22.265625 20.328125 -19.515625 L 20.328125 -0.546875 C 20.328125 -0.179688 20.144531 0 19.78125 0 L 16.96875 0 C 16.601562 0 16.421875 -0.179688 16.421875 -0.546875 L 16.421875 -19.171875 C 16.421875 -20.972656 16.023438 -22.367188 15.234375 -23.359375 C 14.441406 -24.359375 13.347656 -24.859375 11.953125 -24.859375 C 10.484375 -24.859375 9.335938 -24.320312 8.515625 -23.25 C 7.691406 -22.1875 7.28125 -20.738281 7.28125 -18.90625 L 7.28125 -0.546875 C 7.28125 -0.179688 7.09375 0 6.71875 0 L 3.90625 0 C 3.539062 0 3.359375 -0.179688 3.359375 -0.546875 L 3.359375 -27.328125 C 3.359375 -27.703125 3.539062 -27.890625 3.90625 -27.890625 L 6.71875 -27.890625 C 7.09375 -27.890625 7.28125 -27.703125 7.28125 -27.328125 L 7.28125 -25.578125 C 7.28125 -25.492188 7.316406 -25.429688 7.390625 -25.390625 C 7.460938 -25.359375 7.515625 -25.398438 7.546875 -25.515625 C 8.210938 -26.429688 9.050781 -27.117188 10.0625 -27.578125 C 11.070312 -28.035156 12.144531 -28.265625 13.28125 -28.265625 Z M 13.28125 -28.265625 "/></g></g></g><g fill="#ff3131" fill-opacity="1"><g transform="translate(797.737451, 494.146747)"><g><path d="M 12.234375 -35.59375 C 10.835938 -35.59375 9.84375 -35.125 9.25 -34.1875 C 8.664062 -33.257812 8.375 -31.800781 8.375 -29.8125 L 8.375 -28.109375 C 8.375 -27.960938 8.445312 -27.890625 8.59375 -27.890625 L 12.84375 -27.890625 C 13.207031 -27.890625 13.390625 -27.703125 13.390625 -27.328125 L 13.390625 -25.515625 C 13.390625 -25.148438 13.207031 -24.96875 12.84375 -24.96875 L 8.59375 -24.96875 C 8.445312 -24.96875 8.375 -24.894531 8.375 -24.75 L 8.375 -0.546875 C 8.375 -0.179688 8.191406 0 7.828125 0 L 5.0625 0 C 4.695312 0 4.515625 -0.179688 4.515625 -0.546875 L 4.515625 -24.75 C 4.515625 -24.894531 4.441406 -24.96875 4.296875 -24.96875 L 2.09375 -24.96875 C 1.726562 -24.96875 1.546875 -25.148438 1.546875 -25.515625 L 1.546875 -27.328125 C 1.546875 -27.703125 1.726562 -27.890625 2.09375 -27.890625 L 4.296875 -27.890625 C 4.441406 -27.890625 4.515625 -27.960938 4.515625 -28.109375 L 4.515625 -29.875 C 4.515625 -33.0625 5.101562 -35.375 6.28125 -36.8125 C 7.457031 -38.25 9.421875 -38.96875 12.171875 -38.96875 L 12.953125 -38.96875 C 13.316406 -38.96875 13.5 -38.78125 13.5 -38.40625 L 13.453125 -36.15625 C 13.453125 -35.78125 13.265625 -35.59375 12.890625 -35.59375 Z M 12.234375 -35.59375 "/></g></g></g><g fill="#ff3131" fill-opacity="1"><g transform="translate(813.000573, 494.146747)"><g><path d="M 3.578125 0 C 3.210938 0 3.03125 -0.179688 3.03125 -0.546875 L 3.03125 -38.03125 C 3.03125 -38.394531 3.210938 -38.578125 3.578125 -38.578125 L 6.390625 -38.578125 C 6.753906 -38.578125 6.9375 -38.394531 6.9375 -38.03125 L 6.9375 -0.546875 C 6.9375 -0.179688 6.753906 0 6.390625 0 Z M 3.578125 0 "/></g></g></g><g fill="#ff3131" fill-opacity="1"><g transform="translate(822.973938, 494.146747)"><g><path d="M 16.09375 -27.328125 C 16.09375 -27.703125 16.273438 -27.890625 16.640625 -27.890625 L 19.453125 -27.890625 C 19.816406 -27.890625 20 -27.703125 20 -27.328125 L 20 -0.546875 C 20 -0.179688 19.816406 0 19.453125 0 L 16.640625 0 C 16.273438 0 16.09375 -0.179688 16.09375 -0.546875 L 16.09375 -2.421875 C 16.09375 -2.535156 16.0625 -2.59375 16 -2.59375 C 15.945312 -2.59375 15.882812 -2.554688 15.8125 -2.484375 C 14.675781 -0.566406 12.84375 0.390625 10.3125 0.390625 C 8.101562 0.390625 6.347656 -0.28125 5.046875 -1.625 C 3.742188 -2.96875 3.09375 -5 3.09375 -7.71875 L 3.09375 -27.328125 C 3.09375 -27.703125 3.273438 -27.890625 3.640625 -27.890625 L 6.453125 -27.890625 C 6.816406 -27.890625 7 -27.703125 7 -27.328125 L 7 -8.59375 C 7 -6.757812 7.375 -5.375 8.125 -4.4375 C 8.882812 -3.5 9.976562 -3.03125 11.40625 -3.03125 C 12.875 -3.03125 14.019531 -3.5625 14.84375 -4.625 C 15.675781 -5.695312 16.09375 -7.148438 16.09375 -8.984375 Z M 16.09375 -27.328125 "/></g></g></g><g fill="#ff3131" fill-opacity="1"><g transform="translate(846.336981, 494.146747)"><g><path d="M 20 -13 C 20 -12.632812 19.816406 -12.453125 19.453125 -12.453125 L 6.890625 -12.453125 C 6.742188 -12.453125 6.671875 -12.378906 6.671875 -12.234375 L 6.671875 -8.21875 C 6.671875 -6.664062 7.101562 -5.398438 7.96875 -4.421875 C 8.832031 -3.453125 9.960938 -2.96875 11.359375 -2.96875 C 12.523438 -2.96875 13.519531 -3.328125 14.34375 -4.046875 C 15.175781 -4.765625 15.722656 -5.691406 15.984375 -6.828125 C 16.085938 -7.160156 16.289062 -7.328125 16.59375 -7.328125 L 19.34375 -7.21875 C 19.488281 -7.21875 19.613281 -7.160156 19.71875 -7.046875 C 19.832031 -6.941406 19.875 -6.796875 19.84375 -6.609375 C 19.550781 -4.441406 18.660156 -2.722656 17.171875 -1.453125 C 15.679688 -0.191406 13.742188 0.4375 11.359375 0.4375 C 8.742188 0.4375 6.65625 -0.332031 5.09375 -1.875 C 3.53125 -3.414062 2.75 -5.453125 2.75 -7.984375 L 2.75 -19.890625 C 2.75 -22.390625 3.53125 -24.421875 5.09375 -25.984375 C 6.65625 -27.546875 8.742188 -28.328125 11.359375 -28.328125 C 14.003906 -28.328125 16.101562 -27.546875 17.65625 -25.984375 C 19.21875 -24.421875 20 -22.390625 20 -19.890625 Z M 11.359375 -24.90625 C 9.960938 -24.90625 8.832031 -24.414062 7.96875 -23.4375 C 7.101562 -22.46875 6.671875 -21.195312 6.671875 -19.625 L 6.671875 -15.921875 C 6.671875 -15.773438 6.742188 -15.703125 6.890625 -15.703125 L 15.921875 -15.703125 C 16.066406 -15.703125 16.140625 -15.773438 16.140625 -15.921875 L 16.140625 -19.625 C 16.140625 -21.195312 15.695312 -22.46875 14.8125 -23.4375 C 13.9375 -24.414062 12.785156 -24.90625 11.359375 -24.90625 Z M 11.359375 -24.90625 "/></g></g></g><g fill="#ff3131" fill-opacity="1"><g transform="translate(868.763303, 494.146747)"><g><path d="M 13.28125 -28.265625 C 15.519531 -28.265625 17.253906 -27.492188 18.484375 -25.953125 C 19.710938 -24.410156 20.328125 -22.265625 20.328125 -19.515625 L 20.328125 -0.546875 C 20.328125 -0.179688 20.144531 0 19.78125 0 L 16.96875 0 C 16.601562 0 16.421875 -0.179688 16.421875 -0.546875 L 16.421875 -19.171875 C 16.421875 -20.972656 16.023438 -22.367188 15.234375 -23.359375 C 14.441406 -24.359375 13.347656 -24.859375 11.953125 -24.859375 C 10.484375 -24.859375 9.335938 -24.320312 8.515625 -23.25 C 7.691406 -22.1875 7.28125 -20.738281 7.28125 -18.90625 L 7.28125 -0.546875 C 7.28125 -0.179688 7.09375 0 6.71875 0 L 3.90625 0 C 3.539062 0 3.359375 -0.179688 3.359375 -0.546875 L 3.359375 -27.328125 C 3.359375 -27.703125 3.539062 -27.890625 3.90625 -27.890625 L 6.71875 -27.890625 C 7.09375 -27.890625 7.28125 -27.703125 7.28125 -27.328125 L 7.28125 -25.578125 C 7.28125 -25.492188 7.316406 -25.429688 7.390625 -25.390625 C 7.460938 -25.359375 7.515625 -25.398438 7.546875 -25.515625 C 8.210938 -26.429688 9.050781 -27.117188 10.0625 -27.578125 C 11.070312 -28.035156 12.144531 -28.265625 13.28125 -28.265625 Z M 13.28125 -28.265625 "/></g></g></g><g fill="#ff3131" fill-opacity="1"><g transform="translate(892.126324, 494.146747)"><g><path d="M 11.359375 0.4375 C 8.742188 0.4375 6.65625 -0.332031 5.09375 -1.875 C 3.53125 -3.414062 2.75 -5.453125 2.75 -7.984375 L 2.75 -19.890625 C 2.75 -22.390625 3.539062 -24.421875 5.125 -25.984375 C 6.707031 -27.546875 8.785156 -28.328125 11.359375 -28.328125 C 13.078125 -28.328125 14.597656 -27.976562 15.921875 -27.28125 C 17.242188 -26.582031 18.265625 -25.65625 18.984375 -24.5 C 19.703125 -23.34375 20.0625 -22.066406 20.0625 -20.671875 L 20.0625 -20.109375 C 20.0625 -19.742188 19.878906 -19.5625 19.515625 -19.5625 L 16.703125 -19.453125 C 16.328125 -19.453125 16.140625 -19.632812 16.140625 -20 L 16.140625 -20.390625 C 16.140625 -21.597656 15.691406 -22.648438 14.796875 -23.546875 C 13.898438 -24.453125 12.753906 -24.90625 11.359375 -24.90625 C 9.960938 -24.90625 8.832031 -24.414062 7.96875 -23.4375 C 7.101562 -22.46875 6.671875 -21.195312 6.671875 -19.625 L 6.671875 -8.265625 C 6.671875 -6.679688 7.101562 -5.398438 7.96875 -4.421875 C 8.832031 -3.453125 9.960938 -2.96875 11.359375 -2.96875 C 12.753906 -2.96875 13.898438 -3.414062 14.796875 -4.3125 C 15.691406 -5.21875 16.140625 -6.28125 16.140625 -7.5 L 16.140625 -7.875 C 16.140625 -8.25 16.328125 -8.4375 16.703125 -8.4375 L 19.515625 -8.375 C 19.878906 -8.375 20.0625 -8.191406 20.0625 -7.828125 L 20.0625 -7.21875 C 20.0625 -5.007812 19.257812 -3.179688 17.65625 -1.734375 C 16.0625 -0.285156 13.960938 0.4375 11.359375 0.4375 Z M 11.359375 0.4375 "/></g></g></g><g fill="#ff3131" fill-opacity="1"><g transform="translate(914.277141, 494.146747)"><g><path d="M 20 -13 C 20 -12.632812 19.816406 -12.453125 19.453125 -12.453125 L 6.890625 -12.453125 C 6.742188 -12.453125 6.671875 -12.378906 6.671875 -12.234375 L 6.671875 -8.21875 C 6.671875 -6.664062 7.101562 -5.398438 7.96875 -4.421875 C 8.832031 -3.453125 9.960938 -2.96875 11.359375 -2.96875 C 12.523438 -2.96875 13.519531 -3.328125 14.34375 -4.046875 C 15.175781 -4.765625 15.722656 -5.691406 15.984375 -6.828125 C 16.085938 -7.160156 16.289062 -7.328125 16.59375 -7.328125 L 19.34375 -7.21875 C 19.488281 -7.21875 19.613281 -7.160156 19.71875 -7.046875 C 19.832031 -6.941406 19.875 -6.796875 19.84375 -6.609375 C 19.550781 -4.441406 18.660156 -2.722656 17.171875 -1.453125 C 15.679688 -0.191406 13.742188 0.4375 11.359375 0.4375 C 8.742188 0.4375 6.65625 -0.332031 5.09375 -1.875 C 3.53125 -3.414062 2.75 -5.453125 2.75 -7.984375 L 2.75 -19.890625 C 2.75 -22.390625 3.53125 -24.421875 5.09375 -25.984375 C 6.65625 -27.546875 8.742188 -28.328125 11.359375 -28.328125 C 14.003906 -28.328125 16.101562 -27.546875 17.65625 -25.984375 C 19.21875 -24.421875 20 -22.390625 20 -19.890625 Z M 11.359375 -24.90625 C 9.960938 -24.90625 8.832031 -24.414062 7.96875 -23.4375 C 7.101562 -22.46875 6.671875 -21.195312 6.671875 -19.625 L 6.671875 -15.921875 C 6.671875 -15.773438 6.742188 -15.703125 6.890625 -15.703125 L 15.921875 -15.703125 C 16.066406 -15.703125 16.140625 -15.773438 16.140625 -15.921875 L 16.140625 -19.625 C 16.140625 -21.195312 15.695312 -22.46875 14.8125 -23.4375 C 13.9375 -24.414062 12.785156 -24.90625 11.359375 -24.90625 Z M 11.359375 -24.90625 "/></g></g></g><g fill="#ff3131" fill-opacity="1"><g transform="translate(936.70344, 494.146747)"><g><path d="M 12.78125 -28.15625 C 13.695312 -28.15625 14.488281 -27.953125 15.15625 -27.546875 C 15.414062 -27.398438 15.507812 -27.164062 15.4375 -26.84375 L 14.765625 -23.96875 C 14.734375 -23.632812 14.515625 -23.523438 14.109375 -23.640625 C 13.671875 -23.859375 13.117188 -23.96875 12.453125 -23.96875 C 12.160156 -23.96875 11.941406 -23.953125 11.796875 -23.921875 C 10.472656 -23.847656 9.390625 -23.15625 8.546875 -21.84375 C 7.703125 -20.539062 7.28125 -18.953125 7.28125 -17.078125 L 7.28125 -0.546875 C 7.28125 -0.179688 7.09375 0 6.71875 0 L 3.90625 0 C 3.539062 0 3.359375 -0.179688 3.359375 -0.546875 L 3.359375 -27.328125 C 3.359375 -27.703125 3.539062 -27.890625 3.90625 -27.890625 L 6.71875 -27.890625 C 7.09375 -27.890625 7.28125 -27.703125 7.28125 -27.328125 L 7.28125 -24.03125 C 7.28125 -23.914062 7.304688 -23.859375 7.359375 -23.859375 C 7.410156 -23.859375 7.472656 -23.894531 7.546875 -23.96875 C 8.609375 -26.757812 10.351562 -28.15625 12.78125 -28.15625 Z M 12.78125 -28.15625 "/></g></g></g><g fill="#ff3131" fill-opacity="1"><g transform="translate(952.7931, 494.146747)"><g><path d="M 10.640625 0.28125 C 8.097656 0.28125 6.066406 -0.367188 4.546875 -1.671875 C 3.023438 -2.984375 2.265625 -4.722656 2.265625 -6.890625 L 2.265625 -7.28125 C 2.265625 -7.644531 2.445312 -7.828125 2.8125 -7.828125 L 5.453125 -7.828125 C 5.816406 -7.828125 6 -7.644531 6 -7.28125 L 6 -6.9375 C 6 -5.769531 6.429688 -4.78125 7.296875 -3.96875 C 8.160156 -3.15625 9.289062 -2.75 10.6875 -2.75 C 12.007812 -2.75 13.070312 -3.15625 13.875 -3.96875 C 14.6875 -4.78125 15.09375 -5.804688 15.09375 -7.046875 C 15.09375 -8.003906 14.835938 -8.804688 14.328125 -9.453125 C 13.816406 -10.097656 13.21875 -10.601562 12.53125 -10.96875 C 11.851562 -11.332031 10.835938 -11.8125 9.484375 -12.40625 C 8.046875 -12.988281 6.859375 -13.5625 5.921875 -14.125 C 4.984375 -14.695312 4.175781 -15.503906 3.5 -16.546875 C 2.820312 -17.597656 2.484375 -18.9375 2.484375 -20.5625 C 2.484375 -22.90625 3.207031 -24.753906 4.65625 -26.109375 C 6.101562 -27.472656 8.0625 -28.15625 10.53125 -28.15625 C 13.019531 -28.15625 15 -27.457031 16.46875 -26.0625 C 17.945312 -24.664062 18.6875 -22.8125 18.6875 -20.5 L 18.6875 -20.328125 C 18.6875 -19.960938 18.5 -19.78125 18.125 -19.78125 L 15.59375 -19.78125 C 15.226562 -19.78125 15.046875 -19.960938 15.046875 -20.328125 L 15.046875 -20.671875 C 15.046875 -21.921875 14.628906 -22.945312 13.796875 -23.75 C 12.972656 -24.5625 11.898438 -24.96875 10.578125 -24.96875 C 9.253906 -24.96875 8.195312 -24.550781 7.40625 -23.71875 C 6.625 -22.894531 6.234375 -21.878906 6.234375 -20.671875 C 6.234375 -19.785156 6.46875 -19.039062 6.9375 -18.4375 C 7.414062 -17.832031 8.003906 -17.335938 8.703125 -16.953125 C 9.398438 -16.566406 10.375 -16.097656 11.625 -15.546875 C 13.132812 -14.878906 14.375 -14.25 15.34375 -13.65625 C 16.320312 -13.070312 17.175781 -12.25 17.90625 -11.1875 C 18.644531 -10.125 19.015625 -8.800781 19.015625 -7.21875 C 19.015625 -4.9375 18.257812 -3.113281 16.75 -1.75 C 15.25 -0.394531 13.210938 0.28125 10.640625 0.28125 Z M 10.640625 0.28125 "/></g></g></g></svg>